<svg width="16" height="16" viewBox="0 0 16 16" fill="none" xmlns="http://www.w3.org/2000/svg">
<g clip-path="url(#clip0_1_3157)">
<path d="M7.5 4.5C7.5 5.56087 7.92143 6.57828 8.67157 7.32843C9.42172 8.07857 10.4391 8.5 11.5 8.5C12.5609 8.5 13.5783 8.07857 14.3284 7.32843C15.0786 6.57828 15.5 5.56087 15.5 4.5C15.5 3.43913 15.0786 2.42172 14.3284 1.67157C13.5783 0.921427 12.5609 0.5 11.5 0.5C10.4391 0.5 9.42172 0.921427 8.67157 1.67157C7.92143 2.42172 7.5 3.43913 7.5 4.5Z" stroke="#0D121C" stroke-linecap="round" stroke-linejoin="round"/>
<path d="M11.5 3V5.16667H13" stroke="#0D121C" stroke-linecap="round" stroke-linejoin="round"/>
<path d="M11.76 10.9333C11.9067 11.4972 12.1577 12.0285 12.5 12.5H0.5C0.5 12.5 1.5 10.9467 1.5 7C1.49895 5.876 1.87665 4.78444 2.57214 3.90146C3.26764 3.01848 4.24036 2.3956 5.33333 2.13333" stroke="#0D121C" stroke-linecap="round" stroke-linejoin="round"/>
<path d="M5.16667 14.5C5.24944 14.7898 5.42435 15.0447 5.66493 15.2261C5.9055 15.4076 6.19865 15.5058 6.5 15.5058C6.80135 15.5058 7.0945 15.4076 7.33507 15.2261C7.57565 15.0447 7.75056 14.7898 7.83333 14.5" stroke="#0D121C" stroke-linecap="round" stroke-linejoin="round"/>
</g>
<defs>
<clipPath id="clip0_1_3157">
<rect width="16" height="16" fill="white"/>
</clipPath>
</defs>
</svg>
