<svg width="16" height="16" viewBox="0 0 16 16" fill="none" xmlns="http://www.w3.org/2000/svg">
<g clip-path="url(#clip0_1_3173)">
<path d="M8 11.5C7.9337 11.5 7.87011 11.4737 7.82322 11.4268C7.77634 11.3799 7.75 11.3163 7.75 11.25C7.75 11.1837 7.77634 11.1201 7.82322 11.0732C7.87011 11.0263 7.9337 11 8 11" stroke="#0D121C"/>
<path d="M8 11.5C8.0663 11.5 8.12989 11.4737 8.17678 11.4268C8.22366 11.3799 8.25 11.3163 8.25 11.25C8.25 11.1837 8.22366 11.1201 8.17678 11.0732C8.12989 11.0263 8.0663 11 8 11" stroke="#0D121C"/>
<path d="M8 9V4" stroke="#0D121C" stroke-miterlimit="10" stroke-linecap="round"/>
<path d="M0.853333 8.854C0.627106 8.6275 0.500036 8.32046 0.500036 8.00034C0.500036 7.68021 0.627106 7.37317 0.853333 7.14667L7.14667 0.854004C7.25872 0.741927 7.39175 0.653022 7.53817 0.592365C7.68459 0.531708 7.84152 0.500488 8 0.500488C8.15848 0.500488 8.31541 0.531708 8.46183 0.592365C8.60825 0.653022 8.74128 0.741927 8.85333 0.854004L15.1467 7.14667C15.3729 7.37317 15.5 7.68021 15.5 8.00034C15.5 8.32046 15.3729 8.6275 15.1467 8.854L8.85333 15.1467C8.74128 15.2587 8.60825 15.3477 8.46183 15.4083C8.31541 15.469 8.15848 15.5002 8 15.5002C7.84152 15.5002 7.68459 15.469 7.53817 15.4083C7.39175 15.3477 7.25872 15.2587 7.14667 15.1467L0.853333 8.854Z" stroke="#0D121C" stroke-linecap="round" stroke-linejoin="round"/>
</g>
<defs>
<clipPath id="clip0_1_3173">
<rect width="16" height="16" fill="white"/>
</clipPath>
</defs>
</svg>
