<svg width="16" height="16" viewBox="0 0 16 16" fill="none" xmlns="http://www.w3.org/2000/svg">
<g clip-path="url(#clip0_1_3130)">
<path d="M8 13C7.9337 13 7.87011 12.9737 7.82322 12.9268C7.77634 12.8799 7.75 12.8163 7.75 12.75C7.75 12.6837 7.77634 12.6201 7.82322 12.5732C7.87011 12.5263 7.9337 12.5 8 12.5" stroke="#0D121C"/>
<path d="M8 13C8.0663 13 8.12989 12.9737 8.17678 12.9268C8.22366 12.8799 8.25 12.8163 8.25 12.75C8.25 12.6837 8.22366 12.6201 8.17678 12.5732C8.12989 12.5263 8.0663 12.5 8 12.5" stroke="#0D121C"/>
<path d="M8 10.5V5.5" stroke="#0D121C" stroke-miterlimit="10" stroke-linecap="round"/>
<path d="M9.08067 1.17333C8.98145 0.971338 8.82761 0.801198 8.63659 0.682211C8.44558 0.563224 8.22504 0.500153 8 0.500153C7.77496 0.500153 7.55442 0.563224 7.36341 0.682211C7.17239 0.801198 7.01855 0.971338 6.91933 1.17333L0.604 14.0387C0.52798 14.1933 0.492624 14.3648 0.501271 14.5369C0.509917 14.709 0.562281 14.876 0.653418 15.0223C0.744555 15.1685 0.871459 15.2891 1.02215 15.3727C1.17284 15.4563 1.34235 15.5001 1.51467 15.5H14.4853C14.6577 15.5003 14.8273 15.4566 14.9781 15.3731C15.1289 15.2895 15.2559 15.1689 15.3471 15.0226C15.4383 14.8763 15.4906 14.7091 15.4992 14.537C15.5077 14.3648 15.4722 14.1933 15.396 14.0387L9.08067 1.17333Z" stroke="#0D121C" stroke-linecap="round" stroke-linejoin="round"/>
</g>
<defs>
<clipPath id="clip0_1_3130">
<rect width="16" height="16" fill="white"/>
</clipPath>
</defs>
</svg>
