<svg width="16" height="16" viewBox="0 0 16 16" fill="none" xmlns="http://www.w3.org/2000/svg">
<g clip-path="url(#clip0_1_3187)">
<path d="M11.5 8.5C12.5609 8.5 13.5783 8.07857 14.3284 7.32843C15.0786 6.57828 15.5 5.56087 15.5 4.5C15.5 3.43913 15.0786 2.42172 14.3284 1.67157C13.5783 0.921427 12.5609 0.5 11.5 0.5C10.4391 0.5 9.42172 0.921427 8.67157 1.67157C7.92143 2.42172 7.5 3.43913 7.5 4.5C7.5 5.56087 7.92143 6.57828 8.67157 7.32843C9.42172 8.07857 10.4391 8.5 11.5 8.5Z" stroke="#0D121C" stroke-linecap="round" stroke-linejoin="round"/>
<path d="M11.5 6.5C11.4337 6.5 11.3701 6.47366 11.3232 6.42678C11.2763 6.37989 11.25 6.3163 11.25 6.25C11.25 6.1837 11.2763 6.12011 11.3232 6.07322C11.3701 6.02634 11.4337 6 11.5 6" stroke="#0D121C"/>
<path d="M11.5 6.5C11.5663 6.5 11.6299 6.47366 11.6768 6.42678C11.7237 6.37989 11.75 6.3163 11.75 6.25C11.75 6.1837 11.7237 6.12011 11.6768 6.07322C11.6299 6.02634 11.5663 6 11.5 6" stroke="#0D121C"/>
<path d="M11.5 4.5V2.5" stroke="#0D121C" stroke-linecap="round" stroke-linejoin="round"/>
<path d="M11.67 10.5747C11.8048 11.2687 12.0879 11.9255 12.5 12.5H0.5C0.5 12.5 1.5 10.9473 1.5 7C1.5 5.67392 2.02678 4.40215 2.96447 3.46447C3.90215 2.52678 5.17392 2 6.5 2V0.5" stroke="#0D121C" stroke-linecap="round" stroke-linejoin="round"/>
<path d="M5.16534 14.5C5.25001 14.7885 5.42585 15.0417 5.66651 15.2219C5.90717 15.4021 6.19971 15.4994 6.50034 15.4994C6.80097 15.4994 7.09351 15.4021 7.33417 15.2219C7.57483 15.0417 7.75066 14.7885 7.83534 14.5" stroke="#0D121C" stroke-linecap="round" stroke-linejoin="round"/>
</g>
<defs>
<clipPath id="clip0_1_3187">
<rect width="16" height="16" fill="white"/>
</clipPath>
</defs>
</svg>
