<svg width="16" height="16" viewBox="0 0 16 16" fill="none" xmlns="http://www.w3.org/2000/svg">
<g clip-path="url(#clip0_1_3162)">
<path d="M4.54267 2.84399C3.85054 3.22833 3.28006 3.79905 2.896 4.49133" stroke="#0D121C" stroke-linecap="round" stroke-linejoin="round"/>
<path d="M3.98333 1C3.273 1.20196 2.62606 1.5821 2.10393 2.10435C1.5818 2.6266 1.2018 3.27362 1 3.984" stroke="#0D121C" stroke-linecap="round" stroke-linejoin="round"/>
<path d="M3 12H13" stroke="#0D121C" stroke-linecap="round" stroke-linejoin="round"/>
<path d="M13 12C13 12 12 11.1293 12 7.99999C12 5.49999 10.292 3.28799 8 3.28799C5.708 3.28799 4 5.49999 4 7.99999C4 11.146 3 12 3 12" stroke="#0D121C" stroke-linecap="round" stroke-linejoin="round"/>
<path d="M9 14C9 14.2652 8.89464 14.5196 8.70711 14.7071C8.51957 14.8946 8.26522 15 8 15C7.73478 15 7.48043 14.8946 7.29289 14.7071C7.10536 14.5196 7 14.2652 7 14" stroke="#0D121C" stroke-linecap="round" stroke-linejoin="round"/>
<path d="M8 3.288V2" stroke="#0D121C" stroke-linecap="round" stroke-linejoin="round"/>
<path d="M11.4573 2.84399C11.8011 3.03595 12.117 3.27417 12.396 3.55199C12.6743 3.83087 12.9126 4.14699 13.104 4.49133" stroke="#0D121C" stroke-linecap="round" stroke-linejoin="round"/>
<path d="M12.0167 1C12.727 1.20196 13.3739 1.5821 13.8961 2.10435C14.4182 2.6266 14.7982 3.27362 15 3.984" stroke="#0D121C" stroke-linecap="round" stroke-linejoin="round"/>
</g>
<defs>
<clipPath id="clip0_1_3162">
<rect width="16" height="16" fill="white"/>
</clipPath>
</defs>
</svg>
