<svg width="16" height="16" viewBox="0 0 16 16" fill="none" xmlns="http://www.w3.org/2000/svg">
<path d="M12.5 10.4993V5C12.5 3.80653 12.0259 2.66193 11.182 1.81802C10.3381 0.974106 9.19347 0.5 8 0.5C6.80653 0.5 5.66193 0.974106 4.81802 1.81802C3.97411 2.66193 3.5 3.80653 3.5 5V12.5C3.5 13.2956 3.81607 14.0587 4.37868 14.6213C4.94129 15.1839 5.70435 15.5 6.5 15.5C7.29565 15.5 8.05871 15.1839 8.62132 14.6213C9.18393 14.0587 9.5 13.2956 9.5 12.5V5C9.5 4.60218 9.34196 4.22064 9.06066 3.93934C8.77936 3.65804 8.39782 3.5 8 3.5C7.60218 3.5 7.22064 3.65804 6.93934 3.93934C6.65804 4.22064 6.5 4.60218 6.5 5V11.5" stroke="#0D121C" stroke-linecap="round" stroke-linejoin="round"/>
</svg>
