<svg width="16" height="16" viewBox="0 0 16 16" fill="none" xmlns="http://www.w3.org/2000/svg">
<g clip-path="url(#clip0_1_3144)">
<path d="M15.5 6.60001L8.182 13.9187C7.33808 14.7626 6.19348 15.2367 5 15.2367C3.80652 15.2367 2.66192 14.7626 1.818 13.9187C0.974078 13.0748 0.499969 11.9302 0.499969 10.7367C0.499969 9.5432 0.974078 8.3986 1.818 7.55468L7.82866 1.54468C8.1054 1.25815 8.43644 1.0296 8.80245 0.872375C9.16846 0.715148 9.56212 0.632389 9.96046 0.628928C10.3588 0.625467 10.7538 0.701372 11.1225 0.852214C11.4912 1.00306 11.8262 1.22582 12.1078 1.50749C12.3895 1.78917 12.6123 2.12413 12.7631 2.49282C12.914 2.86151 12.9899 3.25655 12.9864 3.65488C12.983 4.05322 12.9002 4.44688 12.743 4.81289C12.5857 5.17891 12.3572 5.50994 12.0707 5.78668L6.06066 11.8C5.7778 12.0733 5.39892 12.2245 5.00563 12.2212C4.61233 12.2178 4.23609 12.0601 3.95793 11.7821C3.67978 11.504 3.52196 11.1278 3.51848 10.7345C3.51501 10.3412 3.66614 9.96229 3.93933 9.67935L9.95 3.66668" stroke="#0D121C" stroke-linecap="round" stroke-linejoin="round"/>
</g>
<defs>
<clipPath id="clip0_1_3144">
<rect width="16" height="16" fill="white"/>
</clipPath>
</defs>
</svg>
