<svg width="16" height="16" viewBox="0 0 16 16" fill="none" xmlns="http://www.w3.org/2000/svg">
<g clip-path="url(#clip0_1_3151)">
<path d="M14.5 2.5H1.5C1.23478 2.5 0.98043 2.60536 0.792893 2.79289C0.605357 2.98043 0.5 3.23478 0.5 3.5V14.5C0.5 14.7652 0.605357 15.0196 0.792893 15.2071C0.98043 15.3946 1.23478 15.5 1.5 15.5H14.5C14.7652 15.5 15.0196 15.3946 15.2071 15.2071C15.3946 15.0196 15.5 14.7652 15.5 14.5V3.5C15.5 3.23478 15.3946 2.98043 15.2071 2.79289C15.0196 2.60536 14.7652 2.5 14.5 2.5Z" stroke="#0D121C" stroke-linecap="round" stroke-linejoin="round"/>
<path d="M0.5 6.5H15.5" stroke="#0D121C" stroke-linecap="round" stroke-linejoin="round"/>
<path d="M4.5 4V0.5" stroke="#0D121C" stroke-linecap="round" stroke-linejoin="round"/>
<path d="M11.5 4V0.5" stroke="#0D121C" stroke-linecap="round" stroke-linejoin="round"/>
<path d="M3.75 9.5C3.6837 9.5 3.62011 9.47366 3.57322 9.42678C3.52634 9.37989 3.5 9.3163 3.5 9.25C3.5 9.1837 3.52634 9.12011 3.57322 9.07322C3.62011 9.02634 3.6837 9 3.75 9" stroke="#0D121C"/>
<path d="M3.75 9.5C3.8163 9.5 3.87989 9.47366 3.92678 9.42678C3.97366 9.37989 4 9.3163 4 9.25C4 9.1837 3.97366 9.12011 3.92678 9.07322C3.87989 9.02634 3.8163 9 3.75 9" stroke="#0D121C"/>
<path d="M3.75 13C3.6837 13 3.62011 12.9737 3.57322 12.9268C3.52634 12.8799 3.5 12.8163 3.5 12.75C3.5 12.6837 3.52634 12.6201 3.57322 12.5732C3.62011 12.5263 3.6837 12.5 3.75 12.5" stroke="#0D121C"/>
<path d="M3.75 13C3.8163 13 3.87989 12.9737 3.92678 12.9268C3.97366 12.8799 4 12.8163 4 12.75C4 12.6837 3.97366 12.6201 3.92678 12.5732C3.87989 12.5263 3.8163 12.5 3.75 12.5" stroke="#0D121C"/>
<path d="M8 9.5C7.9337 9.5 7.87011 9.47366 7.82322 9.42678C7.77634 9.37989 7.75 9.3163 7.75 9.25C7.75 9.1837 7.77634 9.12011 7.82322 9.07322C7.87011 9.02634 7.9337 9 8 9" stroke="#0D121C"/>
<path d="M8 9.5C8.0663 9.5 8.12989 9.47366 8.17678 9.42678C8.22366 9.37989 8.25 9.3163 8.25 9.25C8.25 9.1837 8.22366 9.12011 8.17678 9.07322C8.12989 9.02634 8.0663 9 8 9" stroke="#0D121C"/>
<path d="M8 13C7.9337 13 7.87011 12.9737 7.82322 12.9268C7.77634 12.8799 7.75 12.8163 7.75 12.75C7.75 12.6837 7.77634 12.6201 7.82322 12.5732C7.87011 12.5263 7.9337 12.5 8 12.5" stroke="#0D121C"/>
<path d="M8 13C8.0663 13 8.12989 12.9737 8.17678 12.9268C8.22366 12.8799 8.25 12.8163 8.25 12.75C8.25 12.6837 8.22366 12.6201 8.17678 12.5732C8.12989 12.5263 8.0663 12.5 8 12.5" stroke="#0D121C"/>
<path d="M12.25 9.5C12.1837 9.5 12.1201 9.47366 12.0732 9.42678C12.0263 9.37989 12 9.3163 12 9.25C12 9.1837 12.0263 9.12011 12.0732 9.07322C12.1201 9.02634 12.1837 9 12.25 9" stroke="#0D121C"/>
<path d="M12.25 9.5C12.3163 9.5 12.3799 9.47366 12.4268 9.42678C12.4737 9.37989 12.5 9.3163 12.5 9.25C12.5 9.1837 12.4737 9.12011 12.4268 9.07322C12.3799 9.02634 12.3163 9 12.25 9" stroke="#0D121C"/>
<path d="M12.25 13C12.1837 13 12.1201 12.9737 12.0732 12.9268C12.0263 12.8799 12 12.8163 12 12.75C12 12.6837 12.0263 12.6201 12.0732 12.5732C12.1201 12.5263 12.1837 12.5 12.25 12.5" stroke="#0D121C"/>
<path d="M12.25 13C12.3163 13 12.3799 12.9737 12.4268 12.9268C12.4737 12.8799 12.5 12.8163 12.5 12.75C12.5 12.6837 12.4737 12.6201 12.4268 12.5732C12.3799 12.5263 12.3163 12.5 12.25 12.5" stroke="#0D121C"/>
</g>
<defs>
<clipPath id="clip0_1_3151">
<rect width="16" height="16" fill="white"/>
</clipPath>
</defs>
</svg>
