<svg width="16" height="16" viewBox="0 0 16 16" fill="none" xmlns="http://www.w3.org/2000/svg">
<g clip-path="url(#clip0_1_3163)">
<path d="M0.498665 8C0.498665 9.98912 1.28884 11.8968 2.69536 13.3033C4.10189 14.7098 6.00954 15.5 7.99867 15.5C9.98779 15.5 11.8954 14.7098 13.302 13.3033C14.7085 11.8968 15.4987 9.98912 15.4987 8C15.4987 6.01088 14.7085 4.10322 13.302 2.6967C11.8954 1.29018 9.98779 0.5 7.99867 0.5C6.00954 0.5 4.10189 1.29018 2.69536 2.6967C1.28884 4.10322 0.498665 6.01088 0.498665 8Z" stroke="#0D121C" stroke-linecap="round" stroke-linejoin="round"/>
<path d="M4.99866 11L10.998 5" stroke="#0D121C" stroke-linecap="round" stroke-linejoin="round"/>
<path d="M10.9987 11L4.998 5" stroke="#0D121C" stroke-linecap="round" stroke-linejoin="round"/>
</g>
<defs>
<clipPath id="clip0_1_3163">
<rect width="16" height="16" fill="white"/>
</clipPath>
</defs>
</svg>
