<svg width="16" height="16" viewBox="0 0 16 16" fill="none" xmlns="http://www.w3.org/2000/svg">
<path d="M13.7143 2.28571H14.8571C15.0087 2.28571 15.154 2.34591 15.2612 2.45307C15.3684 2.56024 15.4286 2.70558 15.4286 2.85713V12C15.4286 12.1515 15.3684 12.2969 15.2612 12.4041C15.154 12.5112 15.0087 12.5714 14.8571 12.5714H1.14285C0.991303 12.5714 0.845958 12.5112 0.738794 12.4041C0.63163 12.2969 0.571426 12.1515 0.571426 12V2.85713C0.571426 2.70558 0.63163 2.56024 0.738794 2.45307C0.845958 2.34591 0.991303 2.28571 1.14285 2.28571H2.28571M6.85714 12.5714L5.71428 15.4286M9.14285 12.5714L10.2857 15.4286M4.57143 15.4286H11.4286" stroke="#0D121C" stroke-linecap="round" stroke-linejoin="round"/>
<path d="M5.71429 2.85713C5.71429 2.40506 5.84834 1.96314 6.0995 1.58725C6.35066 1.21137 6.70764 0.918402 7.1253 0.745402C7.54296 0.572401 8.00254 0.527137 8.44592 0.615332C8.88931 0.703526 9.29658 0.92122 9.61624 1.24088C9.93591 1.56055 10.1536 1.96782 10.2418 2.41121C10.33 2.85459 10.2847 3.31417 10.1117 3.73183C9.93873 4.14949 9.64576 4.50647 9.26988 4.75763C8.89399 5.00879 8.45207 5.14284 8 5.14284V6.2857" stroke="#0D121C" stroke-linecap="round" stroke-linejoin="round"/>
<path d="M8 8.57144C7.83047 8.57144 7.66475 8.62171 7.52379 8.7159C7.38284 8.81008 7.27297 8.94395 7.2081 9.10057C7.14322 9.25719 7.12625 9.42953 7.15932 9.5958C7.1924 9.76207 7.27403 9.9148 7.3939 10.0347C7.51378 10.1545 7.66651 10.2362 7.83278 10.2693C7.99904 10.3023 8.17139 10.2854 8.32801 10.2205C8.48463 10.1556 8.6185 10.0457 8.71268 9.90479C8.80687 9.76383 8.85714 9.59811 8.85714 9.42858C8.85714 9.20126 8.76683 8.98324 8.60609 8.82249C8.44534 8.66175 8.22732 8.57144 8 8.57144Z" fill="#0D121C"/>
</svg>
