<svg width="16" height="16" viewBox="0 0 16 16" fill="none" xmlns="http://www.w3.org/2000/svg">
<path d="M9.85143 1.81715L4.11429 0.582867C4.04145 0.564253 3.96561 0.560495 3.89129 0.571818C3.81697 0.583141 3.74569 0.609313 3.68169 0.648774C3.6177 0.688235 3.56231 0.740177 3.51883 0.801502C3.47534 0.862828 3.44465 0.932283 3.42858 1.00572L1.87429 8.33144L0.720005 13.7143C0.689281 13.8582 0.716416 14.0084 0.795544 14.1324C0.874671 14.2565 0.999434 14.3444 1.14286 14.3772L2.51429 14.6743C2.58633 14.6894 2.66064 14.6901 2.73295 14.6764C2.80527 14.6627 2.87418 14.6349 2.93574 14.5946C2.9973 14.5542 3.05031 14.5021 3.09174 14.4413C3.13316 14.3805 3.16218 14.3121 3.17715 14.24L4.32 8.89144L8.25143 9.73715C8.83704 9.86308 9.44337 9.85665 10.0262 9.71832C10.609 9.58 11.1535 9.31327 11.6201 8.93762C12.0866 8.56196 12.4634 8.08686 12.7229 7.547C12.9824 7.00714 13.1181 6.41614 13.12 5.81715C13.1161 4.87681 12.7892 3.96635 12.1942 3.23819C11.5992 2.51003 10.7721 2.00836 9.85143 1.81715ZM8.29715 7.14287L4.86858 6.40001L5.49715 3.42858L8.92572 4.17144C9.31672 4.25631 9.658 4.49303 9.87447 4.82952C10.0909 5.16601 10.1649 5.57472 10.08 5.96572C9.99513 6.35673 9.75842 6.69801 9.42192 6.91448C9.08543 7.13095 8.67672 7.20488 8.28572 7.12001L8.29715 7.14287Z" stroke="#0D121C" stroke-linecap="round" stroke-linejoin="round"/>
<path d="M5.89714 15.4286L6.60571 12.1143L10.0343 12.8343C12.5943 13.3943 15.2914 10.7086 15.3257 7.93144C15.3261 7.46851 15.2489 7.00879 15.0971 6.57144" stroke="#0D121C" stroke-linecap="round" stroke-linejoin="round"/>
</svg>
