<svg width="16" height="16" viewBox="0 0 16 16" fill="none" xmlns="http://www.w3.org/2000/svg">
<path d="M5.17714 9.14286C5.54877 8.76134 5.99305 8.45811 6.48376 8.25106C6.97447 8.04402 7.50168 7.93735 8.03428 7.93735C8.56689 7.93735 9.0941 8.04402 9.58481 8.25106C10.0755 8.45811 10.5198 8.76134 10.8914 9.14286M2.69714 7.21143C3.39281 6.5117 4.21996 5.95641 5.131 5.57749C6.04204 5.19857 7.01901 5.0035 8.00571 5.0035C8.99241 5.0035 9.96938 5.19857 10.8804 5.57749C11.7915 5.95641 12.6186 6.5117 13.3143 7.21143M0.571426 5.08571C1.54678 4.10986 2.70485 3.33573 3.97947 2.80757C5.25409 2.27941 6.62028 2.00757 8 2.00757C9.37971 2.00757 10.7459 2.27941 12.0205 2.80757C13.2951 3.33573 14.4532 4.10986 15.4286 5.08571M9.49714 12.5029C9.49714 13.3297 8.82685 14 8 14C7.17315 14 6.50285 13.3297 6.50285 12.5029C6.50285 11.676 7.17315 11.0057 8 11.0057C8.82685 11.0057 9.49714 11.676 9.49714 12.5029Z" stroke="#0D121C" stroke-linecap="round" stroke-linejoin="round"/>
</svg>
