<svg width="16" height="16" viewBox="0 0 16 16" fill="none" xmlns="http://www.w3.org/2000/svg">
<path d="M3.71428 6.28573V9.7143M15.4286 6.28573C15.4286 6.13418 15.3684 5.98883 15.2612 5.88167C15.154 5.77451 15.0087 5.7143 14.8571 5.7143H13.7143V4.57145C13.7143 4.26834 13.5939 3.97765 13.3795 3.76332C13.1652 3.549 12.8745 3.42859 12.5714 3.42859H1.71428C1.41118 3.42859 1.12049 3.549 0.906161 3.76332C0.691834 3.97765 0.571426 4.26834 0.571426 4.57145V11.4286C0.571426 11.7317 0.691834 12.0224 0.906161 12.2367C1.12049 12.451 1.41118 12.5714 1.71428 12.5714H12.5714C12.8745 12.5714 13.1652 12.451 13.3795 12.2367C13.5939 12.0224 13.7143 11.7317 13.7143 11.4286V10.2857H14.8571C15.0087 10.2857 15.154 10.2255 15.2612 10.1184C15.3684 10.0112 15.4286 9.86586 15.4286 9.7143V6.28573Z" stroke="#0D121C" stroke-linecap="round" stroke-linejoin="round"/>
</svg>
