<svg width="16" height="16" viewBox="0 0 16 16" fill="none" xmlns="http://www.w3.org/2000/svg">
<path d="M4 2.28572H1.14285C0.991303 2.28572 0.845958 2.34593 0.738794 2.45309C0.63163 2.56025 0.571426 2.7056 0.571426 2.85715V12C0.571426 12.1516 0.63163 12.2969 0.738794 12.4041C0.845958 12.5112 0.991303 12.5714 1.14285 12.5714H14.8571C15.0087 12.5714 15.154 12.5112 15.2612 12.4041C15.3684 12.2969 15.4286 12.1516 15.4286 12V2.85715C15.4286 2.7056 15.3684 2.56025 15.2612 2.45309C15.154 2.34593 15.0087 2.28572 14.8571 2.28572H12M6.85714 12.5714L5.71428 15.4286M9.14285 12.5714L10.2857 15.4286M4.57143 15.4286H11.4286M8 1.71429V5.71429" stroke="#0D121C" stroke-linecap="round" stroke-linejoin="round"/>
<path d="M8 9.7143C8.31559 9.7143 8.57143 9.45846 8.57143 9.14287C8.57143 8.82728 8.31559 8.57144 8 8.57144C7.68441 8.57144 7.42857 8.82728 7.42857 9.14287C7.42857 9.45846 7.68441 9.7143 8 9.7143Z" stroke="#0D121C" stroke-linecap="round" stroke-linejoin="round"/>
</svg>
