<svg width="16" height="16" viewBox="0 0 16 16" fill="none" xmlns="http://www.w3.org/2000/svg">
<path d="M8 12C10.2091 12 12 10.2091 12 8C12 5.79086 10.2091 4 8 4C5.79086 4 4 5.79086 4 8C4 10.2091 5.79086 12 8 12Z" stroke="#0D121C" stroke-linecap="round" stroke-linejoin="round"/>
<path d="M10.2857 4.72001V1.7143C10.2857 1.41119 10.1653 1.1205 9.95097 0.906177C9.73665 0.691849 9.44596 0.571442 9.14285 0.571442H6.85714C6.55403 0.571442 6.26334 0.691849 6.04901 0.906177C5.83469 1.1205 5.71428 1.41119 5.71428 1.7143V4.72001M10.2857 11.28V14.2857C10.2857 14.5888 10.1653 14.8795 9.95097 15.0938C9.73665 15.3082 9.44596 15.4286 9.14285 15.4286H6.85714C6.55403 15.4286 6.26334 15.3082 6.04901 15.0938C5.83469 14.8795 5.71428 14.5888 5.71428 14.2857V11.28" stroke="#0D121C" stroke-linecap="round" stroke-linejoin="round"/>
</svg>
