<svg width="16" height="16" viewBox="0 0 16 16" fill="none" xmlns="http://www.w3.org/2000/svg">
<path d="M0.571426 14.2857V1.7143C0.571426 1.41119 0.691834 1.1205 0.906161 0.906177C1.12049 0.691849 1.41118 0.571442 1.71428 0.571442H14.2857C14.5888 0.571442 14.8795 0.691849 15.0938 0.906177C15.3082 1.1205 15.4286 1.41119 15.4286 1.7143V14.2857C15.4286 14.5888 15.3082 14.8795 15.0938 15.0938C14.8795 15.3082 14.5888 15.4286 14.2857 15.4286H10.8571V10.0114H11.6686C11.8535 10.0114 12.0308 9.93799 12.1615 9.80725C12.2923 9.67651 12.3657 9.49919 12.3657 9.3143V8.4343C12.3657 8.2494 12.2923 8.07208 12.1615 7.94134C12.0308 7.8106 11.8535 7.73716 11.6686 7.73716H10.9029V6.66287C10.9029 5.70287 11.3371 5.70287 11.7714 5.70287H12.3314C12.4234 5.70666 12.5151 5.6902 12.6 5.65465C12.6849 5.6191 12.761 5.56534 12.8229 5.49716C12.8893 5.43393 12.9418 5.35761 12.9773 5.27302C13.0127 5.18843 13.0301 5.09741 13.0286 5.00573V4.16001C13.0316 4.06695 13.0163 3.9742 12.9835 3.88706C12.9507 3.79992 12.901 3.72011 12.8373 3.65218C12.7736 3.58425 12.6972 3.52954 12.6123 3.49117C12.5275 3.45281 12.4359 3.43154 12.3429 3.42858H11.0286C10.6451 3.41417 10.263 3.48317 9.90881 3.63082C9.5546 3.77847 9.23665 4.00126 8.97694 4.28379C8.71723 4.56632 8.52195 4.90185 8.40458 5.26723C8.28721 5.6326 8.25055 6.01909 8.29714 6.40001V7.73716H7.56571C7.4732 7.73564 7.38132 7.75255 7.29542 7.78691C7.20951 7.82126 7.1313 7.87237 7.06535 7.93726C6.9994 8.00215 6.94703 8.07951 6.91128 8.16485C6.87553 8.25018 6.85713 8.34178 6.85714 8.4343V9.3143C6.85713 9.40682 6.87553 9.49841 6.91128 9.58375C6.94703 9.66908 6.9994 9.74645 7.06535 9.81134C7.1313 9.87622 7.20951 9.92734 7.29542 9.96169C7.38132 9.99605 7.4732 10.013 7.56571 10.0114H8.29714V15.4286H1.71428C1.41118 15.4286 1.12049 15.3082 0.906161 15.0938C0.691834 14.8795 0.571426 14.5888 0.571426 14.2857Z" stroke="#0D121C" stroke-linecap="round" stroke-linejoin="round"/>
</svg>
