<svg width="16" height="16" viewBox="0 0 16 16" fill="none" xmlns="http://www.w3.org/2000/svg">
<path d="M14.2857 1.14288H1.71428C1.0831 1.14288 0.571426 1.65456 0.571426 2.28574V6.85717C0.571426 7.48835 1.0831 8.00003 1.71428 8.00003H14.2857C14.9169 8.00003 15.4286 7.48835 15.4286 6.85717V2.28574C15.4286 1.65456 14.9169 1.14288 14.2857 1.14288Z" stroke="#0D121C" stroke-linecap="round" stroke-linejoin="round"/>
<path d="M4 5.14286C4.31559 5.14286 4.57143 4.88702 4.57143 4.57143C4.57143 4.25584 4.31559 4 4 4C3.68441 4 3.42857 4.25584 3.42857 4.57143C3.42857 4.88702 3.68441 5.14286 4 5.14286Z" stroke="#0D121C" stroke-linecap="round" stroke-linejoin="round"/>
<path d="M8.57143 4.57147H12.5714M1.71428 8.00004C1.41118 8.00004 1.12049 8.12045 0.906161 8.33478C0.691834 8.54911 0.571426 8.8398 0.571426 9.1429V13.7143C0.571426 14.0174 0.691834 14.3081 0.906161 14.5225C1.12049 14.7368 1.41118 14.8572 1.71428 14.8572H14.2857C14.5888 14.8572 14.8795 14.7368 15.0938 14.5225C15.3082 14.3081 15.4286 14.0174 15.4286 13.7143V9.1429C15.4286 8.8398 15.3082 8.54911 15.0938 8.33478C14.8795 8.12045 14.5888 8.00004 14.2857 8.00004" stroke="#0D121C" stroke-linecap="round" stroke-linejoin="round"/>
<path d="M4 12C4.31559 12 4.57143 11.7442 4.57143 11.4286C4.57143 11.113 4.31559 10.8572 4 10.8572C3.68441 10.8572 3.42857 11.113 3.42857 11.4286C3.42857 11.7442 3.68441 12 4 12Z" stroke="#0D121C" stroke-linecap="round" stroke-linejoin="round"/>
<path d="M8.57143 11.4286H12.5714" stroke="#0D121C" stroke-linecap="round" stroke-linejoin="round"/>
</svg>
