<svg width="16" height="16" viewBox="0 0 16 16" fill="none" xmlns="http://www.w3.org/2000/svg">
<path d="M9.14286 7.42859C9.14286 5.21945 7.352 3.42859 5.14286 3.42859C2.93372 3.42859 1.14286 5.21945 1.14286 7.42859V11.4286C1.14286 13.6377 2.93372 15.4286 5.14286 15.4286C7.352 15.4286 9.14286 13.6377 9.14286 11.4286V7.42859Z" stroke="#0D121C" stroke-linecap="round" stroke-linejoin="round"/>
<path d="M1.14286 8.00001H9.14286M5.14286 8.00001V3.14287C5.14286 2.46088 5.41377 1.80683 5.89601 1.3246C6.37825 0.842359 7.0323 0.571442 7.71429 0.571442C8.39627 0.571442 9.05032 0.842359 9.53256 1.3246C10.0148 1.80683 10.2857 2.46088 10.2857 3.14287V3.42858C10.2857 4.03479 10.5265 4.61617 10.9552 5.04483C11.3838 5.47348 11.9652 5.7143 12.5714 5.7143C13.1776 5.7143 13.759 5.47348 14.1877 5.04483C14.6163 4.61617 14.8571 4.03479 14.8571 3.42858V1.7143" stroke="#0D121C" stroke-linecap="round" stroke-linejoin="round"/>
</svg>
