<svg width="16" height="16" viewBox="0 0 16 16" fill="none" xmlns="http://www.w3.org/2000/svg">
<path d="M4.57144 10.7429C3.75536 11.3839 2.81869 11.8541 1.81715 12.1257C1.70683 12.1658 1.61152 12.2388 1.54417 12.3349C1.47681 12.431 1.44068 12.5455 1.44068 12.6629C1.44068 12.7802 1.47681 12.8947 1.54417 12.9908C1.61152 13.0869 1.70683 13.16 1.81715 13.2C9.72572 16.4457 14.7543 11.4286 13.9886 5.86286L15.2686 3.21143H13.7829C11.9314 0.937147 7.01715 1.05143 7.82858 5.89715C7.82858 5.89715 5.20001 6.36572 1.84001 3.06286C1.76228 2.98613 1.6642 2.93327 1.55736 2.91056C1.45053 2.88785 1.33943 2.89623 1.23721 2.93471C1.13499 2.97319 1.04594 3.04016 0.980611 3.12769C0.915279 3.21522 0.8764 3.31963 0.868578 3.42858C0.5133 4.88897 0.691097 6.42824 1.36995 7.76918C2.04881 9.11013 3.18411 10.1647 4.57144 10.7429Z" stroke="#0D121C" stroke-linecap="round" stroke-linejoin="round"/>
</svg>
