<svg width="16" height="16" viewBox="0 0 16 16" fill="none" xmlns="http://www.w3.org/2000/svg">
<path d="M3.42857 15.4286V6.28572C3.42857 5.0733 3.9102 3.91054 4.76751 3.05323C5.62482 2.19593 6.78758 1.71429 8 1.71429C9.21242 1.71429 10.3752 2.19593 11.2325 3.05323C12.0898 3.91054 12.5714 5.0733 12.5714 6.28572V15.4286M3.42857 12.5714H12.5714" stroke="#0D121C" stroke-linecap="round" stroke-linejoin="round"/>
<path d="M0.571429 11.4286V9.14287C0.571429 8.53666 0.812244 7.95528 1.2409 7.52663C1.66955 7.09797 2.25093 6.85716 2.85714 6.85716H13.1429C13.7491 6.85716 14.3304 7.09797 14.7591 7.52663C15.1878 7.95528 15.4286 8.53666 15.4286 9.14287V11.4286M12.5714 0.571442L10.6057 2.53716M3.42857 0.571442L5.39429 2.53716" stroke="#0D121C" stroke-linecap="round" stroke-linejoin="round"/>
</svg>
