<svg width="16" height="16" viewBox="0 0 16 16" fill="none" xmlns="http://www.w3.org/2000/svg">
<path d="M14.2857 3.42859H1.71428C1.0831 3.42859 0.571426 3.94026 0.571426 4.57145V14.2857C0.571426 14.9169 1.0831 15.4286 1.71428 15.4286H14.2857C14.9169 15.4286 15.4286 14.9169 15.4286 14.2857V4.57145C15.4286 3.94026 14.9169 3.42859 14.2857 3.42859Z" stroke="#0D121C" stroke-linecap="round" stroke-linejoin="round"/>
<path d="M11.4286 6.28574H4.57143C3.94025 6.28574 3.42857 6.79741 3.42857 7.42859V11.4286C3.42857 12.0598 3.94025 12.5715 4.57143 12.5715H11.4286C12.0598 12.5715 12.5714 12.0598 12.5714 11.4286V7.42859C12.5714 6.79741 12.0598 6.28574 11.4286 6.28574Z" stroke="#0D121C" stroke-linecap="round" stroke-linejoin="round"/>
<path d="M5.71428 0.571442L7.99999 3.42858L10.2857 0.571442" stroke="#0D121C" stroke-linecap="round" stroke-linejoin="round"/>
</svg>
