<svg width="16" height="16" viewBox="0 0 16 16" fill="none" xmlns="http://www.w3.org/2000/svg">
<path d="M15.4286 7.42856H0.571428M15.4286 7.42856L15.4057 13.1428C15.4057 13.446 15.2853 13.7366 15.071 13.951C14.8567 14.1653 14.566 14.2857 14.2629 14.2857H10.8343C10.6626 14.2849 10.4933 14.2455 10.339 14.1703C10.1847 14.0951 10.0493 13.9861 9.94286 13.8514L8.42286 11.9886C8.36931 11.9218 8.30147 11.868 8.22432 11.831C8.14718 11.7939 8.06271 11.7747 7.97714 11.7747C7.89158 11.7747 7.80711 11.7939 7.72996 11.831C7.65282 11.868 7.58497 11.9218 7.53143 11.9886L6.03429 13.8514C5.92785 13.9861 5.79245 14.0951 5.63812 14.1703C5.4838 14.2455 5.31452 14.2849 5.14286 14.2857H1.71429C1.41118 14.2857 1.12049 14.1653 0.906163 13.951C0.691836 13.7366 0.571428 13.446 0.571428 13.1428V7.42856M15.4286 7.42856L12.3314 2.28571C12.2303 2.11511 12.0865 1.97376 11.9141 1.87558C11.7418 1.77739 11.5469 1.72574 11.3486 1.72571H4.65143C4.45309 1.72574 4.25818 1.77739 4.08586 1.87558C3.91353 1.97376 3.76972 2.11511 3.66857 2.28571L0.571428 7.42856" stroke="#0D121C" stroke-linecap="round" stroke-linejoin="round"/>
</svg>
