<svg width="16" height="16" viewBox="0 0 16 16" fill="none" xmlns="http://www.w3.org/2000/svg">
<path d="M8 15.4286V12.5714M5.14286 4.57141V1.71427C5.14286 1.41116 5.26327 1.12047 5.47759 0.906146C5.69192 0.691819 5.98261 0.571411 6.28572 0.571411H9.71429C10.0174 0.571411 10.3081 0.691819 10.5224 0.906146C10.7367 1.12047 10.8571 1.41116 10.8571 1.71427V4.57141M7.42857 7.42855H8.57143M12 4.57141H4C3.84845 4.57141 3.7031 4.63161 3.59594 4.73878C3.48878 4.84594 3.42857 4.99129 3.42857 5.14284V8.10284C3.42984 8.40266 3.54887 8.68997 3.76 8.90284L5.14286 10.2857V11.4286C5.14286 11.7317 5.26327 12.0223 5.47759 12.2367C5.69192 12.451 5.98261 12.5714 6.28572 12.5714H9.71429C10.0174 12.5714 10.3081 12.451 10.5224 12.2367C10.7367 12.0223 10.8571 11.7317 10.8571 11.4286V10.2857L12.24 8.90284C12.4511 8.68997 12.5702 8.40266 12.5714 8.10284V5.14284C12.5714 4.99129 12.5112 4.84594 12.4041 4.73878C12.2969 4.63161 12.1516 4.57141 12 4.57141Z" stroke="#0D121C" stroke-linecap="round" stroke-linejoin="round"/>
</svg>
