<svg width="16" height="16" viewBox="0 0 16 16" fill="none" xmlns="http://www.w3.org/2000/svg">
<path d="M12 2.28571H14.8571C15.0087 2.28571 15.154 2.34591 15.2612 2.45307C15.3684 2.56024 15.4286 2.70558 15.4286 2.85713V12C15.4286 12.1515 15.3684 12.2969 15.2612 12.4041C15.154 12.5112 15.0087 12.5714 14.8571 12.5714H1.14285C0.991303 12.5714 0.845958 12.5112 0.738794 12.4041C0.63163 12.2969 0.571426 12.1515 0.571426 12V2.85713C0.571426 2.70558 0.63163 2.56024 0.738794 2.45307C0.845958 2.34591 0.991303 2.28571 1.14285 2.28571H4M6.85714 12.5714L5.71428 15.4286M9.14285 12.5714L10.2857 15.4286M4.57143 15.4286H11.4286" stroke="#0D121C" stroke-linecap="round" stroke-linejoin="round"/>
<path d="M6.28571 6.28573V5.14287C6.28571 4.68822 6.46632 4.25218 6.78781 3.93069C7.1093 3.6092 7.54534 3.42859 7.99999 3.42859C8.45465 3.42859 8.89069 3.6092 9.21218 3.93069C9.53367 4.25218 9.71428 4.68822 9.71428 5.14287V6.28573M5.71428 6.28573H10.2857V9.7143H5.71428V6.28573Z" stroke="#0D121C" stroke-linecap="round" stroke-linejoin="round"/>
</svg>
