<svg width="16" height="16" viewBox="0 0 16 16" fill="none" xmlns="http://www.w3.org/2000/svg">
<path d="M9.14285 4.57144C9.14285 3.42859 9.71428 3.42859 10.2857 3.42859H10.9714C11.0859 3.43012 11.1995 3.40871 11.3056 3.3656C11.4117 3.3225 11.5081 3.25857 11.589 3.17761C11.67 3.09665 11.7339 3.00029 11.777 2.89421C11.8201 2.78814 11.8415 2.6745 11.84 2.56001V1.48573C11.84 1.3707 11.8172 1.25681 11.7728 1.15068C11.7284 1.04455 11.6634 0.948285 11.5816 0.86748C11.4997 0.786674 11.4026 0.722936 11.2959 0.679964C11.1892 0.636993 11.075 0.615644 10.96 0.617158L9.33714 0.5943C8.8646 0.576023 8.39373 0.660499 7.95701 0.841896C7.52029 1.02329 7.12814 1.29729 6.80761 1.64498C6.48709 1.99267 6.24582 2.40577 6.10047 2.85577C5.95512 3.30577 5.90914 3.78195 5.96571 4.25144V5.90859H5.06285C4.83249 5.90859 4.61157 6.0001 4.44868 6.16298C4.28579 6.32587 4.19428 6.5468 4.19428 6.77716V7.85144C4.19428 8.0818 4.28579 8.30273 4.44868 8.46562C4.61157 8.6285 4.83249 8.72001 5.06285 8.72001H5.96571V14.8572C5.96571 15.0087 6.02591 15.1541 6.13308 15.2612C6.24024 15.3684 6.38559 15.4286 6.53714 15.4286H8.60571C8.75124 15.4198 8.88793 15.3558 8.98778 15.2496C9.08764 15.1433 9.14312 15.003 9.14285 14.8572V8.72001H10.1486C10.3789 8.72001 10.5999 8.6285 10.7627 8.46562C10.9256 8.30273 11.0171 8.0818 11.0171 7.85144V6.77716C11.0171 6.5468 10.9256 6.32587 10.7627 6.16298C10.5999 6.0001 10.3789 5.90859 10.1486 5.90859H9.14285V4.57144Z" stroke="#0D121C" stroke-linecap="round" stroke-linejoin="round"/>
</svg>
