<svg width="16" height="16" viewBox="0 0 16 16" fill="none" xmlns="http://www.w3.org/2000/svg">
<path d="M3.42857 10.8572L0.571426 8.00003L3.42857 5.14288M12.5714 10.8572L15.4286 8.00003L12.5714 5.14288" stroke="#0D121C" stroke-linecap="round" stroke-linejoin="round"/>
<path d="M10.2857 8.57145C10.6013 8.57145 10.8571 8.31561 10.8571 8.00002C10.8571 7.68443 10.6013 7.42859 10.2857 7.42859C9.97012 7.42859 9.71429 7.68443 9.71429 8.00002C9.71429 8.31561 9.97012 8.57145 10.2857 8.57145Z" stroke="#0D121C" stroke-linecap="round" stroke-linejoin="round"/>
<path d="M5.71428 8.57145C6.02987 8.57145 6.28571 8.31561 6.28571 8.00002C6.28571 7.68443 6.02987 7.42859 5.71428 7.42859C5.39869 7.42859 5.14285 7.68443 5.14285 8.00002C5.14285 8.31561 5.39869 8.57145 5.71428 8.57145Z" stroke="#0D121C" stroke-linecap="round" stroke-linejoin="round"/>
</svg>
