<svg width="16" height="16" viewBox="0 0 16 16" fill="none" xmlns="http://www.w3.org/2000/svg">
<path d="M13.1429 0.571442H2.85714C2.22596 0.571442 1.71429 1.08312 1.71429 1.7143V14.2857C1.71429 14.9169 2.22596 15.4286 2.85714 15.4286H13.1429C13.774 15.4286 14.2857 14.9169 14.2857 14.2857V1.7143C14.2857 1.08312 13.774 0.571442 13.1429 0.571442Z" stroke="#0D121C" stroke-linecap="round" stroke-linejoin="round"/>
<path d="M5.14286 12L7.14286 8.85715M4.67429 8.00001C4.41481 7.32835 4.37874 6.59093 4.57143 5.89715C4.72839 5.37849 5.00605 4.90442 5.38165 4.51382C5.75725 4.12321 6.22008 3.8272 6.73219 3.65005C7.24431 3.4729 7.79112 3.41966 8.32779 3.4947C8.86446 3.56974 9.3757 3.77091 9.81959 4.08173C10.2635 4.39255 10.6274 4.80415 10.8814 5.28279C11.1355 5.76144 11.2725 6.29348 11.2812 6.8353C11.2898 7.37712 11.17 7.91328 10.9314 8.39982C10.6928 8.88636 10.3423 9.30941 9.90857 9.6343M8.57143 12.5714H11.4286" stroke="#0D121C" stroke-linecap="round" stroke-linejoin="round"/>
</svg>
