<svg width="16" height="16" viewBox="0 0 16 16" fill="none" xmlns="http://www.w3.org/2000/svg">
<path d="M10.2857 4.00001V1.7143C10.2857 1.41119 10.1653 1.1205 9.95097 0.906177C9.73665 0.691849 9.44596 0.571442 9.14285 0.571442H6.85714C6.55403 0.571442 6.26334 0.691849 6.04901 0.906177C5.83469 1.1205 5.71428 1.41119 5.71428 1.7143V4.00001M10.2857 12V14.2857C10.2857 14.5888 10.1653 14.8795 9.95097 15.0938C9.73665 15.3082 9.44596 15.4286 9.14285 15.4286H6.85714C6.55403 15.4286 6.26334 15.3082 6.04901 15.0938C5.83469 14.8795 5.71428 14.5888 5.71428 14.2857V12" stroke="#0D121C" stroke-linecap="round" stroke-linejoin="round"/>
<path d="M10.8571 4H5.14286C4.51167 4 4 4.51167 4 5.14286V10.8571C4 11.4883 4.51167 12 5.14286 12H10.8571C11.4883 12 12 11.4883 12 10.8571V5.14286C12 4.51167 11.4883 4 10.8571 4Z" stroke="#0D121C" stroke-linecap="round" stroke-linejoin="round"/>
</svg>
