<svg width="16" height="16" viewBox="0 0 16 16" fill="none" xmlns="http://www.w3.org/2000/svg">
<path d="M15.4286 14.2857C15.4286 14.5888 15.3082 14.8795 15.0938 15.0938C14.8795 15.3082 14.5888 15.4286 14.2857 15.4286H1.71428C1.41118 15.4286 1.12049 15.3082 0.906161 15.0938C0.691834 14.8795 0.571426 14.5888 0.571426 14.2857V5.61144C0.572689 5.31162 0.691719 5.02431 0.902855 4.81144L4.81143 0.90287C5.0243 0.691734 5.31161 0.572704 5.61143 0.571442H14.2857C14.5888 0.571442 14.8795 0.691849 15.0938 0.906177C15.3082 1.1205 15.4286 1.41119 15.4286 1.7143V14.2857Z" stroke="#0D121C" stroke-linecap="round" stroke-linejoin="round"/>
<path d="M12 15.4286V10.2857C12 10.1342 11.9398 9.98883 11.8326 9.88167C11.7255 9.7745 11.5801 9.7143 11.4286 9.7143H4.57143C4.41988 9.7143 4.27453 9.7745 4.16737 9.88167C4.0602 9.98883 4 10.1342 4 10.2857V15.4286M12 0.571442V4.57144C12 4.72299 11.9398 4.86834 11.8326 4.9755C11.7255 5.08267 11.5801 5.14287 11.4286 5.14287H6.85714C6.70559 5.14287 6.56025 5.08267 6.45308 4.9755C6.34592 4.86834 6.28571 4.72299 6.28571 4.57144V0.571442" stroke="#0D121C" stroke-linecap="round" stroke-linejoin="round"/>
</svg>
