<svg width="16" height="16" viewBox="0 0 16 16" fill="none" xmlns="http://www.w3.org/2000/svg">
<path d="M14.7086 9.86284L14.6057 9.78284C14.7662 9.20192 14.8508 8.60264 14.8571 7.99998C14.8571 6.18136 14.1347 4.43722 12.8487 3.15125C11.5628 1.86529 9.81863 1.14284 8 1.14284C7.40167 1.14649 6.8063 1.22716 6.22857 1.38284L6.14857 1.27998C5.50378 0.748766 4.67571 0.492888 3.84364 0.567753C3.01157 0.642618 2.24247 1.0422 1.70286 1.67998C1.06507 2.21959 0.665491 2.98869 0.590626 3.82076C0.515761 4.65284 0.771639 5.48091 1.30286 6.1257L1.39429 6.19427C1.22925 6.78205 1.14468 7.38948 1.14286 7.99998C1.14286 9.81861 1.8653 11.5628 3.15127 12.8487C4.43723 14.1347 6.18137 14.8571 8 14.8571C8.6105 14.8553 9.21794 14.7707 9.80571 14.6057L9.87429 14.6971C10.5191 15.2283 11.3471 15.4842 12.1792 15.4094C13.0113 15.3345 13.7804 14.9349 14.32 14.2971C14.9528 13.7563 15.348 12.9886 15.4206 12.1594C15.4933 11.3302 15.2376 10.5055 14.7086 9.86284Z" stroke="#0D121C" stroke-linecap="round" stroke-linejoin="round"/>
<path d="M8.17143 4.65144C8.65143 4.65144 9.82858 4.82287 9.82858 5.49716C9.8332 5.57465 9.82229 5.65228 9.7965 5.7255C9.77071 5.79871 9.73056 5.86604 9.67839 5.92353C9.62623 5.98101 9.56311 6.0275 9.49273 6.06026C9.42236 6.09302 9.34615 6.11139 9.26858 6.1143C8.91429 6.1143 8.65143 5.86287 8.12572 5.86287C7.6 5.86287 7.44 6.05716 7.44 6.41144C7.45143 7.29144 10.2857 6.73144 10.2857 8.9143C10.2788 9.18763 10.2163 9.45667 10.1019 9.70501C9.98753 9.95335 9.82373 10.1758 9.6205 10.3587C9.41728 10.5416 9.1789 10.6811 8.91993 10.7688C8.66096 10.8565 8.38683 10.8904 8.11429 10.8686C7.46286 10.8686 6.06858 10.72 6.06858 9.92002C6.06389 9.84364 6.07491 9.76712 6.10094 9.69517C6.12698 9.62322 6.16749 9.55737 6.21996 9.50168C6.27244 9.44599 6.33577 9.40165 6.40605 9.37139C6.47633 9.34113 6.55206 9.32559 6.62858 9.32573C7.02858 9.32573 7.49715 9.65716 8.05715 9.65716C8.16258 9.67169 8.26989 9.66375 8.37203 9.63386C8.47417 9.60397 8.56883 9.5528 8.64979 9.48372C8.73075 9.41463 8.79617 9.3292 8.84176 9.23303C8.88734 9.13686 8.91206 9.03213 8.91429 8.92573C8.91429 7.93144 6.09143 8.52573 6.09143 6.57144C6.09553 6.30677 6.15335 6.04569 6.26138 5.80403C6.36942 5.56238 6.52543 5.3452 6.71993 5.16565C6.91444 4.98611 7.14339 4.84795 7.3929 4.75956C7.64241 4.67117 7.90728 4.63438 8.17143 4.65144ZM8.17143 3.50859C7.7558 3.48854 7.34041 3.55277 6.95024 3.69741C6.56008 3.84204 6.20319 4.0641 5.90106 4.35022C5.59892 4.63634 5.35778 4.98062 5.19213 5.36234C5.02648 5.74406 4.93975 6.15534 4.93715 6.57144C4.92285 6.91986 4.98502 7.26717 5.11928 7.589C5.25353 7.91082 5.45663 8.19934 5.71429 8.4343C5.46568 8.59355 5.26175 8.81354 5.12178 9.0735C4.9818 9.33345 4.91039 9.6248 4.91429 9.92002C4.91429 11.2114 6.13715 12.0114 8.10286 12.0114C8.52689 12.0362 8.95153 11.9747 9.35114 11.8308C9.75075 11.6868 10.117 11.4634 10.4279 11.1739C10.7387 10.8844 10.9876 10.5349 11.1596 10.1466C11.3316 9.75821 11.4231 9.33902 11.4286 8.9143C11.4452 8.50748 11.3684 8.10226 11.204 7.72979C11.0395 7.35731 10.7919 7.02751 10.48 6.76573C10.8019 6.42246 10.9781 5.9677 10.9714 5.49716C10.9714 4.12573 9.52 3.50859 8.17143 3.50859Z" fill="#0D121C"/>
</svg>
