<svg width="16" height="16" viewBox="0 0 16 16" fill="none" xmlns="http://www.w3.org/2000/svg">
<path d="M10.8571 7.42858C10.8571 8.18635 10.5561 8.91307 10.0203 9.44889C9.48449 9.98471 8.75776 10.2857 8 10.2857C7.24224 10.2857 6.51551 9.98471 5.9797 9.44889C5.44388 8.91307 5.14286 8.18635 5.14286 7.42858V3.42858C5.14286 2.67082 5.44388 1.9441 5.9797 1.40828C6.51551 0.872461 7.24224 0.571442 8 0.571442C8.75776 0.571442 9.48449 0.872461 10.0203 1.40828C10.5561 1.9441 10.8571 2.67082 10.8571 3.42858V7.42858Z" stroke="#0D121C" stroke-linecap="round" stroke-linejoin="round"/>
<path d="M13.7143 8C13.7158 8.67579 13.5838 9.34523 13.3259 9.96987C13.068 10.5945 12.6892 11.1621 12.2113 11.6399C11.7335 12.1178 11.1659 12.4965 10.5413 12.7544C9.91666 13.0124 9.24722 13.1444 8.57143 13.1429H7.42857C6.75278 13.1444 6.08334 13.0124 5.4587 12.7544C4.83406 12.4965 4.26652 12.1178 3.78866 11.6399C3.3108 11.1621 2.93204 10.5945 2.67412 9.96987C2.4162 9.34523 2.28421 8.67579 2.28571 8M8 13.1429V15.4286" stroke="#0D121C" stroke-linecap="round" stroke-linejoin="round"/>
</svg>
