<svg width="16" height="16" viewBox="0 0 16 16" fill="none" xmlns="http://www.w3.org/2000/svg">
<path d="M14.2857 3.42859H1.71428C1.0831 3.42859 0.571426 3.94026 0.571426 4.57145V9.14287C0.571426 9.77406 1.0831 10.2857 1.71428 10.2857H14.2857C14.9169 10.2857 15.4286 9.77406 15.4286 9.14287V4.57145C15.4286 3.94026 14.9169 3.42859 14.2857 3.42859Z" stroke="#0D121C" stroke-linecap="round" stroke-linejoin="round"/>
<path d="M3.99999 7.42856C4.31559 7.42856 4.57142 7.17273 4.57142 6.85713C4.57142 6.54154 4.31559 6.28571 3.99999 6.28571C3.6844 6.28571 3.42857 6.54154 3.42857 6.85713C3.42857 7.17273 3.6844 7.42856 3.99999 7.42856Z" stroke="#0D121C" stroke-linecap="round" stroke-linejoin="round"/>
<path d="M7.42857 6.85718H9.71429M8 10.2857V15.4286M2.28571 15.4286H13.7143" stroke="#0D121C" stroke-linecap="round" stroke-linejoin="round"/>
</svg>
