<svg width="16" height="16" viewBox="0 0 16 16" fill="none" xmlns="http://www.w3.org/2000/svg">
<path d="M9.34857 2.28573L11.0629 0.571442M11.6343 8.57144C11.6353 7.96735 11.8286 7.37927 12.1861 6.89232C12.5436 6.40537 13.0468 6.04482 13.6229 5.86287C13.3997 5.45178 13.0923 5.09239 12.7208 4.80816C12.3493 4.52394 11.922 4.32129 11.4669 4.21343C11.0117 4.10557 10.5389 4.09494 10.0794 4.18224C9.61986 4.26953 9.1839 4.45278 8.8 4.72001C8.62626 4.82032 8.42918 4.87313 8.22857 4.87313C8.02796 4.87313 7.83088 4.82032 7.65714 4.72001C7.24161 4.45645 6.77558 4.28264 6.28894 4.20973C5.8023 4.13682 5.30579 4.16641 4.83126 4.29661C4.35673 4.42681 3.91464 4.65475 3.53335 4.9658C3.15207 5.27685 2.83999 5.66415 2.61714 6.10287C1.98049 7.27536 1.76279 8.62994 2 9.94287C2.1926 11.7461 2.97147 13.4363 4.21714 14.7543C4.62778 15.1438 5.1634 15.3749 5.72854 15.4063C6.29368 15.4377 6.8516 15.2674 7.30286 14.9257C7.56253 14.7336 7.877 14.63 8.2 14.63C8.523 14.63 8.83747 14.7336 9.09714 14.9257C9.53017 15.2756 10.0732 15.4606 10.6297 15.4481C11.1862 15.4355 11.7203 15.2262 12.1371 14.8572C13.078 13.9073 13.7487 12.7238 14.08 11.4286C13.3935 11.3337 12.7656 10.9906 12.315 10.4641C11.8643 9.93765 11.6222 9.26433 11.6343 8.57144Z" stroke="#0D121C" stroke-linecap="round" stroke-linejoin="round"/>
</svg>
