<svg width="16" height="16" viewBox="0 0 16 16" fill="none" xmlns="http://www.w3.org/2000/svg">
<path d="M14.2857 0.571442H1.71428C1.0831 0.571442 0.571426 1.08312 0.571426 1.7143V14.2857C0.571426 14.9169 1.0831 15.4286 1.71428 15.4286H14.2857C14.9169 15.4286 15.4286 14.9169 15.4286 14.2857V1.7143C15.4286 1.08312 14.9169 0.571442 14.2857 0.571442Z" stroke="#0D121C" stroke-linecap="round" stroke-linejoin="round"/>
<path d="M6.28571 4H4M4 4V6.28571M4 4L8 8M9.79429 4.42286C10.3596 4.70744 10.8493 5.12209 11.2231 5.63275C11.597 6.1434 11.8444 6.73548 11.9449 7.36033C12.0454 7.98518 11.9962 8.62497 11.8014 9.22711C11.6066 9.82926 11.2716 10.3766 10.8241 10.8241C10.3766 11.2716 9.82926 11.6066 9.22711 11.8014C8.62497 11.9962 7.98518 12.0454 7.36033 11.9449C6.73548 11.8444 6.1434 11.597 5.63275 11.2231C5.12209 10.8493 4.70744 10.3596 4.42286 9.79429" stroke="#0D121C" stroke-linecap="round" stroke-linejoin="round"/>
</svg>
