<svg width="16" height="16" viewBox="0 0 16 16" fill="none" xmlns="http://www.w3.org/2000/svg">
<path d="M14.2857 6.28574H1.71429C1.0831 6.28574 0.571429 6.79741 0.571429 7.42859V14.2857C0.571429 14.9169 1.0831 15.4286 1.71429 15.4286H14.2857C14.9169 15.4286 15.4286 14.9169 15.4286 14.2857V7.42859C15.4286 6.79741 14.9169 6.28574 14.2857 6.28574Z" stroke="#0D121C" stroke-linecap="round" stroke-linejoin="round"/>
<path d="M4 12.2857H12M4 9.42858H12M4 6.28573V5.14287C4 4.53666 4.24082 3.95528 4.66947 3.52663C5.09812 3.09797 5.67951 2.85716 6.28571 2.85716H10.8571C11.4634 2.85716 12.0447 2.61634 12.4734 2.18769C12.902 1.75903 13.1429 1.17765 13.1429 0.571442" stroke="#0D121C" stroke-linecap="round" stroke-linejoin="round"/>
</svg>
