<svg width="16" height="16" viewBox="0 0 16 16" fill="none" xmlns="http://www.w3.org/2000/svg">
<path d="M13.4286 11.4286C13.8241 11.4286 14.2108 11.5459 14.5397 11.7656C14.8686 11.9854 15.125 12.2978 15.2763 12.6632C15.4277 13.0287 15.4673 13.4308 15.3901 13.8188C15.313 14.2067 15.1225 14.5631 14.8428 14.8428C14.5631 15.1225 14.2067 15.313 13.8188 15.3902C13.4308 15.4673 13.0287 15.4277 12.6632 15.2763C12.2978 15.125 11.9854 14.8686 11.7656 14.5397C11.5459 14.2108 11.4286 13.8241 11.4286 13.4286V2.57144C11.4286 2.17588 11.5459 1.7892 11.7656 1.4603C11.9854 1.1314 12.2978 0.875059 12.6632 0.723683C13.0287 0.572308 13.4308 0.532702 13.8188 0.609872C14.2067 0.687042 14.5631 0.877524 14.8428 1.15723C15.1225 1.43693 15.313 1.7933 15.3901 2.18126C15.4673 2.56922 15.4277 2.97136 15.2763 3.33681C15.125 3.70226 14.8686 4.01462 14.5397 4.23438C14.2108 4.45414 13.8241 4.57144 13.4286 4.57144H2.57143C2.17587 4.57144 1.78919 4.45414 1.46029 4.23438C1.13139 4.01462 0.875045 3.70226 0.72367 3.33681C0.572295 2.97136 0.532688 2.56922 0.609859 2.18126C0.687029 1.7933 0.877511 1.43693 1.15722 1.15723C1.43692 0.877524 1.79329 0.687042 2.18125 0.609872C2.56921 0.532702 2.97134 0.572308 3.3368 0.723683C3.70225 0.875059 4.01461 1.1314 4.23437 1.4603C4.45413 1.7892 4.57143 2.17588 4.57143 2.57144V13.4286C4.57143 13.8241 4.45413 14.2108 4.23437 14.5397C4.01461 14.8686 3.70225 15.125 3.3368 15.2763C2.97134 15.4277 2.56921 15.4673 2.18125 15.3902C1.79329 15.313 1.43692 15.1225 1.15722 14.8428C0.877511 14.5631 0.687029 14.2067 0.609859 13.8188C0.532688 13.4308 0.572295 13.0287 0.72367 12.6632C0.875045 12.2978 1.13139 11.9854 1.46029 11.7656C1.78919 11.5459 2.17587 11.4286 2.57143 11.4286H13.4286Z" stroke="#0D121C" stroke-linecap="round" stroke-linejoin="round"/>
</svg>
