<svg width="16" height="16" viewBox="0 0 16 16" fill="none" xmlns="http://www.w3.org/2000/svg">
<path d="M7.96572 15.4285C9.22809 15.4285 10.2514 14.4052 10.2514 13.1428C10.2514 11.8805 9.22809 10.8571 7.96572 10.8571C6.70336 10.8571 5.68001 11.8805 5.68001 13.1428C5.68001 14.4052 6.70336 15.4285 7.96572 15.4285Z" stroke="#0D121C" stroke-linecap="round" stroke-linejoin="round"/>
<path d="M7.96573 10.8571V0.571411M7.96573 0.571411L6.25144 2.2857M7.96573 0.571411L9.68001 2.2857M6.85716 11.1771C6.20221 10.9814 5.59745 10.6461 5.0845 10.1943C4.57154 9.74254 4.16257 9.18497 3.88573 8.55998" stroke="#0D121C" stroke-linecap="round" stroke-linejoin="round"/>
<path d="M3.68001 8.57144C4.46898 8.57144 5.10858 7.93184 5.10858 7.14287C5.10858 6.35389 4.46898 5.71429 3.68001 5.71429C2.89103 5.71429 2.25143 6.35389 2.25143 7.14287C2.25143 7.93184 2.89103 8.57144 3.68001 8.57144Z" stroke="#0D121C" stroke-linecap="round" stroke-linejoin="round"/>
<path d="M8 9.82858C8.87728 9.56343 9.68738 9.11297 10.3755 8.50766C11.0636 7.90235 11.6137 7.15631 11.9886 6.32001" stroke="#0D121C" stroke-linecap="round" stroke-linejoin="round"/>
<path d="M12.32 6.36569C13.109 6.36569 13.7486 5.72609 13.7486 4.93712C13.7486 4.14814 13.109 3.50854 12.32 3.50854C11.531 3.50854 10.8914 4.14814 10.8914 4.93712C10.8914 5.72609 11.531 6.36569 12.32 6.36569Z" stroke="#0D121C" stroke-linecap="round" stroke-linejoin="round"/>
</svg>
