<svg width="16" height="16" viewBox="0 0 16 16" fill="none" xmlns="http://www.w3.org/2000/svg">
<path d="M0.57143 15.4286L15.4286 0.571442M6.28572 9.7143C5.93021 9.44878 5.64172 9.10381 5.44328 8.70694C5.24485 8.31007 5.14197 7.8723 5.14286 7.42858V3.42858C5.14286 2.67082 5.44388 1.9441 5.9797 1.40828C6.51551 0.872461 7.24224 0.571442 8 0.571442C8.75776 0.571442 9.48449 0.872461 10.0203 1.40828C10.5561 1.9441 10.8571 2.67082 10.8571 3.42858V5.14287M10.5943 8.61716C10.3024 9.25546 9.78572 9.76398 9.14286 10.0457M4.09143 11.9086C3.5235 11.4283 3.06757 10.8295 2.75563 10.1543C2.44368 9.4791 2.2833 8.7438 2.28572 8.00001M13.7143 8.00001C13.7158 8.67581 13.5838 9.34524 13.3259 9.96988C13.068 10.5945 12.6892 11.1621 12.2113 11.6399C11.7335 12.1178 11.1659 12.4965 10.5413 12.7545C9.91666 13.0124 9.24722 13.1444 8.57143 13.1429H7.42857C7.21539 13.1543 7.00175 13.1543 6.78857 13.1429M8 13.1429V15.4286" stroke="#0D121C" stroke-linecap="round" stroke-linejoin="round"/>
</svg>
