<svg width="16" height="16" viewBox="0 0 16 16" fill="none" xmlns="http://www.w3.org/2000/svg">
<path d="M8 12.48V15.3372M5.14286 15.3372H10.8571M14.7771 12.96C10.2817 12.32 5.71829 12.32 1.22286 12.96C1.14235 12.9714 1.06033 12.9655 0.982291 12.9426C0.904251 12.9198 0.831986 12.8805 0.770324 12.8275C0.708662 12.7745 0.659023 12.709 0.624724 12.6352C0.590425 12.5615 0.572256 12.4813 0.571431 12.4V2.84572C0.570331 2.76381 0.587213 2.68266 0.620887 2.60799C0.654561 2.53332 0.704207 2.46694 0.766324 2.41354C0.828441 2.36014 0.901517 2.32102 0.980398 2.29894C1.05928 2.27685 1.14205 2.27234 1.22286 2.28572C5.71909 2.9143 10.2809 2.9143 14.7771 2.28572C14.857 2.2725 14.9388 2.27676 15.0168 2.29819C15.0949 2.31962 15.1674 2.35771 15.2293 2.40985C15.2912 2.462 15.3411 2.52694 15.3755 2.60021C15.4099 2.67349 15.428 2.75335 15.4286 2.83429V12.3886C15.4294 12.4709 15.4124 12.5523 15.3788 12.6274C15.3453 12.7026 15.2958 12.7695 15.234 12.8238C15.1721 12.878 15.0993 12.9183 15.0205 12.9418C14.9416 12.9653 14.8586 12.9715 14.7771 12.96Z" stroke="#0D121C" stroke-linecap="round" stroke-linejoin="round"/>
</svg>
