<svg width="16" height="16" viewBox="0 0 16 16" fill="none" xmlns="http://www.w3.org/2000/svg">
<path d="M12 15.4286C12.9093 15.4286 13.7814 15.0673 14.4244 14.4243C15.0673 13.7814 15.4286 12.9093 15.4286 12C15.4286 11.0907 15.0673 10.2186 14.4244 9.57562C13.7814 8.93263 12.9093 8.57141 12 8.57141H4C3.09069 8.57141 2.21862 8.93263 1.57564 9.57562C0.932654 10.2186 0.57143 11.0907 0.57143 12C0.57143 12.9093 0.932654 13.7814 1.57564 14.4243C2.21862 15.0673 3.09069 15.4286 4 15.4286H12Z" stroke="#0D121C" stroke-linecap="round" stroke-linejoin="round"/>
<path d="M0.662857 11.1886L2.48 2.39999C2.58686 1.87593 2.87411 1.40594 3.29175 1.07183C3.7094 0.737711 4.23098 0.560635 4.76571 0.571418H11.28C11.8147 0.560635 12.3363 0.737711 12.754 1.07183C13.1716 1.40594 13.4589 1.87593 13.5657 2.39999L15.3829 11.1886M4 12H7.42857" stroke="#0D121C" stroke-linecap="round" stroke-linejoin="round"/>
<path d="M12 12.5714C12.3156 12.5714 12.5714 12.3156 12.5714 12C12.5714 11.6844 12.3156 11.4286 12 11.4286C11.6844 11.4286 11.4286 11.6844 11.4286 12C11.4286 12.3156 11.6844 12.5714 12 12.5714Z" stroke="#0D121C" stroke-linecap="round" stroke-linejoin="round"/>
</svg>
