<svg width="16" height="16" viewBox="0 0 16 16" fill="none" xmlns="http://www.w3.org/2000/svg">
<path d="M8 14.3086C11.7871 14.3086 14.8571 11.2385 14.8571 7.45144C14.8571 3.66435 11.7871 0.594299 8 0.594299C4.21291 0.594299 1.14286 3.66435 1.14286 7.45144C1.14286 11.2385 4.21291 14.3086 8 14.3086Z" stroke="#0D121C" stroke-linecap="round" stroke-linejoin="round"/>
<path d="M11.5086 13.3486C12.5865 13.829 13.552 14.5298 14.3429 15.4057M1.65714 15.4057C2.44802 14.5298 3.41348 13.829 4.49143 13.3486" stroke="#0D121C" stroke-linecap="round" stroke-linejoin="round"/>
<path d="M8.00001 10.88C9.89355 10.88 11.4286 9.34498 11.4286 7.45143C11.4286 5.55788 9.89355 4.02286 8.00001 4.02286C6.10646 4.02286 4.57143 5.55788 4.57143 7.45143C4.57143 9.34498 6.10646 10.88 8.00001 10.88Z" stroke="#0D121C" stroke-linecap="round" stroke-linejoin="round"/>
<path d="M8 8.02286C8.31559 8.02286 8.57143 7.76702 8.57143 7.45143C8.57143 7.13584 8.31559 6.88 8 6.88C7.68441 6.88 7.42857 7.13584 7.42857 7.45143C7.42857 7.76702 7.68441 8.02286 8 8.02286Z" stroke="#0D121C" stroke-linecap="round" stroke-linejoin="round"/>
</svg>
