<svg width="16" height="16" viewBox="0 0 16 16" fill="none" xmlns="http://www.w3.org/2000/svg">
<path d="M8 6.65142H15.4286V1.50856C15.4294 1.42777 15.4127 1.34777 15.3797 1.27403C15.3467 1.20029 15.2982 1.13457 15.2374 1.08137C15.1766 1.02817 15.105 0.988753 15.0275 0.965829C14.95 0.942904 14.8685 0.937013 14.7886 0.948558L8 1.75999V6.65142ZM5.71428 6.65142V1.95427L1.07428 2.5257C0.934906 2.54254 0.806607 2.61011 0.713861 2.7155C0.621114 2.82089 0.570412 2.95674 0.571426 3.09713V6.65142H5.71428ZM5.71428 8.93713H0.571426V12.3657C0.57196 12.5021 0.620281 12.6339 0.707982 12.7383C0.795683 12.8427 0.917213 12.9131 1.05143 12.9371L5.71428 13.7143V8.93713ZM8 8.93713V13.9657L14.7657 15.0514C14.8471 15.0646 14.9303 15.06 15.0098 15.038C15.0892 15.016 15.163 14.9771 15.2259 14.9239C15.2889 14.8707 15.3396 14.8045 15.3746 14.7298C15.4096 14.6552 15.428 14.5738 15.4286 14.4914V8.93713H8Z" stroke="#0D121C" stroke-linecap="round" stroke-linejoin="round"/>
</svg>
