<svg width="16" height="16" viewBox="0 0 16 16" fill="none" xmlns="http://www.w3.org/2000/svg">
<path d="M15.4286 2.85716V1.7143C15.4286 1.41119 15.3082 1.1205 15.0938 0.906177C14.8795 0.691849 14.5888 0.571442 14.2857 0.571442H1.71428C1.41118 0.571442 1.12049 0.691849 0.906161 0.906177C0.691834 1.1205 0.571426 1.41119 0.571426 1.7143V2.85716M0.571426 13.1429V14.2857C0.571426 14.5888 0.691834 14.8795 0.906161 15.0938C1.12049 15.3082 1.41118 15.4286 1.71428 15.4286H14.2857C14.5888 15.4286 14.8795 15.3082 15.0938 15.0938C15.3082 14.8795 15.4286 14.5888 15.4286 14.2857V13.4286M12 5.7143H15.4286M13.7143 5.7143V10.2857M7.42857 5.7143V10.2857H9.71428M4 10.2857V7.42858C4 6.97393 3.81939 6.53789 3.49789 6.2164C3.1764 5.89491 2.74037 5.7143 2.28571 5.7143C1.83106 5.7143 1.39502 5.89491 1.07353 6.2164C0.752038 6.53789 0.571426 6.97393 0.571426 7.42858V10.2857M0.571426 8.57144H4" stroke="#0D121C" stroke-linecap="round" stroke-linejoin="round"/>
</svg>
