<svg width="16" height="16" viewBox="0 0 16 16" fill="none" xmlns="http://www.w3.org/2000/svg">
<path d="M8 5.14287C11.4743 5.14287 14.2857 7.42858 14.2857 10.8572V15.4286H1.71429V10.8572C1.71429 7.42858 4.52572 5.14287 8 5.14287ZM8 5.14287V0.571442M1.71429 12H14.2857M5.71429 12V15.4286M10.2857 12V15.4286" stroke="#0D121C" stroke-linecap="round" stroke-linejoin="round"/>
<path d="M5.71429 9.7143C6.02988 9.7143 6.28572 9.45846 6.28572 9.14287C6.28572 8.82728 6.02988 8.57144 5.71429 8.57144C5.3987 8.57144 5.14286 8.82728 5.14286 9.14287C5.14286 9.45846 5.3987 9.7143 5.71429 9.7143Z" stroke="#0D121C" stroke-linecap="round" stroke-linejoin="round"/>
<path d="M10.2857 9.7143C10.6013 9.7143 10.8571 9.45846 10.8571 9.14287C10.8571 8.82728 10.6013 8.57144 10.2857 8.57144C9.97012 8.57144 9.71429 8.82728 9.71429 9.14287C9.71429 9.45846 9.97012 9.7143 10.2857 9.7143Z" stroke="#0D121C" stroke-linecap="round" stroke-linejoin="round"/>
</svg>
