<svg width="16" height="16" viewBox="0 0 16 16" fill="none" xmlns="http://www.w3.org/2000/svg">
<path d="M6.85714 12.5714L5.71429 15.4286M9.14286 12.5714L10.2857 15.4286M4.57143 15.4286H11.4286M14.8571 2.28571C15.0087 2.28571 15.154 2.34591 15.2612 2.45307C15.3684 2.56024 15.4286 2.70558 15.4286 2.85713V12C15.4286 12.1515 15.3684 12.2969 15.2612 12.4041C15.154 12.5112 15.0087 12.5714 14.8571 12.5714H1.14286C0.991306 12.5714 0.845961 12.5112 0.738798 12.4041C0.631634 12.2969 0.57143 12.1515 0.57143 12V2.85713C0.57143 2.70558 0.631634 2.56024 0.738798 2.45307C0.845961 2.34591 0.991306 2.28571 1.14286 2.28571" stroke="#0D121C" stroke-linecap="round" stroke-linejoin="round"/>
<path d="M8 4.57144C9.33714 1.61144 12 3.09716 12 5.3143C12 8.22859 8 9.7143 8 9.7143C8 9.7143 4 8.22859 4 5.25716C4 3.04002 6.66286 1.5543 8 4.57144Z" stroke="#0D121C" stroke-linecap="round" stroke-linejoin="round"/>
</svg>
