<svg width="16" height="16" viewBox="0 0 16 16" fill="none" xmlns="http://www.w3.org/2000/svg">
<path d="M14.2857 0.571411H1.71428C1.0831 0.571411 0.571426 1.08309 0.571426 1.71427V5.14284C0.571426 5.77402 1.0831 6.2857 1.71428 6.2857H14.2857C14.9169 6.2857 15.4286 5.77402 15.4286 5.14284V1.71427C15.4286 1.08309 14.9169 0.571411 14.2857 0.571411Z" stroke="#0D121C" stroke-linecap="round" stroke-linejoin="round"/>
<path d="M3.71429 2.57141C3.54476 2.57141 3.37904 2.62168 3.23809 2.71587C3.09713 2.81005 2.98727 2.94392 2.92239 3.10054C2.85752 3.25716 2.84054 3.4295 2.87362 3.59577C2.90669 3.76204 2.98833 3.91477 3.1082 4.03465C3.22807 4.15452 3.3808 4.23615 3.54707 4.26923C3.71334 4.3023 3.88568 4.28533 4.0423 4.22045C4.19893 4.15558 4.33279 4.04571 4.42698 3.90476C4.52116 3.7638 4.57143 3.59808 4.57143 3.42855C4.56847 3.20215 4.47722 2.98584 4.31711 2.82574C4.157 2.66563 3.9407 2.57437 3.71429 2.57141Z" fill="#0D121C"/>
<path d="M6.85714 3.42859H9.14285M1.71428 6.28573C1.41118 6.28573 1.12049 6.40614 0.906161 6.62047C0.691834 6.83479 0.571426 7.12548 0.571426 7.42859V10.8572C0.571426 11.1603 0.691834 11.451 0.906161 11.6653C1.12049 11.8796 1.41118 12 1.71428 12H14.2857C14.5888 12 14.8795 11.8796 15.0938 11.6653C15.3082 11.451 15.4286 11.1603 15.4286 10.8572V7.42859C15.4286 7.12548 15.3082 6.83479 15.0938 6.62047C14.8795 6.40614 14.5888 6.28573 14.2857 6.28573" stroke="#0D121C" stroke-linecap="round" stroke-linejoin="round"/>
<path d="M3.71429 8.28571C3.54476 8.28571 3.37904 8.33598 3.23809 8.43016C3.09713 8.52434 2.98727 8.65821 2.92239 8.81483C2.85752 8.97146 2.84054 9.1438 2.87362 9.31007C2.90669 9.47634 2.98833 9.62907 3.1082 9.74894C3.22807 9.86881 3.3808 9.95045 3.54707 9.98352C3.71334 10.0166 3.88568 9.99962 4.0423 9.93474C4.19893 9.86987 4.33279 9.76001 4.42698 9.61905C4.52116 9.47809 4.57143 9.31238 4.57143 9.14285C4.56847 8.91644 4.47722 8.70014 4.31711 8.54003C4.157 8.37992 3.9407 8.28867 3.71429 8.28571Z" fill="#0D121C"/>
<path d="M6.85715 9.14285H9.14286M8.00001 12V15.4286M2.28572 15.4286H13.7143" stroke="#0D121C" stroke-linecap="round" stroke-linejoin="round"/>
</svg>
