<svg width="16" height="16" viewBox="0 0 16 16" fill="none" xmlns="http://www.w3.org/2000/svg">
<path d="M12 12.5715H14.2857C14.5888 12.5715 14.8795 12.451 15.0938 12.2367C15.3082 12.0224 15.4286 11.7317 15.4286 11.4286V6.28574C15.4286 5.98264 15.3082 5.69195 15.0938 5.47762C14.8795 5.26329 14.5888 5.14288 14.2857 5.14288H1.71429C1.41118 5.14288 1.12049 5.26329 0.906165 5.47762C0.691838 5.69195 0.57143 5.98264 0.57143 6.28574V11.4286C0.57143 11.7317 0.691838 12.0224 0.906165 12.2367C1.12049 12.451 1.41118 12.5715 1.71429 12.5715H4" stroke="#0D121C" stroke-linecap="round" stroke-linejoin="round"/>
<path d="M12 5.14287V1.14287C12 0.991318 11.9398 0.845973 11.8326 0.738809C11.7255 0.631646 11.5801 0.571442 11.4286 0.571442H4.57143C4.41988 0.571442 4.27453 0.631646 4.16737 0.738809C4.0602 0.845973 4 0.991318 4 1.14287V5.14287M12.5714 8.00001H11.4286M4 10.8572V14.8572C4 15.0087 4.0602 15.1541 4.16737 15.2612C4.27453 15.3684 4.41988 15.4286 4.57143 15.4286H11.4286C11.5801 15.4286 11.7255 15.3684 11.8326 15.2612C11.9398 15.1541 12 15.0087 12 14.8572V10.8572H4Z" stroke="#0D121C" stroke-linecap="round" stroke-linejoin="round"/>
</svg>
