<svg width="16" height="16" viewBox="0 0 16 16" fill="none" xmlns="http://www.w3.org/2000/svg">
<path d="M6.85714 1.57714V14.1257M15.4286 7.72571H0.571426M1.07428 2.28571L14.7886 0.708568C14.8685 0.697022 14.95 0.702914 15.0275 0.725839C15.105 0.748763 15.1766 0.788178 15.2374 0.841377C15.2982 0.894576 15.3467 0.9603 15.3797 1.03404C15.4127 1.10778 15.4294 1.18778 15.4286 1.26857V14.7771C15.428 14.8596 15.4096 14.9409 15.3746 15.0155C15.3396 15.0902 15.2889 15.1564 15.2259 15.2096C15.163 15.2628 15.0892 15.3017 15.0098 15.3237C14.9303 15.3458 14.8471 15.3503 14.7657 15.3371L1.05143 13.2343C0.917213 13.2102 0.795684 13.1399 0.707983 13.0355C0.620281 12.9311 0.57196 12.7992 0.571426 12.6629V2.81142C0.58113 2.67903 0.636627 2.55414 0.728388 2.45821C0.820149 2.36228 0.942448 2.30129 1.07428 2.28571Z" stroke="#0D121C" stroke-linecap="round" stroke-linejoin="round"/>
</svg>
