<svg width="16" height="16" viewBox="0 0 16 16" fill="none" xmlns="http://www.w3.org/2000/svg">
<path d="M14.2857 8.57141H1.71428C1.0831 8.57141 0.571426 9.08309 0.571426 9.71427V14.2857C0.571426 14.9169 1.0831 15.4286 1.71428 15.4286H14.2857C14.9169 15.4286 15.4286 14.9169 15.4286 14.2857V9.71427C15.4286 9.08309 14.9169 8.57141 14.2857 8.57141Z" stroke="#0D121C" stroke-linecap="round" stroke-linejoin="round"/>
<path d="M0.674286 9.23427L2.66286 1.46285C2.71969 1.21084 2.86022 0.985517 3.06154 0.82363C3.26287 0.661742 3.5131 0.572839 3.77143 0.571417H12.2286C12.4928 0.56496 12.751 0.650257 12.9594 0.812787C13.1678 0.975318 13.3134 1.20504 13.3714 1.46285L15.36 9.23427M4 12H7.42857" stroke="#0D121C" stroke-linecap="round" stroke-linejoin="round"/>
<path d="M12 12.5714C12.3156 12.5714 12.5714 12.3156 12.5714 12C12.5714 11.6844 12.3156 11.4286 12 11.4286C11.6844 11.4286 11.4286 11.6844 11.4286 12C11.4286 12.3156 11.6844 12.5714 12 12.5714Z" stroke="#0D121C" stroke-linecap="round" stroke-linejoin="round"/>
</svg>
