<svg width="16" height="16" viewBox="0 0 16 16" fill="none" xmlns="http://www.w3.org/2000/svg">
<path d="M14.2857 6.28571H1.71428C1.0831 6.28571 0.571426 6.79738 0.571426 7.42856V14.2857C0.571426 14.9169 1.0831 15.4286 1.71428 15.4286H14.2857C14.9169 15.4286 15.4286 14.9169 15.4286 14.2857V7.42856C15.4286 6.79738 14.9169 6.28571 14.2857 6.28571Z" stroke="#0D121C" stroke-linecap="round" stroke-linejoin="round"/>
<path d="M8 6.2857V0.571411" stroke="#0D121C" stroke-linecap="round" stroke-linejoin="round"/>
<path d="M11.4286 12.5714C12.3753 12.5714 13.1429 11.8039 13.1429 10.8571C13.1429 9.91033 12.3753 9.14282 11.4286 9.14282C10.4818 9.14282 9.71428 9.91033 9.71428 10.8571C9.71428 11.8039 10.4818 12.5714 11.4286 12.5714Z" stroke="#0D121C" stroke-linecap="round" stroke-linejoin="round"/>
<path d="M4.57143 12.5714C5.51821 12.5714 6.28572 11.8039 6.28572 10.8571C6.28572 9.91033 5.51821 9.14282 4.57143 9.14282C3.62466 9.14282 2.85715 9.91033 2.85715 10.8571C2.85715 11.8039 3.62466 12.5714 4.57143 12.5714Z" stroke="#0D121C" stroke-linecap="round" stroke-linejoin="round"/>
</svg>
