<svg width="16" height="16" viewBox="0 0 16 16" fill="none" xmlns="http://www.w3.org/2000/svg">
<path d="M4.04571 1.95428C4.04881 2.35351 3.89472 2.73794 3.61672 3.02449C3.33872 3.31104 2.95914 3.47672 2.55999 3.48571C2.16168 3.4711 1.7842 3.30402 1.50557 3.019C1.22693 2.73399 1.06844 2.35283 1.06285 1.95428C1.08017 1.56598 1.24448 1.19879 1.52249 0.927149C1.8005 0.655508 2.1714 0.499741 2.55999 0.491425C2.94746 0.499896 3.31705 0.65605 3.59321 0.92796C3.86937 1.19987 4.03123 1.567 4.04571 1.95428ZM1.22285 6.20571C1.22285 5.32571 1.78285 5.46285 2.55999 5.46285C3.33714 5.46285 3.88571 5.32571 3.88571 6.20571V14.7771C3.88571 15.6686 3.32571 15.4857 2.55999 15.4857C1.79428 15.4857 1.22285 15.6686 1.22285 14.7771V6.20571ZM6.19428 6.20571C6.19428 5.71428 6.37714 5.53142 6.66285 5.47428C6.94857 5.41714 7.93142 5.47428 8.27428 5.47428C8.61714 5.47428 8.75428 6.03428 8.74285 6.45714C9.03613 6.06353 9.42551 5.75176 9.87373 5.55167C10.3219 5.35157 10.814 5.26983 11.3029 5.31428C11.7829 5.28493 12.2637 5.3569 12.7141 5.52551C13.1645 5.69412 13.5744 5.9556 13.9171 6.29296C14.2599 6.63032 14.5278 7.03602 14.7036 7.48369C14.8793 7.93136 14.9589 8.41099 14.9371 8.89142V14.7429C14.9371 15.6343 14.3886 15.4514 13.6114 15.4514C12.8343 15.4514 12.2857 15.6343 12.2857 14.7429V10.1714C12.3058 9.93615 12.275 9.6993 12.1955 9.47697C12.1159 9.25464 11.9895 9.05204 11.8247 8.88291C11.6599 8.71379 11.4606 8.5821 11.2404 8.4968C11.0203 8.41151 10.7843 8.37459 10.5486 8.38857C10.3139 8.38261 10.0807 8.42655 9.86436 8.5175C9.64799 8.60844 9.45341 8.74431 9.2935 8.91611C9.13359 9.0879 9.012 9.29171 8.93677 9.51403C8.86154 9.73635 8.8344 9.97211 8.85714 10.2057V14.7771C8.85714 15.6686 8.29714 15.4857 7.51999 15.4857C6.74285 15.4857 6.19428 15.6686 6.19428 14.7771V6.20571Z" stroke="#0D121C" stroke-linecap="round" stroke-linejoin="round"/>
</svg>
