<svg width="16" height="16" viewBox="0 0 16 16" fill="none" xmlns="http://www.w3.org/2000/svg">
<path d="M13.1429 2.28571H14.8571C15.0087 2.28571 15.154 2.34591 15.2612 2.45307C15.3684 2.56024 15.4286 2.70558 15.4286 2.85713V12C15.4286 12.1515 15.3684 12.2969 15.2612 12.4041C15.154 12.5112 15.0087 12.5714 14.8571 12.5714H1.14285C0.991303 12.5714 0.845958 12.5112 0.738794 12.4041C0.63163 12.2969 0.571426 12.1515 0.571426 12V2.85713C0.571426 2.70558 0.63163 2.56024 0.738794 2.45307C0.845958 2.34591 0.991303 2.28571 1.14285 2.28571H2.85714M6.85714 12.5714L5.71428 15.4286M9.14285 12.5714L10.2857 15.4286M4.57143 15.4286H11.4286" stroke="#0D121C" stroke-linecap="round" stroke-linejoin="round"/>
<path d="M7.37142 2.69714C7.42062 2.57043 7.50697 2.46154 7.61914 2.38477C7.73131 2.30799 7.86407 2.26691 8 2.26691C8.13593 2.26691 8.26868 2.30799 8.38085 2.38477C8.49302 2.46154 8.57937 2.57043 8.62857 2.69714L9.36 4.57143H11.3143C11.4532 4.57347 11.5884 4.617 11.7024 4.69642C11.8165 4.77584 11.9042 4.88752 11.9543 5.01715C11.9929 5.13874 11.9962 5.2688 11.9638 5.3922C11.9314 5.5156 11.8647 5.62729 11.7714 5.71429L10.0457 7.24572L10.7771 8.70857C10.8434 8.837 10.8658 8.98354 10.841 9.1259C10.8163 9.26825 10.7457 9.39861 10.64 9.49715C10.5369 9.60006 10.4032 9.66681 10.259 9.68741C10.1148 9.70801 9.96779 9.68136 9.84 9.61143L8 8.60572L6.16 9.61143C6.0322 9.68136 5.88519 9.70801 5.74098 9.68741C5.59677 9.66681 5.4631 9.60006 5.36 9.49715C5.25431 9.39861 5.18372 9.26825 5.15897 9.1259C5.13421 8.98354 5.15664 8.837 5.22285 8.70857L5.95428 7.24572L4.22857 5.71429C4.12642 5.62357 4.05424 5.50396 4.02159 5.3713C3.98894 5.23865 3.99735 5.0992 4.04571 4.97143C4.10274 4.85036 4.19341 4.74827 4.3069 4.67734C4.42039 4.60641 4.55189 4.56964 4.68571 4.57143H6.64L7.37142 2.69714Z" stroke="#0D121C" stroke-linecap="round" stroke-linejoin="round"/>
</svg>
