<svg width="16" height="16" viewBox="0 0 16 16" fill="none" xmlns="http://www.w3.org/2000/svg">
<path d="M12.5714 6.28571H14.2857C14.5888 6.28571 14.8795 6.40611 15.0938 6.62044C15.3082 6.83477 15.4286 7.12546 15.4286 7.42856V14.2857C15.4286 14.5888 15.3082 14.8795 15.0938 15.0938C14.8795 15.3082 14.5888 15.4286 14.2857 15.4286H10.2857" stroke="#0D121C" stroke-linecap="round" stroke-linejoin="round"/>
<path d="M8.57143 6.28571H1.71429C1.0831 6.28571 0.57143 6.79738 0.57143 7.42856V12C0.57143 12.6312 1.0831 13.1428 1.71429 13.1428H8.57143C9.20261 13.1428 9.71429 12.6312 9.71429 12V7.42856C9.71429 6.79738 9.20261 6.28571 8.57143 6.28571Z" stroke="#0D121C" stroke-linecap="round" stroke-linejoin="round"/>
<path d="M5.14286 13.1429V15.4286M2.85714 15.4286H7.42857" stroke="#0D121C" stroke-linecap="round" stroke-linejoin="round"/>
</svg>
