<svg width="16" height="16" viewBox="0 0 16 16" fill="none" xmlns="http://www.w3.org/2000/svg">
<path d="M13.1428 0.571411H2.85714C2.22595 0.571411 1.71428 1.08309 1.71428 1.71427V8.57141C1.71428 9.20259 2.22595 9.71427 2.85714 9.71427H13.1428C13.774 9.71427 14.2857 9.20259 14.2857 8.57141V1.71427C14.2857 1.08309 13.774 0.571411 13.1428 0.571411Z" stroke="#0D121C" stroke-linecap="round" stroke-linejoin="round"/>
<path d="M1.71429 6.85712H14.2857M14.0343 12.6285C13.9384 12.4383 13.7914 12.2787 13.6096 12.1676C13.4279 12.0566 13.2187 11.9985 13.0057 12H2.99429C2.7813 11.9985 2.57213 12.0566 2.39039 12.1676C2.20865 12.2787 2.06156 12.4383 1.96571 12.6285L1.39429 13.7714C1.30252 13.9501 1.25949 14.1499 1.26952 14.3505C1.27956 14.5511 1.3423 14.7456 1.45143 14.9143C1.55437 15.079 1.69758 15.2147 1.86755 15.3087C2.03752 15.4027 2.22864 15.4518 2.42286 15.4514H13.5771C13.7714 15.4518 13.9625 15.4027 14.1325 15.3087C14.3024 15.2147 14.4456 15.079 14.5486 14.9143C14.6489 14.7405 14.7017 14.5434 14.7017 14.3428C14.7017 14.1422 14.6489 13.9451 14.5486 13.7714L14.0343 12.6285Z" stroke="#0D121C" stroke-linecap="round" stroke-linejoin="round"/>
</svg>
