<svg width="16" height="16" viewBox="0 0 16 16" fill="none" xmlns="http://www.w3.org/2000/svg">
<path d="M13.1429 2.28571H2.85714C1.59478 2.28571 0.571426 3.30905 0.571426 4.57142V11.4286C0.571426 12.6909 1.59478 13.7143 2.85714 13.7143H13.1429C14.4052 13.7143 15.4286 12.6909 15.4286 11.4286V4.57142C15.4286 3.30905 14.4052 2.28571 13.1429 2.28571Z" stroke="#0D121C" stroke-linecap="round" stroke-linejoin="round"/>
<path d="M6.06857 10.6514V5.85141C6.06618 5.77037 6.08595 5.69021 6.12573 5.61957C6.16551 5.54893 6.22381 5.49048 6.29435 5.45051C6.36488 5.41054 6.44498 5.39057 6.52603 5.39274C6.60707 5.39491 6.68599 5.41914 6.75428 5.46283L10.8686 7.86283C10.9373 7.90317 10.9943 7.96077 11.0339 8.02994C11.0735 8.0991 11.0944 8.17742 11.0944 8.25712C11.0944 8.33682 11.0735 8.41514 11.0339 8.4843C10.9943 8.55347 10.9373 8.61107 10.8686 8.65141L6.75428 11.0514C6.68449 11.0917 6.60528 11.1128 6.52468 11.1127C6.44408 11.1125 6.36497 11.091 6.29535 11.0504C6.22573 11.0098 6.16809 10.9515 6.12826 10.8814C6.08844 10.8114 6.06784 10.732 6.06857 10.6514Z" stroke="#0D121C" stroke-linecap="round" stroke-linejoin="round"/>
</svg>
