<svg width="16" height="16" viewBox="0 0 16 16" fill="none" xmlns="http://www.w3.org/2000/svg">
<path d="M1.5 1.5H14.5C14.5 1.5 15.5 1.5 15.5 2.5V13.5C15.5 13.5 15.5 14.5 14.5 14.5H1.5C1.5 14.5 0.5 14.5 0.5 13.5V2.5C0.5 2.5 0.5 1.5 1.5 1.5Z" stroke="#0D121C" stroke-linecap="round" stroke-linejoin="round"/>
<path d="M0.5 4.5H15.5" stroke="#0D121C" stroke-linecap="round" stroke-linejoin="round"/>
<path d="M9.06066 12.0607C8.77935 12.342 8.39782 12.5 7.99999 12.5C7.60217 12.5 7.22063 12.342 6.93933 12.0607C6.65802 11.7794 6.49998 11.3978 6.49998 11C6.49998 10.6022 6.65802 10.2206 6.93933 9.93933C7.52533 9.35333 11.182 7.81799 11.182 7.81799C11.182 7.81799 9.64599 11.4747 9.06066 12.0607Z" stroke="#0D121C" stroke-linecap="round" stroke-linejoin="round"/>
<path d="M3 11.5H4" stroke="#0D121C" stroke-linecap="round" stroke-linejoin="round"/>
<path d="M4.464 7.964L5.28134 8.78134" stroke="#0D121C" stroke-linecap="round" stroke-linejoin="round"/>
<path d="M8 6.5V7" stroke="#0D121C" stroke-linecap="round" stroke-linejoin="round"/>
<path d="M13 11.5H12" stroke="#0D121C" stroke-linecap="round" stroke-linejoin="round"/>
</svg>
