<svg width="16" height="16" viewBox="0 0 16 16" fill="none" xmlns="http://www.w3.org/2000/svg">
<g clip-path="url(#clip0_1_3158)">
<path d="M0.666672 3.33331H15.3333" stroke="#0D121C" stroke-linecap="round" stroke-linejoin="round"/>
<path d="M9.5 0.666656H6.5C6.23478 0.666656 5.98043 0.772013 5.79289 0.95955C5.60536 1.14709 5.5 1.40144 5.5 1.66666V3.33332H10.5V1.66666C10.5 1.40144 10.3946 1.14709 10.2071 0.95955C10.0196 0.772013 9.76522 0.666656 9.5 0.666656Z" stroke="#0D121C" stroke-linecap="round" stroke-linejoin="round"/>
<path d="M6.5 11.8333V6.83331" stroke="#0D121C" stroke-linecap="round" stroke-linejoin="round"/>
<path d="M9.5 11.8333V6.83331" stroke="#0D121C" stroke-linecap="round" stroke-linejoin="round"/>
<path d="M12.5733 14.4133C12.5548 14.6639 12.442 14.8981 12.2577 15.0688C12.0734 15.2395 11.8312 15.334 11.58 15.3333H4.42C4.16878 15.334 3.92663 15.2395 3.74231 15.0688C3.558 14.8981 3.44521 14.6639 3.42667 14.4133L2.5 3.33331H13.5L12.5733 14.4133Z" stroke="#0D121C" stroke-linecap="round" stroke-linejoin="round"/>
</g>
<defs>
<clipPath id="clip0_1_3158">
<rect width="16" height="16" fill="white"/>
</clipPath>
</defs>
</svg>
