<svg width="16" height="16" viewBox="0 0 16 16" fill="none" xmlns="http://www.w3.org/2000/svg">
<g clip-path="url(#clip0_1_3137)">
<path d="M11.1667 3V1.16667C11.1667 0.989856 11.0964 0.820286 10.9714 0.695262C10.8464 0.570238 10.6768 0.5 10.5 0.5H1.16667C0.989855 0.5 0.820286 0.570238 0.695262 0.695262C0.570238 0.820286 0.5 0.989856 0.5 1.16667V10.5C0.5 10.6768 0.570238 10.8464 0.695262 10.9714C0.820286 11.0964 0.989855 11.1667 1.16667 11.1667H3" stroke="#0D121C" stroke-linecap="round" stroke-linejoin="round"/>
<path d="M4.83333 5.50001C4.83333 5.3232 4.90357 5.15363 5.0286 5.02861C5.15362 4.90358 5.32319 4.83334 5.5 4.83334H14.8333C15.0101 4.83334 15.1797 4.90358 15.3047 5.02861C15.4298 5.15363 15.5 5.3232 15.5 5.50001V14.8333C15.5 15.0102 15.4298 15.1797 15.3047 15.3047C15.1797 15.4298 15.0101 15.5 14.8333 15.5H5.5C5.32319 15.5 5.15362 15.4298 5.0286 15.3047C4.90357 15.1797 4.83333 15.0102 4.83333 14.8333V5.50001Z" stroke="#0D121C" stroke-linejoin="round"/>
</g>
<defs>
<clipPath id="clip0_1_3137">
<rect width="16" height="16" fill="white"/>
</clipPath>
</defs>
</svg>
