<svg width="16" height="16" viewBox="0 0 16 16" fill="none" xmlns="http://www.w3.org/2000/svg">
<path d="M11.5429 4.45716C12.7772 4.98462 14.1654 5.02545 15.4286 4.57145M4.57143 15.4286C5.02502 14.1614 4.98421 12.7698 4.45714 11.5314C4.04459 10.5454 3.93297 9.45932 4.13634 8.40996C4.3397 7.3606 4.84896 6.39486 5.6 5.6343C6.36991 4.87236 7.34816 4.3554 8.41143 4.14859" stroke="#0D121C" stroke-linecap="round" stroke-linejoin="round"/>
<path d="M7.54286 11.8514C8.61129 11.6429 9.59376 11.1218 10.3657 10.3543M10.3657 10.3543C11.1181 9.59456 11.6282 8.62877 11.8316 7.57908C12.0351 6.52939 11.9226 5.44295 11.5086 4.45716C10.9922 3.21848 10.9637 1.83032 11.4286 0.571442M10.3657 10.3543L5.64571 5.6343M0.571426 11.4286C1.83514 10.9724 3.22555 11.0174 4.45714 11.5543" stroke="#0D121C" stroke-linecap="round" stroke-linejoin="round"/>
</svg>
