<svg width="16" height="16" viewBox="0 0 16 16" fill="none" xmlns="http://www.w3.org/2000/svg">
<path d="M15.4286 6.28573C15.4286 10.3886 12.0571 15.4286 8 15.4286C3.94285 15.4286 0.571426 10.3886 0.571426 6.28573C0.571426 2.18287 3.89714 0.571442 8 0.571442C12.1029 0.571442 15.4286 2.18287 15.4286 6.28573Z" stroke="#0D121C" stroke-linecap="round" stroke-linejoin="round"/>
<path d="M3.14286 5.4286C3.03987 5.90696 3.03644 6.4014 3.13278 6.88114C3.22913 7.36088 3.42318 7.81566 3.70286 8.21717C4.10437 8.49685 4.55915 8.69091 5.03889 8.78725C5.51864 8.88359 6.01307 8.88016 6.49143 8.77717C6.59442 8.29881 6.59785 7.80437 6.50151 7.32463C6.40517 6.84489 6.21112 6.39011 5.93143 5.9886C5.52992 5.70891 5.07514 5.51486 4.5954 5.41852C4.11566 5.32218 3.62122 5.32561 3.14286 5.4286ZM12.8571 5.4286C12.9601 5.90696 12.9636 6.4014 12.8672 6.88114C12.7709 7.36088 12.5768 7.81566 12.2971 8.21717C11.8956 8.49685 11.4409 8.69091 10.9611 8.78725C10.4814 8.88359 9.98693 8.88016 9.50858 8.77717C9.40559 8.29881 9.40216 7.80437 9.4985 7.32463C9.59484 6.84489 9.78889 6.39011 10.0686 5.9886C10.4701 5.70891 10.9249 5.51486 11.4046 5.41852C11.8844 5.32218 12.3788 5.32561 12.8571 5.4286Z" stroke="#0D121C" stroke-linecap="round" stroke-linejoin="round"/>
</svg>
