<svg width="16" height="16" viewBox="0 0 16 16" fill="none" xmlns="http://www.w3.org/2000/svg">
<path d="M10.2857 0.571442V7.42858L14.3886 12.6514C14.5884 12.9044 14.7129 13.2085 14.7478 13.5289C14.7826 13.8494 14.7264 14.1732 14.5856 14.4631C14.4448 14.7531 14.2251 14.9975 13.9517 15.1683C13.6783 15.339 13.3623 15.4293 13.04 15.4286H2.96C2.63766 15.4293 2.32166 15.339 2.04827 15.1683C1.77488 14.9975 1.55518 14.7531 1.41437 14.4631C1.27357 14.1732 1.21737 13.8494 1.25222 13.5289C1.28708 13.2085 1.41158 12.9044 1.61143 12.6514L5.71429 7.42858V0.571442M4 0.571442H12" stroke="#0D121C" stroke-linecap="round" stroke-linejoin="round"/>
</svg>
