<svg width="16" height="16" viewBox="0 0 16 16" fill="none" xmlns="http://www.w3.org/2000/svg">
<path d="M3.00572 9.29144C0.97143 11.9886 0.0571438 14.32 0.868572 15.1314C2.01143 16.2743 6.12572 13.9886 10.0114 10.0572C13.8971 6.12573 16.2286 2.05716 15.0857 0.914298C14.3543 0.171441 12.3657 0.914298 9.97714 2.52573" stroke="#0D121C" stroke-linecap="round" stroke-linejoin="round"/>
<path d="M13.7714 5.62286C14.1698 6.49367 14.3429 7.45062 14.2749 8.40581C14.2069 9.36099 13.8999 10.2838 13.3822 11.0894C12.8645 11.8949 12.1527 12.5575 11.312 13.0162C10.4714 13.4748 9.52903 13.7149 8.57143 13.7143C7.8064 13.7146 7.04892 13.5631 6.34285 13.2686M4 11.4286C3.17469 10.3282 2.77401 8.96697 2.87152 7.59492C2.96902 6.22286 3.55818 4.93202 4.53082 3.95939C5.50345 2.98675 6.79429 2.3976 8.16635 2.30009C9.5384 2.20258 10.8996 2.60326 12 3.42857" stroke="#0D121C" stroke-linecap="round" stroke-linejoin="round"/>
</svg>
