<svg width="16" height="16" viewBox="0 0 16 16" fill="none" xmlns="http://www.w3.org/2000/svg">
<g clip-path="url(#clip0_1_3218)">
<path d="M14.7933 1.20666C14.5663 0.980553 14.2967 0.801674 14.0001 0.680361C13.7036 0.559047 13.3859 0.497703 13.0655 0.499872C12.7451 0.502042 12.4282 0.567682 12.1333 0.693001C11.8384 0.81832 11.5713 1.00083 11.3473 1.22999L1.68067 10.8967L0.5 15.5L5.10333 14.3193L14.77 4.65266C14.9992 4.4287 15.1817 4.16156 15.307 3.86666C15.4323 3.57175 15.498 3.25494 15.5001 2.93453C15.5023 2.61411 15.4409 2.29644 15.3196 1.99987C15.1983 1.70329 15.0194 1.4337 14.7933 1.20666Z" stroke="#0D121C" stroke-linecap="round" stroke-linejoin="round"/>
<path d="M11.0707 1.50665L14.4933 4.92932" stroke="#0D121C" stroke-linecap="round" stroke-linejoin="round"/>
<path d="M9.67467 2.90268L13.0973 6.32535" stroke="#0D121C" stroke-linecap="round" stroke-linejoin="round"/>
<path d="M1.68066 10.8967L5.10666 14.316" stroke="#0D121C" stroke-linecap="round" stroke-linejoin="round"/>
</g>
<defs>
<clipPath id="clip0_1_3218">
<rect width="16" height="16" fill="white"/>
</clipPath>
</defs>
</svg>
