<svg width="16" height="16" viewBox="0 0 16 16" fill="none" xmlns="http://www.w3.org/2000/svg">
<g clip-path="url(#clip0_1_3155)">
<path d="M8.44467 9.424L5.97 9.778L6.32333 7.30267L12.6873 0.938671C12.9686 0.657365 13.3502 0.499329 13.748 0.499329C14.1458 0.499329 14.5274 0.657365 14.8087 0.938671C15.09 1.21998 15.248 1.60151 15.248 1.99934C15.248 2.39717 15.09 2.7787 14.8087 3.06L8.44467 9.424Z" stroke="#0D121C" stroke-linecap="round" stroke-linejoin="round"/>
<path d="M12.748 9.5V14.5C12.748 14.7652 12.6426 15.0196 12.4551 15.2071C12.2676 15.3946 12.0132 15.5 11.748 15.5H1.748C1.48278 15.5 1.22843 15.3946 1.04089 15.2071C0.853358 15.0196 0.748001 14.7652 0.748001 14.5V4.5C0.748001 4.23478 0.853358 3.98043 1.04089 3.79289C1.22843 3.60536 1.48278 3.5 1.748 3.5H6.748" stroke="#0D121C" stroke-linecap="round" stroke-linejoin="round"/>
</g>
<defs>
<clipPath id="clip0_1_3155">
<rect width="16" height="16" fill="white"/>
</clipPath>
</defs>
</svg>
