<svg width="16" height="16" viewBox="0 0 16 16" fill="none" xmlns="http://www.w3.org/2000/svg">
<g clip-path="url(#clip0_1_3174)">
<path d="M8.7 12.76L6.22 13.1133L6.57333 10.6667L12.94 4.30667C13.2244 4.04171 13.6004 3.89746 13.989 3.90432C14.3776 3.91117 14.7484 4.0686 15.0232 4.34342C15.2981 4.61825 15.4555 4.98902 15.4624 5.37762C15.4692 5.76622 15.325 6.14232 15.06 6.42667L8.7 12.76Z" stroke="#0D121C" stroke-linecap="round" stroke-linejoin="round"/>
<path d="M3.66667 0.5H8.33334C8.33334 0.5 8.83334 0.5 8.83334 1V2.66667C8.83334 2.66667 8.83334 3.16667 8.33334 3.16667H3.66667C3.66667 3.16667 3.16667 3.16667 3.16667 2.66667V1C3.16667 1 3.16667 0.5 3.66667 0.5Z" stroke="#0D121C" stroke-linecap="round" stroke-linejoin="round"/>
<path d="M8.83333 1.83334H10.5C10.7652 1.83334 11.0196 1.9387 11.2071 2.12624C11.3946 2.31377 11.5 2.56813 11.5 2.83334" stroke="#0D121C" stroke-linecap="round" stroke-linejoin="round"/>
<path d="M11.5 12.5V14.5C11.5 14.7652 11.3946 15.0196 11.2071 15.2071C11.0196 15.3947 10.7652 15.5 10.5 15.5H1.5C1.23478 15.5 0.98043 15.3947 0.792893 15.2071C0.605357 15.0196 0.5 14.7652 0.5 14.5V2.83334C0.5 2.56813 0.605357 2.31377 0.792893 2.12624C0.98043 1.9387 1.23478 1.83334 1.5 1.83334H3.16667" stroke="#0D121C" stroke-linecap="round" stroke-linejoin="round"/>
<path d="M3.5 5.83334H8.16667" stroke="#0D121C" stroke-linecap="round" stroke-linejoin="round"/>
<path d="M3.5 8.83334H5.16667" stroke="#0D121C" stroke-linecap="round" stroke-linejoin="round"/>
</g>
<defs>
<clipPath id="clip0_1_3174">
<rect width="16" height="16" fill="white"/>
</clipPath>
</defs>
</svg>
