<svg width="16" height="16" viewBox="0 0 16 16" fill="none" xmlns="http://www.w3.org/2000/svg">
<path d="M12.5714 0.571442H3.42857C2.79739 0.571442 2.28571 1.08312 2.28571 1.7143V14.2857C2.28571 14.9169 2.79739 15.4286 3.42857 15.4286H12.5714C13.2026 15.4286 13.7143 14.9169 13.7143 14.2857V1.7143C13.7143 1.08312 13.2026 0.571442 12.5714 0.571442Z" stroke="#0D121C" stroke-linecap="round" stroke-linejoin="round"/>
<path d="M8 13.1429C9.57795 13.1429 10.8571 11.8637 10.8571 10.2857C10.8571 8.70778 9.57795 7.42859 8 7.42859C6.42204 7.42859 5.14285 8.70778 5.14285 10.2857C5.14285 11.8637 6.42204 13.1429 8 13.1429Z" stroke="#0D121C" stroke-linecap="round" stroke-linejoin="round"/>
<path d="M8 4.57145C8.31559 4.57145 8.57143 4.31561 8.57143 4.00002C8.57143 3.68443 8.31559 3.42859 8 3.42859C7.68441 3.42859 7.42857 3.68443 7.42857 4.00002C7.42857 4.31561 7.68441 4.57145 8 4.57145Z" stroke="#0D121C" stroke-linecap="round" stroke-linejoin="round"/>
<path d="M8 10.8572C8.31559 10.8572 8.57143 10.6013 8.57143 10.2857C8.57143 9.97013 8.31559 9.71429 8 9.71429C7.68441 9.71429 7.42857 9.97013 7.42857 10.2857C7.42857 10.6013 7.68441 10.8572 8 10.8572Z" stroke="#0D121C" stroke-linecap="round" stroke-linejoin="round"/>
</svg>
