<svg width="16" height="16" viewBox="0 0 16 16" fill="none" xmlns="http://www.w3.org/2000/svg">
<path d="M2.34285 8.14856C2.85035 7.86535 3.44467 7.77987 4.01142 7.90856M4.94856 4.89142C4.62493 4.40353 4.4908 3.81417 4.57142 3.23427M7.57714 0.822845C7.17657 2.0499 7.22929 3.37991 7.72571 4.57142M13.5428 15.0857L5.90856 12.24C5.68258 12.1602 5.48031 12.0248 5.32037 11.8463C5.16043 11.6678 5.04796 11.452 4.99333 11.2186C4.93869 10.9853 4.94364 10.7419 5.00771 10.511C5.07179 10.2801 5.19293 10.069 5.35999 9.89713L10.1486 5.10856C10.3255 4.94277 10.5413 4.82432 10.7762 4.76419C11.0111 4.70407 11.2573 4.70422 11.4921 4.76463C11.7269 4.82504 11.9426 4.94375 12.1193 5.10976C12.296 5.27576 12.4279 5.4837 12.5028 5.71427L15.3371 13.3486C15.4159 13.5959 15.424 13.8603 15.3606 14.112C15.2972 14.3637 15.1648 14.5927 14.9784 14.7732C14.7919 14.9538 14.5587 15.0787 14.3051 15.1339C14.0515 15.1891 13.7875 15.1724 13.5428 15.0857Z" stroke="#0D121C" stroke-linecap="round" stroke-linejoin="round"/>
<path d="M1.14285 4.31998C1.45845 4.31998 1.71428 4.06414 1.71428 3.74855C1.71428 3.43296 1.45845 3.17712 1.14285 3.17712C0.827264 3.17712 0.571426 3.43296 0.571426 3.74855C0.571426 4.06414 0.827264 4.31998 1.14285 4.31998Z" stroke="#0D121C" stroke-linecap="round" stroke-linejoin="round"/>
</svg>
