<svg width="16" height="16" viewBox="0 0 16 16" fill="none" xmlns="http://www.w3.org/2000/svg">
<path d="M4.57143 0.571442H1.71428C1.0831 0.571442 0.571426 1.08312 0.571426 1.7143V14.2857C0.571426 14.9169 1.0831 15.4286 1.71428 15.4286H4.57143C5.20261 15.4286 5.71428 14.9169 5.71428 14.2857V1.7143C5.71428 1.08312 5.20261 0.571442 4.57143 0.571442Z" stroke="#0D121C" stroke-linecap="round" stroke-linejoin="round"/>
<path d="M14.2857 0.571442H11.4286C10.7974 0.571442 10.2857 1.08312 10.2857 1.7143V14.2857C10.2857 14.9169 10.7974 15.4286 11.4286 15.4286H14.2857C14.9169 15.4286 15.4286 14.9169 15.4286 14.2857V1.7143C15.4286 1.08312 14.9169 0.571442 14.2857 0.571442Z" stroke="#0D121C" stroke-linecap="round" stroke-linejoin="round"/>
</svg>
