<svg width="16" height="16" viewBox="0 0 16 16" fill="none" xmlns="http://www.w3.org/2000/svg">
<path d="M9.71428 7.42859H6.28571C5.65453 7.42859 5.14285 7.94026 5.14285 8.57145V14.2857C5.14285 14.9169 5.65453 15.4286 6.28571 15.4286H9.71428C10.3455 15.4286 10.8571 14.9169 10.8571 14.2857V8.57145C10.8571 7.94026 10.3455 7.42859 9.71428 7.42859Z" stroke="#0D121C" stroke-linecap="round" stroke-linejoin="round"/>
<path d="M2.28571 8.57144V12M13.7143 8.57144V12M2.28571 9.7143H1.14285C0.991303 9.7143 0.845958 9.6541 0.738794 9.54693C0.63163 9.43977 0.571426 9.29442 0.571426 9.14287V8.00001C0.571426 6.02983 1.35408 4.14035 2.7472 2.74722C4.14033 1.35409 6.02982 0.571442 8 0.571442C8.97553 0.571442 9.94151 0.763587 10.8428 1.13691C11.7441 1.51023 12.563 2.05741 13.2528 2.74722C13.9426 3.43703 14.4898 4.25595 14.8631 5.15722C15.2364 6.0585 15.4286 7.02448 15.4286 8.00001V9.14287C15.4286 9.29442 15.3684 9.43977 15.2612 9.54693C15.154 9.6541 15.0087 9.7143 14.8571 9.7143H13.7143M8 10.2857V11.4286" stroke="#0D121C" stroke-linecap="round" stroke-linejoin="round"/>
</svg>
