<svg width="16" height="16" viewBox="0 0 16 16" fill="none" xmlns="http://www.w3.org/2000/svg">
<path d="M14.2857 0.571442H1.71428C1.0831 0.571442 0.571426 1.08312 0.571426 1.7143V14.2857C0.571426 14.9169 1.0831 15.4286 1.71428 15.4286H14.2857C14.9169 15.4286 15.4286 14.9169 15.4286 14.2857V1.7143C15.4286 1.08312 14.9169 0.571442 14.2857 0.571442Z" stroke="#0D121C" stroke-linecap="round" stroke-linejoin="round"/>
<path d="M0.571426 4.57144H15.4286M4.57143 4.57144L6.28571 0.571442M9.71428 4.57144L11.4286 0.571442M6.27428 12.0686V7.69144C6.27748 7.62418 6.29713 7.55872 6.33153 7.50083C6.36592 7.44293 6.414 7.39436 6.47155 7.35938C6.52909 7.3244 6.59434 7.30408 6.66157 7.30021C6.7288 7.29633 6.79596 7.30902 6.85714 7.33716L10.6514 9.52001C10.7129 9.55787 10.7636 9.61083 10.7988 9.67385C10.834 9.73686 10.8525 9.80784 10.8525 9.88001C10.8525 9.95219 10.834 10.0232 10.7988 10.0862C10.7636 10.1492 10.7129 10.2022 10.6514 10.24L6.85714 12.4343C6.7949 12.4599 6.72745 12.4702 6.6604 12.4645C6.59335 12.4588 6.52863 12.4371 6.47163 12.4014C6.41463 12.3656 6.36699 12.3168 6.33266 12.2589C6.29834 12.201 6.27832 12.1358 6.27428 12.0686Z" stroke="#0D121C" stroke-linecap="round" stroke-linejoin="round"/>
</svg>
