<svg width="16" height="16" viewBox="0 0 16 16" fill="none" xmlns="http://www.w3.org/2000/svg">
<path d="M15.4286 0.571442V15.4286M0.571428 13.3257C0.570867 13.5313 0.625775 13.7333 0.730365 13.9103C0.834955 14.0873 0.985355 14.2328 1.16571 14.3314C1.33945 14.4317 1.53653 14.4846 1.73714 14.4846C1.93776 14.4846 2.13483 14.4317 2.30857 14.3314L10.5257 8.96001C10.6861 8.85641 10.818 8.71426 10.9093 8.54656C11.0006 8.37887 11.0485 8.19096 11.0485 8.00001C11.0485 7.80906 11.0006 7.62116 10.9093 7.45346C10.818 7.28576 10.6861 7.14362 10.5257 7.04001L2.28571 1.7143C2.11198 1.61399 1.9149 1.56118 1.71429 1.56118C1.51367 1.56118 1.31659 1.61399 1.14286 1.7143C0.962498 1.81298 0.812098 1.95849 0.707508 2.13549C0.602918 2.31249 0.54801 2.51442 0.548571 2.72001L0.571428 13.3257Z" stroke="#0D121C" stroke-linecap="round" stroke-linejoin="round"/>
</svg>
