<svg width="16" height="16" viewBox="0 0 16 16" fill="none" xmlns="http://www.w3.org/2000/svg">
<path d="M15.4286 2.85715V13.1429M12 2.85715V13.1429M0.571432 11.76C0.570879 11.9054 0.609953 12.0482 0.684456 12.173C0.758959 12.2979 0.866074 12.4 0.994289 12.4686C1.12032 12.5441 1.2645 12.584 1.41143 12.584C1.55837 12.584 1.70254 12.5441 1.82858 12.4686L7.63429 8.69715C7.74755 8.62483 7.84077 8.52515 7.90535 8.4073C7.96993 8.28946 8.00378 8.15724 8.00378 8.02286C8.00378 7.88848 7.96993 7.75627 7.90535 7.63842C7.84077 7.52057 7.74755 7.42089 7.63429 7.34858L1.82858 3.55429C1.70254 3.47875 1.55837 3.43886 1.41143 3.43886C1.2645 3.43886 1.12032 3.47875 0.994289 3.55429C0.866074 3.62283 0.758959 3.72501 0.684456 3.84985C0.609953 3.97469 0.570879 4.11748 0.571432 4.26286V11.76Z" stroke="#0D121C" stroke-linecap="round" stroke-linejoin="round"/>
</svg>
