<svg width="16" height="16" viewBox="0 0 16 16" fill="none" xmlns="http://www.w3.org/2000/svg">
<path d="M6.28571 9.92002V6.08002C6.28571 5.79431 6.54856 5.62288 6.75428 5.76002L9.55428 7.68002C9.60396 7.71728 9.64428 7.76559 9.67205 7.82114C9.69982 7.87668 9.71428 7.93792 9.71428 8.00002C9.71428 8.06212 9.69982 8.12337 9.67205 8.17891C9.64428 8.23445 9.60396 8.28276 9.55428 8.32002L6.75428 10.2857C6.54856 10.3772 6.28571 10.2057 6.28571 9.92002Z" stroke="#0D121C" stroke-linecap="round" stroke-linejoin="round"/>
<path d="M11.4286 1.71429H4.57143C3.94025 1.71429 3.42857 2.22597 3.42857 2.85715V13.1429C3.42857 13.774 3.94025 14.2857 4.57143 14.2857H11.4286C12.0598 14.2857 12.5714 13.774 12.5714 13.1429V2.85715C12.5714 2.22597 12.0598 1.71429 11.4286 1.71429Z" stroke="#0D121C" stroke-linecap="round" stroke-linejoin="round"/>
<path d="M0.571426 3.42859V12.5714M15.4286 3.42859V12.5714" stroke="#0D121C" stroke-linecap="round" stroke-linejoin="round"/>
</svg>
