<svg width="16" height="16" viewBox="0 0 16 16" fill="none" xmlns="http://www.w3.org/2000/svg">
<path d="M5.31429 2.56L4.86857 2.66285C4.90894 2.83852 4.91398 3.02046 4.88341 3.1981C4.85284 3.37573 4.78727 3.54552 4.6905 3.69758C4.59373 3.84965 4.46769 3.98097 4.31973 4.08389C4.17176 4.18682 4.0048 4.25931 3.82857 4.29714C3.47121 4.37231 3.09863 4.30428 2.79089 4.10767C2.48315 3.91106 2.26484 3.60157 2.18286 3.24571L1.29143 3.42857C1.16918 3.45524 1.05361 3.50642 0.951697 3.57901C0.849784 3.65161 0.763645 3.74411 0.698486 3.85093C0.633326 3.95775 0.590498 4.07667 0.572588 4.2005C0.554679 4.32434 0.562061 4.45052 0.594287 4.57142C0.594287 4.57142 1.00572 6.48 1.48572 8.62857M13.8857 2.54857C13.8174 2.741 13.7108 2.91757 13.5722 3.06757C13.4337 3.21758 13.2661 3.33789 13.0797 3.42123C12.8933 3.50457 12.6919 3.54919 12.4877 3.55241C12.2836 3.55562 12.0809 3.51734 11.8919 3.43991C11.703 3.36247 11.5317 3.24749 11.3885 3.10191C11.2454 2.95634 11.1332 2.78322 11.0589 2.59302C10.9846 2.40283 10.9497 2.19953 10.9562 1.99544C10.9628 1.79135 11.0107 1.59073 11.0971 1.40571L10.1714 0.971424C9.92424 0.868411 9.6464 0.867036 9.3982 0.967598C9.15001 1.06816 8.95148 1.26255 8.84571 1.50857L5.00572 10.5486L4.50286 11.6914C4.39984 11.9386 4.39847 12.2165 4.49903 12.4647C4.59959 12.7128 4.79398 12.9114 5.04 13.0171L9.68 14.9943C9.92719 15.0973 10.205 15.0987 10.4532 14.9981C10.7014 14.8975 10.8999 14.7032 11.0057 14.4571L15.3486 4.24C15.4443 4.00241 15.4469 3.73744 15.3558 3.49803C15.2647 3.25861 15.0866 3.06239 14.8571 2.94857L13.8857 2.54857Z" stroke="#0D121C" stroke-linecap="round" stroke-linejoin="round"/>
</svg>
