<svg width="16" height="16" viewBox="0 0 16 16" fill="none" xmlns="http://www.w3.org/2000/svg">
<path d="M11.7143 0.571442H4.28572C3.65453 0.571442 3.14286 1.08312 3.14286 1.7143V14.2857C3.14286 14.9169 3.65453 15.4286 4.28572 15.4286H11.7143C12.3455 15.4286 12.8571 14.9169 12.8571 14.2857V1.7143C12.8571 1.08312 12.3455 0.571442 11.7143 0.571442Z" stroke="#0D121C" stroke-linecap="round" stroke-linejoin="round"/>
<path d="M3.14286 12H12.8571M6.02286 8.16002V4.36574C6.01982 4.30159 6.03427 4.23783 6.06466 4.18126C6.09506 4.12469 6.14025 4.07744 6.19542 4.04458C6.25059 4.01171 6.31366 3.99446 6.37787 3.99466C6.44209 3.99487 6.50504 4.01252 6.56 4.04574L9.81715 5.95431C9.87183 5.98516 9.91734 6.02999 9.94901 6.08421C9.98067 6.13843 9.99736 6.20009 9.99736 6.26288C9.99736 6.32567 9.98067 6.38733 9.94901 6.44155C9.91734 6.49577 9.87183 6.5406 9.81715 6.57145L6.56 8.46859C6.50588 8.50122 6.44402 8.51877 6.38083 8.51943C6.31764 8.5201 6.25543 8.50385 6.20063 8.47237C6.14584 8.44089 6.10046 8.39533 6.0692 8.34041C6.03794 8.28549 6.02194 8.22321 6.02286 8.16002Z" stroke="#0D121C" stroke-linecap="round" stroke-linejoin="round"/>
</svg>
