<svg width="16" height="16" viewBox="0 0 16 16" fill="none" xmlns="http://www.w3.org/2000/svg">
<path d="M14.2857 0.571442H1.71428C1.0831 0.571442 0.571426 1.08312 0.571426 1.7143V14.2857C0.571426 14.9169 1.0831 15.4286 1.71428 15.4286H14.2857C14.9169 15.4286 15.4286 14.9169 15.4286 14.2857V1.7143C15.4286 1.08312 14.9169 0.571442 14.2857 0.571442Z" stroke="#0D121C" stroke-linecap="round" stroke-linejoin="round"/>
<path d="M5.97714 10.5486V5.61143C5.97757 5.52882 5.99983 5.4478 6.04167 5.37657C6.0835 5.30534 6.14342 5.24643 6.21536 5.20582C6.2873 5.16521 6.36869 5.14434 6.45129 5.14533C6.53389 5.14631 6.61477 5.16912 6.68571 5.21143L10.9143 7.66857C10.9855 7.70971 11.0446 7.76885 11.0857 7.84007C11.1268 7.91128 11.1484 7.99206 11.1484 8.07429C11.1484 8.15651 11.1268 8.23729 11.0857 8.3085C11.0446 8.37972 10.9855 8.43886 10.9143 8.48L6.68571 10.9486C6.61477 10.9909 6.53389 11.0137 6.45129 11.0147C6.36869 11.0157 6.2873 10.9948 6.21536 10.9542C6.14342 10.9136 6.0835 10.8547 6.04167 10.7834C5.99983 10.7122 5.97757 10.6312 5.97714 10.5486Z" stroke="#0D121C" stroke-linecap="round" stroke-linejoin="round"/>
</svg>
