<svg width="16" height="16" viewBox="0 0 16 16" fill="none" xmlns="http://www.w3.org/2000/svg">
<path d="M14.2057 3.92C14.4915 3.83664 14.7507 3.68027 14.9577 3.46631C15.1647 3.25234 15.3125 2.98815 15.3864 2.69974C15.4603 2.41133 15.4578 2.10865 15.3791 1.8215C15.3005 1.53434 15.1484 1.27262 14.9379 1.0621C14.7274 0.851578 14.4657 0.699512 14.1785 0.620875C13.8914 0.542238 13.5887 0.539742 13.3003 0.613631C13.0119 0.687521 12.7477 0.835248 12.5337 1.04227C12.3197 1.24929 12.1634 1.50847 12.08 1.79428C10.8688 0.996496 9.45032 0.5713 8 0.5713C6.54968 0.5713 5.13118 0.996496 3.92 1.79428C3.83664 1.50847 3.68028 1.24929 3.46631 1.04227C3.25234 0.835248 2.98815 0.687521 2.69974 0.613631C2.41133 0.539742 2.10865 0.542238 1.8215 0.620875C1.53435 0.699512 1.27263 0.851578 1.0621 1.0621C0.851581 1.27262 0.699516 1.53434 0.620879 1.8215C0.542242 2.10865 0.539746 2.41133 0.613635 2.69974C0.687524 2.98815 0.835252 3.25234 1.04227 3.46631C1.2493 3.68027 1.50847 3.83664 1.79429 3.92C0.998376 5.13205 0.573392 6.54999 0.57143 8C0.569437 9.26927 0.89624 10.5174 1.52 11.6229C1.17186 11.7921 0.89175 12.0748 0.725838 12.4245C0.559926 12.7742 0.518112 13.1701 0.607287 13.5467C0.696463 13.9234 0.911306 14.2584 1.21641 14.4966C1.52151 14.7348 1.89867 14.862 2.28572 14.8571C2.57235 14.8556 2.85409 14.7827 3.1055 14.6451C3.35691 14.5074 3.57006 14.3093 3.72572 14.0686C4.97523 14.9537 6.46873 15.4291 8 15.4291C9.53127 15.4291 11.0248 14.9537 12.2743 14.0686C12.4749 14.3791 12.7704 14.6165 13.117 14.7453C13.4635 14.8741 13.8423 14.8874 14.197 14.7833C14.5518 14.6792 14.8633 14.4633 15.0853 14.1676C15.3072 13.872 15.4276 13.5125 15.4286 13.1429C15.4273 12.8264 15.3379 12.5165 15.1704 12.248C15.0028 11.9795 14.7637 11.763 14.48 11.6229C15.1038 10.5174 15.4306 9.26927 15.4286 8C15.4266 6.54999 15.0016 5.13205 14.2057 3.92Z" stroke="#0D121C" stroke-linecap="round" stroke-linejoin="round"/>
<path d="M8 12C10.2091 12 12 10.2091 12 8C12 5.79086 10.2091 4 8 4C5.79086 4 4 5.79086 4 8C4 10.2091 5.79086 12 8 12Z" stroke="#0D121C" stroke-linecap="round" stroke-linejoin="round"/>
<path d="M8 8.57142C8.31559 8.57142 8.57143 8.31558 8.57143 7.99999C8.57143 7.6844 8.31559 7.42856 8 7.42856C7.68441 7.42856 7.42857 7.6844 7.42857 7.99999C7.42857 8.31558 7.68441 8.57142 8 8.57142Z" stroke="#0D121C" stroke-linecap="round" stroke-linejoin="round"/>
</svg>
