<svg width="16" height="16" viewBox="0 0 16 16" fill="none" xmlns="http://www.w3.org/2000/svg">
<path d="M14.2857 4.57144H1.71429C1.0831 4.57144 0.57143 5.08312 0.57143 5.7143V14.2857C0.57143 14.9169 1.0831 15.4286 1.71429 15.4286H14.2857C14.9169 15.4286 15.4286 14.9169 15.4286 14.2857V5.7143C15.4286 5.08312 14.9169 4.57144 14.2857 4.57144Z" stroke="#0D121C" stroke-linecap="round" stroke-linejoin="round"/>
<path d="M2.28572 4.57144L15.4286 0.571442" stroke="#0D121C" stroke-linecap="round" stroke-linejoin="round"/>
<path d="M5.14286 13.1429C6.08963 13.1429 6.85715 12.3754 6.85715 11.4286C6.85715 10.4818 6.08963 9.71429 5.14286 9.71429C4.19609 9.71429 3.42857 10.4818 3.42857 11.4286C3.42857 12.3754 4.19609 13.1429 5.14286 13.1429Z" stroke="#0D121C" stroke-linecap="round" stroke-linejoin="round"/>
<path d="M10.8571 10H12.5714M10.8571 12.8572H12.5714M0.57143 7.42859H15.4286" stroke="#0D121C" stroke-linecap="round" stroke-linejoin="round"/>
</svg>
