<svg width="16" height="16" viewBox="0 0 16 16" fill="none" xmlns="http://www.w3.org/2000/svg">
<path d="M2.85714 0.571415C2.01438 0.570178 1.20069 0.879382 0.571426 1.43999V6.55999C1.20069 7.12059 2.01438 7.42979 2.85714 7.42856C3.04722 7.44597 3.23849 7.44597 3.42857 7.42856V14.0457C3.42857 14.4246 3.57908 14.7879 3.84699 15.0559C4.1149 15.3238 4.47826 15.4743 4.85714 15.4743C5.23602 15.4743 5.59938 15.3238 5.86729 15.0559C6.1352 14.7879 6.28571 14.4246 6.28571 14.0457V3.99999C6.28571 3.09067 5.92449 2.2186 5.28151 1.57562C4.63852 0.932638 3.76645 0.571415 2.85714 0.571415ZM13.1429 0.571415C13.9856 0.570178 14.7993 0.879382 15.4286 1.43999V6.55999C14.7993 7.12059 13.9856 7.42979 13.1429 7.42856C12.9528 7.44597 12.7615 7.44597 12.5714 7.42856V14.0457C12.5714 14.4246 12.4209 14.7879 12.153 15.0559C11.8851 15.3238 11.5217 15.4743 11.1429 15.4743C10.764 15.4743 10.4006 15.3238 10.1327 15.0559C9.86479 14.7879 9.71428 14.4246 9.71428 14.0457V3.99999C9.71428 3.09067 10.0755 2.2186 10.7185 1.57562C11.3615 0.932638 12.2335 0.571415 13.1429 0.571415Z" stroke="#0D121C" stroke-linecap="round" stroke-linejoin="round"/>
</svg>
