<svg width="16" height="16" viewBox="0 0 16 16" fill="none" xmlns="http://www.w3.org/2000/svg">
<path d="M6.28572 12C9.44163 12 12 9.44164 12 6.28573C12 3.12981 9.44163 0.571442 6.28572 0.571442C3.1298 0.571442 0.571428 3.12981 0.571428 6.28573C0.571428 9.44164 3.1298 12 6.28572 12Z" stroke="#0D121C" stroke-linecap="round" stroke-linejoin="round"/>
<path d="M6.28571 8.00001C7.23249 8.00001 8 7.2325 8 6.28573C8 5.33895 7.23249 4.57144 6.28571 4.57144C5.33894 4.57144 4.57143 5.33895 4.57143 6.28573C4.57143 7.2325 5.33894 8.00001 6.28571 8.00001Z" stroke="#0D121C" stroke-linecap="round" stroke-linejoin="round"/>
<path d="M12 6.28574V13.7143C12 14.169 12.1806 14.605 12.5021 14.9265C12.8236 15.248 13.2596 15.4286 13.7143 15.4286C14.1689 15.4286 14.605 15.248 14.9265 14.9265C15.248 14.605 15.4286 14.169 15.4286 13.7143V13.1429" stroke="#0D121C" stroke-linecap="round" stroke-linejoin="round"/>
</svg>
