<svg width="16" height="16" viewBox="0 0 16 16" fill="none" xmlns="http://www.w3.org/2000/svg">
<path d="M0.571426 0.571442V15.4286M15.4286 13.3257C15.4291 13.5313 15.3742 13.7333 15.2696 13.9103C15.165 14.0873 15.0146 14.2328 14.8343 14.3314C14.6605 14.4317 14.4635 14.4846 14.2629 14.4846C14.0622 14.4846 13.8652 14.4317 13.6914 14.3314L5.47428 8.96001C5.31389 8.85641 5.18201 8.71426 5.09069 8.54656C4.99937 8.37887 4.95153 8.19096 4.95153 8.00001C4.95153 7.80906 4.99937 7.62116 5.09069 7.45346C5.18201 7.28576 5.31389 7.14362 5.47428 7.04001L13.7143 1.7143C13.888 1.61399 14.0851 1.56118 14.2857 1.56118C14.4863 1.56118 14.6834 1.61399 14.8571 1.7143C15.0375 1.81298 15.1879 1.95849 15.2925 2.13549C15.3971 2.31249 15.452 2.51442 15.4514 2.72001L15.4286 13.3257Z" stroke="#0D121C" stroke-linecap="round" stroke-linejoin="round"/>
</svg>
