<svg width="16" height="16" viewBox="0 0 16 16" fill="none" xmlns="http://www.w3.org/2000/svg">
<path d="M4 7.42859C5.89355 7.42859 7.42857 5.89356 7.42857 4.00001C7.42857 2.10647 5.89355 0.571442 4 0.571442C2.10645 0.571442 0.571426 2.10647 0.571426 4.00001C0.571426 5.89356 2.10645 7.42859 4 7.42859Z" stroke="#0D121C" stroke-linecap="round" stroke-linejoin="round"/>
<path d="M12 7.42858C13.2624 7.42858 14.2857 6.40523 14.2857 5.14286C14.2857 3.8805 13.2624 2.85715 12 2.85715C10.7376 2.85715 9.71428 3.8805 9.71428 5.14286C9.71428 6.40523 10.7376 7.42858 12 7.42858Z" stroke="#0D121C" stroke-linecap="round" stroke-linejoin="round"/>
<path d="M11.4286 10.2857H5.14286C4.51167 10.2857 4 10.7974 4 11.4286V14.2857C4 14.9169 4.51167 15.4286 5.14286 15.4286H11.4286C12.0598 15.4286 12.5714 14.9169 12.5714 14.2857V11.4286C12.5714 10.7974 12.0598 10.2857 11.4286 10.2857Z" stroke="#0D121C" stroke-linecap="round" stroke-linejoin="round"/>
<path d="M15.4286 11.4286V14.2857" stroke="#0D121C" stroke-linecap="round" stroke-linejoin="round"/>
</svg>
