<svg width="16" height="16" viewBox="0 0 16 16" fill="none" xmlns="http://www.w3.org/2000/svg">
<g clip-path="url(#clip0_1_3201)">
<path d="M15.5 12.5V14.5C15.5 14.7652 15.3946 15.0196 15.2071 15.2071C15.0196 15.3946 14.7652 15.5 14.5 15.5H12.5" stroke="#0D121C" stroke-linecap="round" stroke-linejoin="round"/>
<path d="M12.5 0.5H14.5C14.7652 0.5 15.0196 0.605357 15.2071 0.792893C15.3946 0.98043 15.5 1.23478 15.5 1.5V3.5" stroke="#0D121C" stroke-linecap="round" stroke-linejoin="round"/>
<path d="M0.5 3.5V1.5C0.5 1.23478 0.605357 0.98043 0.792893 0.792893C0.98043 0.605357 1.23478 0.5 1.5 0.5H3.5" stroke="#0D121C" stroke-linecap="round" stroke-linejoin="round"/>
<path d="M3.5 15.5H1.5C1.23478 15.5 0.98043 15.3946 0.792893 15.2071C0.605357 15.0196 0.5 14.7652 0.5 14.5V12.5" stroke="#0D121C" stroke-linecap="round" stroke-linejoin="round"/>
<path d="M9.93333 13.5V11.2507L10.4 11.3293C10.6005 11.3626 10.8058 11.3519 11.0017 11.2978C11.1976 11.2438 11.3794 11.1477 11.5344 11.0163C11.6895 10.885 11.814 10.7214 11.8995 10.537C11.985 10.3527 12.0293 10.1519 12.0293 9.94867V8.8L12.4653 8.69067C12.5741 8.66355 12.6748 8.61067 12.7589 8.53649C12.843 8.46231 12.908 8.36899 12.9485 8.26442C12.9889 8.15984 13.0036 8.04707 12.9914 7.93561C12.9791 7.82415 12.9402 7.71728 12.878 7.624L12.0333 6.35333V6.00333C12.0333 3.93667 9.944 2.292 7.454 2.52133C6.56624 2.60131 5.72703 2.96196 5.05804 3.551C4.38904 4.14003 3.92504 4.92683 3.73331 5.79731C3.54158 6.6678 3.63208 7.57673 3.99169 8.39232C4.3513 9.20792 4.96133 9.88778 5.73333 10.3333V13.5" stroke="#0D121C" stroke-linecap="round" stroke-linejoin="round"/>
</g>
<defs>
<clipPath id="clip0_1_3201">
<rect width="16" height="16" fill="white"/>
</clipPath>
</defs>
</svg>
