<svg width="16" height="16" viewBox="0 0 16 16" fill="none" xmlns="http://www.w3.org/2000/svg">
<g clip-path="url(#clip0_1_3168)">
<path d="M3.38666 8H0.839996" stroke="#0D121C" stroke-linecap="round" stroke-linejoin="round"/>
<path d="M15.1587 8H6.67067" stroke="#0D121C" stroke-linecap="round" stroke-linejoin="round"/>
<path d="M9.32934 13.4113H0.840668" stroke="#0D121C" stroke-linecap="round" stroke-linejoin="round"/>
<path d="M15.1587 13.4113H12.6133" stroke="#0D121C" stroke-linecap="round" stroke-linejoin="round"/>
<path d="M9.32934 2.68201H0.840668" stroke="#0D121C" stroke-linecap="round" stroke-linejoin="round"/>
<path d="M15.1587 2.68201H12.6133" stroke="#0D121C" stroke-linecap="round" stroke-linejoin="round"/>
<path d="M3.38667 8.00134C3.38667 8.21698 3.42914 8.43049 3.51166 8.62971C3.59418 8.82893 3.71513 9.00994 3.8676 9.16241C4.02008 9.31489 4.20109 9.43584 4.40031 9.51836C4.59952 9.60087 4.81304 9.64334 5.02867 9.64334C5.2443 9.64334 5.45782 9.60087 5.65704 9.51836C5.85626 9.43584 6.03727 9.31489 6.18974 9.16241C6.34222 9.00994 6.46317 8.82893 6.54568 8.62971C6.6282 8.43049 6.67067 8.21698 6.67067 8.00134C6.67067 7.78571 6.6282 7.5722 6.54568 7.37298C6.46317 7.17376 6.34222 6.99275 6.18974 6.84028C6.03727 6.6878 5.85626 6.56685 5.65704 6.48433C5.45782 6.40182 5.2443 6.35934 5.02867 6.35934C4.81304 6.35934 4.59952 6.40182 4.40031 6.48433C4.20109 6.56685 4.02008 6.6878 3.8676 6.84028C3.71513 6.99275 3.59418 7.17376 3.51166 7.37298C3.42914 7.5722 3.38667 7.78571 3.38667 8.00134Z" stroke="#0D121C"/>
<path d="M9.32933 13.4127C9.32933 13.8481 9.50233 14.2658 9.81026 14.5737C10.1182 14.8817 10.5358 15.0547 10.9713 15.0547C11.4068 15.0547 11.8245 14.8817 12.1324 14.5737C12.4403 14.2658 12.6133 13.8481 12.6133 13.4127C12.6133 12.9772 12.4403 12.5595 12.1324 12.2516C11.8245 11.9437 11.4068 11.7707 10.9713 11.7707C10.5358 11.7707 10.1182 11.9437 9.81026 12.2516C9.50233 12.5595 9.32933 12.9772 9.32933 13.4127Z" stroke="#0D121C"/>
<path d="M9.32933 2.59C9.32933 3.02548 9.50233 3.44313 9.81026 3.75107C10.1182 4.059 10.5358 4.232 10.9713 4.232C11.4068 4.232 11.8245 4.059 12.1324 3.75107C12.4403 3.44313 12.6133 3.02548 12.6133 2.59C12.6133 2.15451 12.4403 1.73686 12.1324 1.42893C11.8245 1.12099 11.4068 0.947998 10.9713 0.947998C10.5358 0.947998 10.1182 1.12099 9.81026 1.42893C9.50233 1.73686 9.32933 2.15451 9.32933 2.59Z" stroke="#0D121C"/>
</g>
<defs>
<clipPath id="clip0_1_3168">
<rect width="16" height="16" fill="white"/>
</clipPath>
</defs>
</svg>
