<svg width="16" height="16" viewBox="0 0 16 16" fill="none" xmlns="http://www.w3.org/2000/svg">
<g clip-path="url(#clip0_1_3198)">
<path d="M15.4667 1.36933C15.4711 1.30106 15.4615 1.23259 15.4385 1.16816C15.4155 1.10373 15.3795 1.0447 15.3328 0.994725C15.286 0.944746 15.2296 0.904876 15.1668 0.877577C15.1041 0.850277 15.0364 0.836126 14.968 0.835999H0.999993C0.931542 0.836029 0.863827 0.850114 0.801042 0.87738C0.738257 0.904647 0.681739 0.944515 0.63499 0.994514C0.58824 1.04451 0.552255 1.10358 0.529263 1.16805C0.506271 1.23253 0.496763 1.30103 0.501326 1.36933C0.61858 3.002 1.26656 4.55153 2.34646 5.78165C3.42636 7.01176 4.87892 7.85496 6.48266 8.18267V14.766C6.4827 14.861 6.5098 14.954 6.5608 15.0342C6.61179 15.1144 6.68457 15.1783 6.77061 15.2186C6.85665 15.2589 6.95239 15.2739 7.04662 15.2617C7.14084 15.2496 7.22966 15.2108 7.30266 15.15L9.30266 13.4833C9.35904 13.4365 9.4044 13.3778 9.43552 13.3114C9.46663 13.245 9.48272 13.1726 9.48266 13.0993V8.18267C11.0869 7.85558 12.5402 7.01263 13.6206 5.78245C14.701 4.55227 15.3494 3.00241 15.4667 1.36933Z" stroke="#0D121C" stroke-linecap="round" stroke-linejoin="round"/>
</g>
<defs>
<clipPath id="clip0_1_3198">
<rect width="16" height="16" fill="white"/>
</clipPath>
</defs>
</svg>
