<svg width="16" height="16" viewBox="0 0 16 16" fill="none" xmlns="http://www.w3.org/2000/svg">
<g clip-path="url(#clip0_1_3177)">
<path d="M1.5 0.5H14.5C14.5 0.5 15.5 0.5 15.5 1.5V14.5C15.5 14.5 15.5 15.5 14.5 15.5H1.5C1.5 15.5 0.5 15.5 0.5 14.5V1.5C0.5 1.5 0.5 0.5 1.5 0.5Z" stroke="#0D121C" stroke-linecap="round" stroke-linejoin="round"/>
<path d="M8.66667 10.5H12.5" stroke="#0D121C" stroke-linecap="round" stroke-linejoin="round"/>
<path d="M3.5 10.5H5.33333" stroke="#0D121C" stroke-linecap="round" stroke-linejoin="round"/>
<path fill-rule="evenodd" clip-rule="evenodd" d="M8.66666 10.5C8.66666 10.8296 8.56891 11.1519 8.38578 11.426C8.20264 11.7 7.94235 11.9137 7.6378 12.0398C7.33326 12.166 6.99815 12.199 6.67485 12.1347C6.35154 12.0703 6.05457 11.9116 5.82148 11.6785C5.5884 11.4454 5.42966 11.1485 5.36535 10.8252C5.30104 10.5019 5.33405 10.1667 5.4602 9.8622C5.58634 9.55766 5.79996 9.29736 6.07405 9.11423C6.34813 8.93109 6.67036 8.83334 7 8.83334C7.44202 8.83334 7.86595 9.00894 8.17851 9.3215C8.49107 9.63406 8.66666 10.058 8.66666 10.5Z" stroke="#0D121C" stroke-linecap="round" stroke-linejoin="round"/>
<path d="M9.33333 5.5H3.5" stroke="#0D121C" stroke-linecap="round" stroke-linejoin="round"/>
<path fill-rule="evenodd" clip-rule="evenodd" d="M12.6667 5.50001C12.6667 5.17038 12.5689 4.84814 12.3858 4.57406C12.2026 4.29998 11.9423 4.08636 11.6378 3.96021C11.3333 3.83407 10.9981 3.80106 10.6748 3.86537C10.3515 3.92968 10.0546 4.08841 9.82148 4.3215C9.5884 4.55459 9.42966 4.85156 9.36535 5.17486C9.30104 5.49816 9.33405 5.83327 9.4602 6.13782C9.58634 6.44236 9.79996 6.70266 10.074 6.88579C10.3481 7.06893 10.6704 7.16668 11 7.16668C11.442 7.16668 11.8659 6.99108 12.1785 6.67852C12.4911 6.36596 12.6667 5.94204 12.6667 5.50001Z" stroke="#0D121C" stroke-linecap="round" stroke-linejoin="round"/>
</g>
<defs>
<clipPath id="clip0_1_3177">
<rect width="16" height="16" fill="white"/>
</clipPath>
</defs>
</svg>
