<svg width="16" height="16" viewBox="0 0 16 16" fill="none" xmlns="http://www.w3.org/2000/svg">
<path d="M3.38666 4.69333H0.839996" stroke="#0D121C" stroke-linecap="round" stroke-linejoin="round"/>
<path d="M15.1587 4.69333H6.67067" stroke="#0D121C" stroke-linecap="round" stroke-linejoin="round"/>
<path d="M9.32934 11.396H0.840668" stroke="#0D121C" stroke-linecap="round" stroke-linejoin="round"/>
<path d="M15.1587 11.396H12.6133" stroke="#0D121C" stroke-linecap="round" stroke-linejoin="round"/>
<path d="M3.38667 4.60001C3.38667 4.81564 3.42914 5.02916 3.51166 5.22837C3.59418 5.42759 3.71513 5.6086 3.8676 5.76108C4.02008 5.91355 4.20109 6.0345 4.40031 6.11702C4.59952 6.19954 4.81304 6.24201 5.02867 6.24201C5.2443 6.24201 5.45782 6.19954 5.65704 6.11702C5.85626 6.0345 6.03727 5.91355 6.18974 5.76108C6.34222 5.6086 6.46317 5.42759 6.54568 5.22837C6.6282 5.02916 6.67067 4.81564 6.67067 4.60001C6.67067 4.38438 6.6282 4.17086 6.54568 3.97164C6.46317 3.77243 6.34222 3.59141 6.18974 3.43894C6.03727 3.28646 5.85626 3.16552 5.65704 3.083C5.45782 3.00048 5.2443 2.95801 5.02867 2.95801C4.81304 2.95801 4.59952 3.00048 4.40031 3.083C4.20109 3.16552 4.02008 3.28646 3.8676 3.43894C3.71513 3.59141 3.59418 3.77243 3.51166 3.97164C3.42914 4.17086 3.38667 4.38438 3.38667 4.60001Z" stroke="#0D121C"/>
<path d="M9.32933 11.3973C9.32933 11.8328 9.50233 12.2505 9.81026 12.5584C10.1182 12.8663 10.5358 13.0393 10.9713 13.0393C11.4068 13.0393 11.8245 12.8663 12.1324 12.5584C12.4403 12.2505 12.6133 11.8328 12.6133 11.3973C12.6133 10.9619 12.4403 10.5442 12.1324 10.2363C11.8245 9.92834 11.4068 9.75534 10.9713 9.75534C10.5358 9.75534 10.1182 9.92834 9.81026 10.2363C9.50233 10.5442 9.32933 10.9619 9.32933 11.3973Z" stroke="#0D121C"/>
</svg>
