<svg width="16" height="16" viewBox="0 0 16 16" fill="none" xmlns="http://www.w3.org/2000/svg">
<path d="M7.00571 1.14286L1.14285 12.1714C1.06142 12.3235 1.01101 12.4903 0.994539 12.662C0.978067 12.8337 0.995864 13.007 1.0469 13.1718C1.09793 13.3366 1.18118 13.4896 1.29182 13.622C1.40247 13.7543 1.53829 13.8634 1.69143 13.9429C3.64104 14.9255 5.79389 15.4374 7.97714 15.4374C10.1604 15.4374 12.3132 14.9255 14.2629 13.9429C14.4199 13.8675 14.5602 13.7614 14.6756 13.6308C14.7909 13.5002 14.8788 13.3479 14.9343 13.1827C14.9897 13.0175 15.0114 12.843 14.9981 12.6693C14.9849 12.4956 14.9369 12.3263 14.8571 12.1714L8.99428 1.14286C8.89461 0.966978 8.75006 0.820683 8.57538 0.718901C8.40071 0.617118 8.20216 0.563492 8 0.563492C7.79783 0.563492 7.59929 0.617118 7.42461 0.718901C7.24994 0.820683 7.10539 0.966978 7.00571 1.14286Z" stroke="#0D121C" stroke-linecap="round" stroke-linejoin="round"/>
<path d="M13.9886 10.6172C12.1222 11.5231 10.0746 11.9937 8 11.9937C5.92538 11.9937 3.8778 11.5231 2.01143 10.6172M6.28571 8.57144V9.14287M9.71429 8.57144V9.14287M8 5.14287V5.7143" stroke="#0D121C" stroke-linecap="round" stroke-linejoin="round"/>
</svg>
