<svg width="16" height="16" viewBox="0 0 16 16" fill="none" xmlns="http://www.w3.org/2000/svg">
<path d="M9.40571 12.64C10.6619 12.1997 11.725 11.3347 12.4114 10.1943C12.77 10.7026 13.2654 11.0988 13.84 11.3371C14.0137 11.4107 14.2029 11.4401 14.3907 11.4228C14.5786 11.4055 14.7592 11.3419 14.9165 11.2378C15.0738 11.1337 15.2029 10.9923 15.2922 10.8261C15.3816 10.66 15.4284 10.4744 15.4286 10.2857V7.30286C15.4284 7.11423 15.3816 6.92857 15.2922 6.76244C15.2029 6.59631 15.0738 6.45489 14.9165 6.35077C14.7592 6.24666 14.5786 6.18311 14.3907 6.16577C14.2029 6.14844 14.0137 6.17787 13.84 6.25143C13.2637 6.48696 12.7677 6.88379 12.4114 7.39429C11.2686 5.61143 8.16 4.22858 5.04 4.22858C3.84549 4.25546 2.70899 4.74893 1.8738 5.60335C1.03861 6.45776 0.571124 7.6052 0.571427 8.8C0.645175 9.99451 1.18441 11.1125 2.07334 11.9138C2.96226 12.7151 4.12998 13.1359 5.32571 13.0857H6.56" stroke="#0D121C" stroke-linecap="round" stroke-linejoin="round"/>
<path d="M4.57143 8.21715C4.88702 8.21715 5.14286 7.96131 5.14286 7.64572C5.14286 7.33013 4.88702 7.0743 4.57143 7.0743C4.25584 7.0743 4 7.33013 4 7.64572C4 7.96131 4.25584 8.21715 4.57143 8.21715Z" stroke="#0D121C" stroke-linecap="round" stroke-linejoin="round"/>
<path d="M3.69142 4.42286C4.57142 3.06286 6.63999 1.53143 11.2228 2.05715C10.7374 3.37383 10.7374 4.82047 11.2228 6.13715M5.30285 10.8914C5.50807 11.9068 6.09922 12.803 6.95187 13.3913C7.80452 13.9796 8.85216 14.2142 9.87428 14.0457L8.71999 10.2857" stroke="#0D121C" stroke-linecap="round" stroke-linejoin="round"/>
</svg>
