<svg width="16" height="16" viewBox="0 0 16 16" fill="none" xmlns="http://www.w3.org/2000/svg">
<path d="M15.4171 10.9714C15.3762 10.5892 15.2201 10.2284 14.9695 9.93682C14.7189 9.64527 14.3857 9.43673 14.0139 9.33883C13.6421 9.24093 13.2494 9.25829 12.8877 9.38861C12.526 9.51892 12.2125 9.75605 11.9886 10.0686L10.8457 8.92571C10.8457 8.92571 10.7543 8.86857 10.72 8.83428C11.1221 7.68367 11.1873 6.44215 10.9079 5.25575C10.6285 4.06934 10.0162 2.98739 9.14286 2.13714C8.69843 1.65029 8.1574 1.26142 7.55428 0.995363C6.95116 0.729303 6.2992 0.591888 5.64 0.591888C4.98081 0.591888 4.32885 0.729303 3.72573 0.995363C3.12261 1.26142 2.58157 1.65029 2.13715 2.13714C1.64893 2.57932 1.25792 3.11813 0.988913 3.71939C0.719911 4.32066 0.578786 4.97126 0.574488 5.62995C0.57019 6.28863 0.702812 6.94102 0.963945 7.54575C1.22508 8.15047 1.60902 8.69434 2.09143 9.14285C2.95883 10.0416 4.07106 10.6658 5.29008 10.9381C6.5091 11.2103 7.78123 11.1186 8.94857 10.6743C8.94639 10.7047 8.94639 10.7353 8.94857 10.7657L10.2857 12.0914C10.0526 12.288 9.87132 12.5387 9.75774 12.8217C9.64416 13.1046 9.60177 13.4111 9.63429 13.7143C9.68582 14.2159 9.93451 14.6765 10.3257 14.9948C10.7168 15.3131 11.2184 15.463 11.72 15.4114C12.2216 15.3599 12.6823 15.1112 13.0005 14.7201C13.3188 14.3289 13.4687 13.8273 13.4171 13.3257C13.4035 13.2445 13.3844 13.1643 13.36 13.0857H13.7143C13.9667 13.0631 14.2119 12.9899 14.4354 12.8704C14.6588 12.751 14.8559 12.5877 15.0149 12.3903C15.1738 12.193 15.2914 11.9656 15.3605 11.7218C15.4296 11.478 15.4489 11.2228 15.4171 10.9714Z" stroke="#0D121C" stroke-linecap="round" stroke-linejoin="round"/>
</svg>
