<svg width="16" height="16" viewBox="0 0 16 16" fill="none" xmlns="http://www.w3.org/2000/svg">
<path d="M4.85714 8.57143H11.1429M11.1429 12.5714H4.85714M9.42857 4.57143V1.14285C9.42857 0.991303 9.36837 0.845958 9.26121 0.738794C9.15404 0.63163 9.0087 0.571426 8.85714 0.571426H7.14286C6.99131 0.571426 6.84596 0.63163 6.7388 0.738794C6.63163 0.845958 6.57143 0.991303 6.57143 1.14285V4.57143C6.04393 4.92206 5.61136 5.39773 5.31226 5.95605C5.01316 6.51438 4.85681 7.13803 4.85714 7.77143V14.2857C4.85714 14.5888 4.97755 14.8795 5.19188 15.0938C5.40621 15.3082 5.6969 15.4286 6 15.4286H10C10.3031 15.4286 10.5938 15.3082 10.8081 15.0938C11.0225 14.8795 11.1429 14.5888 11.1429 14.2857V7.77143C11.1432 7.13803 10.9868 6.51438 10.6877 5.95605C10.3886 5.39773 9.95607 4.92206 9.42857 4.57143Z" stroke="#0D121C" stroke-linecap="round" stroke-linejoin="round"/>
</svg>
