<svg width="16" height="16" viewBox="0 0 16 16" fill="none" xmlns="http://www.w3.org/2000/svg">
<path d="M0.674283 6.57143H14.8571M10.3886 0.880004L10.2857 0.857147L0.857141 6.4C0.775578 6.44681 0.706828 6.51302 0.656988 6.59277C0.607148 6.67251 0.577758 6.76332 0.571426 6.85715V8.85715C1.71428 8.85715 3.42857 8.85715 3.42857 10.8571C3.42857 12.8571 1.68 12.8571 0.571426 12.8571V14.5714C0.571426 14.723 0.63163 14.8683 0.738794 14.9755C0.845958 15.0827 0.991303 15.1429 1.14285 15.1429H14.8571C15.0087 15.1429 15.154 15.0827 15.2612 14.9755C15.3684 14.8683 15.4286 14.723 15.4286 14.5714V6.57143C15.2613 5.22483 14.6903 3.9604 13.7907 2.94452C12.8911 1.92864 11.7051 1.2089 10.3886 0.880004Z" stroke="#0D121C" stroke-linecap="round" stroke-linejoin="round"/>
<path d="M11.4286 10C11.7442 10 12 9.74417 12 9.42858C12 9.11298 11.7442 8.85715 11.4286 8.85715C11.113 8.85715 10.8571 9.11298 10.8571 9.42858C10.8571 9.74417 11.113 10 11.4286 10Z" stroke="#0D121C" stroke-linecap="round" stroke-linejoin="round"/>
<path d="M7.42857 12.2857C7.74416 12.2857 8 12.0299 8 11.7143C8 11.3987 7.74416 11.1429 7.42857 11.1429C7.11298 11.1429 6.85714 11.3987 6.85714 11.7143C6.85714 12.0299 7.11298 12.2857 7.42857 12.2857Z" stroke="#0D121C" stroke-linecap="round" stroke-linejoin="round"/>
</svg>
