<svg width="16" height="16" viewBox="0 0 16 16" fill="none" xmlns="http://www.w3.org/2000/svg">
<path d="M4.62857 12.9029L4 15.4286M11.3714 12.9029L12 15.4286M4 3.42858V2.28573M12 3.42858V2.28573M8 3.42858V0.571442M8 13.7143C9.87034 13.7114 11.671 13.0042 13.0434 11.7335C14.4158 10.4628 15.2592 8.72175 15.4057 6.85716C15.4058 6.70948 15.3488 6.5675 15.2465 6.46097C15.1442 6.35444 15.0047 6.29163 14.8571 6.28573H1.14286C0.995302 6.29163 0.855762 6.35444 0.753493 6.46097C0.651224 6.5675 0.594168 6.70948 0.594286 6.85716C0.740809 8.72175 1.58424 10.4628 2.95663 11.7335C4.32901 13.0042 6.12966 13.7114 8 13.7143Z" stroke="#0D121C" stroke-linecap="round" stroke-linejoin="round"/>
</svg>
