<svg width="16" height="16" viewBox="0 0 16 16" fill="none" xmlns="http://www.w3.org/2000/svg">
<path d="M11.84 7.40572L8.56 15.0629C8.51369 15.1764 8.4346 15.2736 8.33282 15.342C8.23105 15.4104 8.1112 15.4469 7.98857 15.4469C7.86595 15.4469 7.7461 15.4104 7.64433 15.342C7.54255 15.2736 7.46346 15.1764 7.41715 15.0629L4.16 7.40572" stroke="#0D121C" stroke-linecap="round" stroke-linejoin="round"/>
<path d="M5.57714 7.86285C6.92156 7.86285 8.01142 6.77298 8.01142 5.42856C8.01142 4.08414 6.92156 2.99428 5.57714 2.99428C4.23272 2.99428 3.14285 4.08414 3.14285 5.42856C3.14285 6.77298 4.23272 7.86285 5.57714 7.86285Z" stroke="#0D121C" stroke-linecap="round" stroke-linejoin="round"/>
<path d="M5.57713 3.00571C5.57713 2.36313 5.8324 1.74687 6.28677 1.29249C6.74115 0.83812 7.35741 0.582855 7.99999 0.582855C8.64257 0.582855 9.25884 0.83812 9.71321 1.29249C10.1676 1.74687 10.4228 2.36313 10.4228 3.00571" stroke="#0D121C" stroke-linecap="round" stroke-linejoin="round"/>
<path d="M10.4343 7.86285C11.7787 7.86285 12.8686 6.77298 12.8686 5.42856C12.8686 4.08414 11.7787 2.99428 10.4343 2.99428C9.08987 2.99428 8 4.08414 8 5.42856C8 6.77298 9.08987 7.86285 10.4343 7.86285Z" stroke="#0D121C" stroke-linecap="round" stroke-linejoin="round"/>
</svg>
