<svg width="16" height="16" viewBox="0 0 16 16" fill="none" xmlns="http://www.w3.org/2000/svg">
<path d="M8 9.71428L2.83428 1.44C2.78188 1.35394 2.75316 1.25556 2.75104 1.15483C2.74892 1.05409 2.77347 0.954591 2.82221 0.866406C2.87094 0.778221 2.94212 0.704489 3.02854 0.652685C3.11496 0.600881 3.21354 0.572848 3.31428 0.571426H12.6857C12.7865 0.572848 12.885 0.600881 12.9715 0.652685C13.0579 0.704489 13.1291 0.778221 13.1778 0.866406C13.2265 0.954591 13.2511 1.05409 13.249 1.15483C13.2468 1.25556 13.2181 1.35394 13.1657 1.44L8 9.71428ZM8 9.71428V15.4286M5.14286 15.4286H10.8571M4.06857 3.42857H11.9314" stroke="#0D121C" stroke-linecap="round" stroke-linejoin="round"/>
</svg>
