<svg width="16" height="16" viewBox="0 0 16 16" fill="none" xmlns="http://www.w3.org/2000/svg">
<path d="M2.85714 15.4286H13.1429M2.85714 9.71428H13.1429M15.3486 3.88571C15.2323 3.40642 14.9935 2.96556 14.6556 2.60637C14.3177 2.24718 13.8922 1.98198 13.4208 1.83678C12.9495 1.69158 12.4485 1.67136 11.967 1.77811C11.4856 1.88486 11.0401 2.11492 10.6743 2.44571C10.4746 1.89681 10.1109 1.42264 9.63246 1.08757C9.15404 0.752502 8.58409 0.572769 8 0.572769C7.41591 0.572769 6.84597 0.752502 6.36754 1.08757C5.88911 1.42264 5.52538 1.89681 5.32571 2.44571C4.95992 2.11492 4.51444 1.88486 4.03295 1.77811C3.55146 1.67136 3.05049 1.69158 2.57917 1.83678C2.10785 1.98198 1.68235 2.24718 1.3444 2.60637C1.00645 2.96556 0.767657 3.40642 0.651429 3.88571C0.560621 4.25974 0.546013 4.64822 0.608474 5.02801C0.670935 5.4078 0.809188 5.77114 1.015 6.09638C1.22081 6.42163 1.48997 6.70213 1.80645 6.92118C2.12293 7.14023 2.48025 7.29335 2.85714 7.37143V11.4286C2.85714 11.7317 2.97755 12.0224 3.19188 12.2367C3.40621 12.451 3.6969 12.5714 4 12.5714H12C12.3031 12.5714 12.5938 12.451 12.8081 12.2367C13.0224 12.0224 13.1429 11.7317 13.1429 11.4286V7.37143C13.5197 7.29335 13.8771 7.14023 14.1936 6.92118C14.51 6.70213 14.7792 6.42163 14.985 6.09638C15.1908 5.77114 15.3291 5.4078 15.3915 5.02801C15.454 4.64822 15.4394 4.25974 15.3486 3.88571Z" stroke="#0D121C" stroke-linecap="round" stroke-linejoin="round"/>
</svg>
