<svg width="16" height="16" viewBox="0 0 16 16" fill="none" xmlns="http://www.w3.org/2000/svg">
<path d="M9.71428 11.4286L13.1429 8.00001M9.62285 5.1543L11.3714 1.82858M6.69714 4.5943L3.46285 3.29144M6.28571 5.7143C6.28571 5.25964 6.46632 4.82361 6.78781 4.50212C7.1093 4.18062 7.54534 4.00001 8 4.00001C8.45465 4.00001 8.89069 4.18062 9.21218 4.50212C9.53367 4.82361 9.71428 5.25964 9.71428 5.7143V13.7143C9.71428 14.169 9.89489 14.605 10.2164 14.9265C10.5379 15.248 10.9739 15.4286 11.4286 15.4286C11.8832 15.4286 12.3193 15.248 12.6408 14.9265C12.9622 14.605 13.1429 14.169 13.1429 13.7143V5.7143C13.1429 4.35033 12.601 3.04222 11.6365 2.07775C10.6721 1.11328 9.36397 0.571442 8 0.571442C6.63603 0.571442 5.32792 1.11328 4.36345 2.07775C3.39897 3.04222 2.85714 4.35033 2.85714 5.7143V6.85716C2.85714 7.31181 3.03775 7.74785 3.35924 8.06934C3.68073 8.39083 4.11677 8.57144 4.57143 8.57144C5.02608 8.57144 5.46212 8.39083 5.78361 8.06934C6.1051 7.74785 6.28571 7.31181 6.28571 6.85716V5.7143Z" stroke="#0D121C" stroke-linecap="round" stroke-linejoin="round"/>
</svg>
