<svg width="16" height="16" viewBox="0 0 16 16" fill="none" xmlns="http://www.w3.org/2000/svg">
<path d="M12.1143 7.42857C13.6291 7.42857 14.8571 5.89355 14.8571 4C14.8571 2.10645 13.6291 0.571426 12.1143 0.571426C10.5994 0.571426 9.37143 2.10645 9.37143 4C9.37143 5.89355 10.5994 7.42857 12.1143 7.42857Z" stroke="#0D121C" stroke-linecap="round" stroke-linejoin="round"/>
<path d="M12.1143 7.42857V15.4286M4 0.571426V15.4286M6.85715 0.571426V3.42857C6.85715 3.80377 6.78324 4.17531 6.63966 4.52195C6.49607 4.86859 6.28562 5.18356 6.02031 5.44887C5.755 5.71418 5.44003 5.92464 5.09338 6.06822C4.74674 6.21181 4.37521 6.28571 4 6.28571C3.24224 6.28571 2.51552 5.98469 1.9797 5.44887C1.44388 4.91306 1.14286 4.18633 1.14286 3.42857V0.571426" stroke="#0D121C" stroke-linecap="round" stroke-linejoin="round"/>
</svg>
