<svg width="16" height="16" viewBox="0 0 16 16" fill="none" xmlns="http://www.w3.org/2000/svg">
<path d="M9.14286 11.4286V14.2857C9.14286 14.5888 9.02245 14.8795 8.80812 15.0938C8.59379 15.3082 8.3031 15.4286 8 15.4286C7.6969 15.4286 7.40621 15.3082 7.19188 15.0938C6.97755 14.8795 6.85714 14.5888 6.85714 14.2857V11.4286M11.1429 3.42857C10.6124 3.42857 10.1037 3.21786 9.72864 2.84278C9.35357 2.46771 9.14286 1.959 9.14286 1.42857C9.14559 1.21041 9.1842 0.994189 9.25714 0.788569C8.8518 0.651804 8.42774 0.578557 8 0.571426C6.93913 0.571426 5.92172 0.992854 5.17157 1.743C4.42143 2.49314 4 3.51056 4 4.57143V10.2857C4 10.5888 4.12041 10.8795 4.33474 11.0938C4.54906 11.3082 4.83975 11.4286 5.14286 11.4286H10.8571C11.1602 11.4286 11.4509 11.3082 11.6653 11.0938C11.8796 10.8795 12 10.5888 12 10.2857V4.57143C11.9929 4.14369 11.9196 3.71963 11.7829 3.31428C11.5772 3.38723 11.361 3.42584 11.1429 3.42857Z" stroke="#0D121C" stroke-linecap="round" stroke-linejoin="round"/>
</svg>
