<svg width="16" height="16" viewBox="0 0 16 16" fill="none" xmlns="http://www.w3.org/2000/svg">
<path d="M0.571429 8.57144H15.4286M4.57143 0.571442H11.4286C12.4894 0.571442 13.5069 0.992869 14.257 1.74301C15.0071 2.49316 15.4286 3.51058 15.4286 4.57144C15.4286 4.87455 15.3082 5.16524 15.0938 5.37956C14.8795 5.59389 14.5888 5.7143 14.2857 5.7143H1.71429C1.41118 5.7143 1.12049 5.59389 0.906164 5.37956C0.691836 5.16524 0.571429 4.87455 0.571429 4.57144C0.571429 3.51058 0.992856 2.49316 1.743 1.74301C2.49315 0.992869 3.51056 0.571442 4.57143 0.571442ZM14.8571 11.4286H8L6.28571 13.1429L2.85714 11.4286H1.14286C0.991305 11.4286 0.84596 11.4888 0.738796 11.596C0.631632 11.7031 0.571429 11.8485 0.571429 12C0.571429 12.9093 0.932652 13.7814 1.57563 14.4244C2.21862 15.0674 3.09069 15.4286 4 15.4286H12C12.9093 15.4286 13.7814 15.0674 14.4244 14.4244C15.0673 13.7814 15.4286 12.9093 15.4286 12C15.4286 11.8485 15.3684 11.7031 15.2612 11.596C15.154 11.4888 15.0087 11.4286 14.8571 11.4286Z" stroke="#0D121C" stroke-linecap="round" stroke-linejoin="round"/>
</svg>
