<svg width="16" height="16" viewBox="0 0 16 16" fill="none" xmlns="http://www.w3.org/2000/svg">
<path d="M12 3.42858H14.2857C14.5888 3.42858 14.8795 3.54899 15.0938 3.76332C15.3082 3.97765 15.4286 4.26834 15.4286 4.57144V9.7143C15.4286 10.0174 15.3082 10.3081 15.0938 10.5224C14.8795 10.7367 14.5888 10.8572 14.2857 10.8572H12M4.28571 4.57144V10.8572M8.28571 4.57144V10.8572M1.71428 0.571442H10.8571C11.1602 0.571442 11.4509 0.691849 11.6653 0.906177C11.8796 1.1205 12 1.41119 12 1.7143V13.1429C12 13.7491 11.7592 14.3305 11.3305 14.7591C10.9019 15.1878 10.3205 15.4286 9.71428 15.4286H2.85714C2.25093 15.4286 1.66955 15.1878 1.2409 14.7591C0.812242 14.3305 0.571426 13.7491 0.571426 13.1429V1.7143C0.571426 1.41119 0.691834 1.1205 0.906161 0.906177C1.12049 0.691849 1.41118 0.571442 1.71428 0.571442Z" stroke="#0D121C" stroke-linecap="round" stroke-linejoin="round"/>
</svg>
