<svg width="16" height="16" viewBox="0 0 16 16" fill="none" xmlns="http://www.w3.org/2000/svg">
<path d="M12.5714 8.57143L10.8571 6.28571M12.5714 8.57143V14.2857C12.5714 14.5888 12.451 14.8795 12.2367 15.0938C12.0224 15.3082 11.7317 15.4286 11.4286 15.4286H4.57143C4.26832 15.4286 3.97763 15.3082 3.7633 15.0938C3.54898 14.8795 3.42857 14.5888 3.42857 14.2857V8.57143M12.5714 8.57143L15.4286 6.28571M10.8571 6.28571H5.14285M10.8571 6.28571V3.42857M5.14285 6.28571L3.42857 8.57143M5.14285 6.28571V3.42857M3.42857 8.57143L0.571426 6.28571M5.14285 0.571426H10.8571C11.1602 0.571426 11.4509 0.691834 11.6653 0.906161C11.8796 1.12049 12 1.41118 12 1.71428V3.42857H4V1.71428C4 1.41118 4.12041 1.12049 4.33473 0.906161C4.54906 0.691834 4.83975 0.571426 5.14285 0.571426Z" stroke="#0D121C" stroke-linecap="round" stroke-linejoin="round"/>
</svg>
