<svg width="16" height="16" viewBox="0 0 16 16" fill="none" xmlns="http://www.w3.org/2000/svg">
<path d="M0.674283 6.57143H14.8571M10.3886 0.880004L10.2857 0.857147L0.857141 6.41143C0.775078 6.45472 0.705627 6.51853 0.655556 6.59664C0.605485 6.67476 0.5765 6.7645 0.571426 6.85715V14.5257C0.571426 14.6773 0.63163 14.8226 0.738794 14.9298C0.845958 15.0369 0.991303 15.0971 1.14285 15.0971H14.8571C15.0087 15.0971 15.154 15.0369 15.2612 14.9298C15.3684 14.8226 15.4286 14.6773 15.4286 14.5257V6.52572C15.2527 5.18733 14.6779 3.93292 13.7789 2.92591C12.8799 1.9189 11.6985 1.20597 10.3886 0.880004Z" stroke="#0D121C" stroke-linecap="round" stroke-linejoin="round"/>
<path d="M0.571426 11.9086L0.662855 11.8286C0.874546 11.6126 1.12699 11.4408 1.40556 11.3231C1.68413 11.2054 1.9833 11.1441 2.28571 11.1429C2.89192 11.1429 3.4733 11.3837 3.90196 11.8123C4.33061 12.241 4.57143 12.8224 4.57143 13.4286C4.56887 14.0338 4.32638 14.6133 3.89714 15.04L3.80571 15.1429" stroke="#0D121C" stroke-linecap="round" stroke-linejoin="round"/>
<path d="M10.2857 12.2857C11.2325 12.2857 12 11.5182 12 10.5714C12 9.62466 11.2325 8.85715 10.2857 8.85715C9.33894 8.85715 8.57143 9.62466 8.57143 10.5714C8.57143 11.5182 9.33894 12.2857 10.2857 12.2857Z" stroke="#0D121C" stroke-linecap="round" stroke-linejoin="round"/>
</svg>
