<svg width="16" height="16" viewBox="0 0 16 16" fill="none" xmlns="http://www.w3.org/2000/svg">
<path d="M4 0.571426V12M6.85714 0.571426V3.42857C6.85714 3.80377 6.78324 4.17531 6.63966 4.52195C6.49607 4.86859 6.28562 5.18356 6.02031 5.44887C5.755 5.71418 5.44003 5.92464 5.09338 6.06822C4.74674 6.21181 4.37521 6.28571 4 6.28571C3.24224 6.28571 2.51551 5.98469 1.9797 5.44887C1.44388 4.91306 1.14286 4.18633 1.14286 3.42857V0.571426M0.57143 15.4286L15.4286 0.571426M14.2857 6.28571C14.7423 7.95989 14.9351 9.695 14.8571 11.4286H9.71429M9.71429 6.28571V0.571426C10.9289 1.20394 11.9721 2.12159 12.7543 3.24571M9.71429 15.4286V10.2857" stroke="#0D121C" stroke-linecap="round" stroke-linejoin="round"/>
</svg>
