<svg width="16" height="16" viewBox="0 0 16 16" fill="none" xmlns="http://www.w3.org/2000/svg">
<path d="M9.71428 4L5.14285 8.57143M10.8571 7.42857L6.28571 12M15.4286 3.42857C15.4286 3.05336 15.3547 2.68183 15.2111 2.33519C15.0675 1.98854 14.857 1.67357 14.5917 1.40826C14.3264 1.14295 14.0115 0.932498 13.6648 0.788913C13.3182 0.645329 12.9466 0.571426 12.5714 0.571426H3.42857C2.8289 0.571426 2.24444 0.760105 1.75797 1.11073C1.2715 1.46136 0.907676 1.95617 0.718046 2.52506C0.528415 3.09395 0.522587 3.70809 0.701388 4.28048C0.880188 4.85286 1.23455 5.35448 1.71428 5.71428V14.2857C1.71428 14.5888 1.83469 14.8795 2.04902 15.0938C2.26335 15.3082 2.55404 15.4286 2.85714 15.4286H13.1429C13.446 15.4286 13.7366 15.3082 13.951 15.0938C14.1653 14.8795 14.2857 14.5888 14.2857 14.2857V5.71428C14.6412 5.44877 14.9297 5.1038 15.1281 4.70693C15.3266 4.31006 15.4295 3.87228 15.4286 3.42857Z" stroke="#0D121C" stroke-linecap="round" stroke-linejoin="round"/>
</svg>
