<svg width="16" height="16" viewBox="0 0 16 16" fill="none" xmlns="http://www.w3.org/2000/svg">
<path d="M3.28 6.81144L5.06286 9.09715M7.38286 3.58858L9.17714 5.87429M1.86972 7.92001L9.26172 2.12115C9.61598 1.84327 10.0215 1.63789 10.4552 1.51674C10.8888 1.39559 11.3421 1.36104 11.789 1.41505C12.236 1.46907 12.668 1.6106 13.0603 1.83156C13.4526 2.05253 13.7976 2.3486 14.0754 2.70286L15.1897 4.12344C15.2823 4.24155 15.3508 4.37675 15.3911 4.52131C15.4315 4.66587 15.4429 4.81696 15.4249 4.96596C15.4069 5.11496 15.3596 5.25895 15.286 5.3897C15.2123 5.52045 15.1135 5.63541 14.9954 5.72801L4.00686 14.3474C3.88875 14.44 3.75355 14.5085 3.60899 14.5488C3.46443 14.5892 3.31333 14.6007 3.16433 14.5826C3.01533 14.5646 2.87135 14.5174 2.74059 14.4437C2.60984 14.37 2.49488 14.2713 2.40229 14.1532L1.288 12.7326C1.01019 12.3782 0.804887 11.9727 0.683826 11.539C0.562764 11.1053 0.528312 10.652 0.582436 10.205C0.636559 9.758 0.778199 9.32604 0.999267 8.93379C1.22034 8.54153 1.5165 8.19666 1.87086 7.91886L1.86972 7.92001Z" stroke="#0D121C" stroke-linecap="round" stroke-linejoin="round"/>
</svg>
