<svg width="16" height="16" viewBox="0 0 16 16" fill="none" xmlns="http://www.w3.org/2000/svg">
<path d="M2.9257 6.85715L3.87428 14.4229C3.90796 14.7016 4.04309 14.9582 4.25388 15.1437C4.46466 15.3292 4.73636 15.4306 5.01713 15.4286H10.9943C11.2751 15.4306 11.5467 15.3292 11.7575 15.1437C11.9683 14.9582 12.1034 14.7016 12.1371 14.4229L13.0743 6.85715" stroke="#0D121C" stroke-linecap="round" stroke-linejoin="round"/>
<path d="M12.5714 3.50858C12.4325 3.51076 12.2943 3.52995 12.16 3.56572C12.2644 3.31587 12.3188 3.04794 12.32 2.77715C12.2991 2.18094 12.046 1.6165 11.6147 1.20438C11.1833 0.792254 10.608 0.565103 10.0114 0.571433C9.59793 0.572536 9.19247 0.685787 8.83826 0.899121C8.48404 1.11246 8.19434 1.41788 7.99999 1.78286C7.80565 1.41788 7.51594 1.11246 7.16173 0.899121C6.80751 0.685787 6.40206 0.572536 5.98856 0.571433C5.39596 0.57107 4.82639 0.800873 4.39996 1.21238C3.97353 1.62388 3.72359 2.18491 3.70285 2.77715C3.70405 3.04794 3.75842 3.31587 3.86285 3.56572C3.72115 3.52805 3.57518 3.50885 3.42856 3.50858C2.97391 3.50858 2.53787 3.68919 2.21638 4.01068C1.89489 4.33217 1.71428 4.76821 1.71428 5.22286C1.71428 5.67752 1.89489 6.11355 2.21638 6.43504C2.53787 6.75654 2.97391 6.93715 3.42856 6.93715C3.69011 6.93759 3.94855 6.88049 4.18556 6.76989C4.42257 6.65928 4.63234 6.49789 4.79999 6.29715C4.92413 6.63333 5.14857 6.92325 5.44293 7.12767C5.73728 7.33208 6.08734 7.44111 6.44571 7.44C6.75728 7.44648 7.06505 7.37064 7.33795 7.22015C7.61085 7.06965 7.83921 6.84983 7.99999 6.58286C8.15821 6.841 8.37996 7.05428 8.64406 7.20233C8.90816 7.35039 9.2058 7.42828 9.50856 7.42858C9.86693 7.42968 10.217 7.32065 10.5113 7.11624C10.8057 6.91182 11.0301 6.6219 11.1543 6.28572C11.3219 6.48646 11.5317 6.64786 11.7687 6.75846C12.0057 6.86906 12.2642 6.92617 12.5257 6.92572C12.9804 6.92572 13.4164 6.74511 13.7379 6.42362C14.0594 6.10213 14.24 5.66609 14.24 5.21143C14.24 4.75678 14.0594 4.32074 13.7379 3.99925C13.4164 3.67776 12.9804 3.49715 12.5257 3.49715L12.5714 3.50858Z" stroke="#0D121C" stroke-linecap="round" stroke-linejoin="round"/>
</svg>
