<svg width="16" height="16" viewBox="0 0 16 16" fill="none" xmlns="http://www.w3.org/2000/svg">
<path d="M10.2857 7.42857C10.2857 7.12546 10.1653 6.83477 9.95098 6.62045C9.73665 6.40612 9.44596 6.28571 9.14286 6.28571H3.42857C3.12547 6.28571 2.83478 6.40612 2.62045 6.62045C2.40612 6.83477 2.28571 7.12546 2.28571 7.42857V13.1429C2.28571 13.7491 2.52653 14.3304 2.95518 14.7591C3.38384 15.1878 3.96522 15.4286 4.57143 15.4286H8C8.60621 15.4286 9.18759 15.1878 9.61624 14.7591C10.0449 14.3304 10.2857 13.7491 10.2857 13.1429M10.2857 7.42857V13.1429M10.2857 7.42857H10.8571C11.6149 7.42857 12.3416 7.72959 12.8774 8.26541C13.4133 8.80122 13.7143 9.52795 13.7143 10.2857C13.7143 11.0435 13.4133 11.7702 12.8774 12.306C12.3416 12.8418 11.6149 13.1429 10.8571 13.1429H10.2857M4.57143 0.571426V2.85714M8 0.571426V2.85714" stroke="#0D121C" stroke-linecap="round" stroke-linejoin="round"/>
</svg>
