<svg width="16" height="16" viewBox="0 0 16 16" fill="none" xmlns="http://www.w3.org/2000/svg">
<path d="M6.32 12.4L7.28 15.0857M6.32 12.4L4.32 11.9086M6.32 12.4L7.54286 10.7429M2.26286 1.10858L2.65143 2.18286M3.34857 9.21143L5.34857 9.71429L6.58286 8.05715M2.38857 6.52572L4.38857 7.01715L5.61143 5.37143M1.41714 3.84001L3.41714 4.33143L4.65143 2.67429M10.8686 11.7143L10.2286 14.2857M10.8686 11.7143L9.57715 10.2971M10.8686 11.7143L12.6629 11.0743M13.5429 0.914291L13.2914 1.94286M10.2171 7.72572L11.4971 9.14286L13.3029 8.49143M10.8571 5.15429L12.1371 6.57143L13.9429 5.92M11.4971 2.58286L12.7771 4.00001L14.5829 3.34858" stroke="#0D121C" stroke-linecap="round" stroke-linejoin="round"/>
</svg>
