<svg width="16" height="16" viewBox="0 0 16 16" fill="none" xmlns="http://www.w3.org/2000/svg">
<path d="M9.85143 2.85715C4.90285 2.85715 0.571426 3.6 0.571426 6.85715C0.660811 7.67967 1.07093 8.43378 1.7128 8.95583C2.35467 9.47788 3.17651 9.72578 4 9.64572C4.50036 9.64528 4.99632 9.55228 5.46285 9.37143C5.60704 9.3085 5.76267 9.27602 5.92 9.27602C6.07732 9.27602 6.23295 9.3085 6.37714 9.37143C7.4414 9.95984 8.63539 10.2741 9.85143 10.2857C12.9371 10.2857 15.4286 8.61715 15.4286 6.57143C15.4286 4.52572 12.9371 2.85715 9.85143 2.85715Z" stroke="#0D121C" stroke-linecap="round" stroke-linejoin="round"/>
<path d="M15.4286 6.57143V9.42857C15.4286 11.4743 12.9371 13.1429 9.85143 13.1429C8.63451 13.1596 7.4326 12.8728 6.35428 12.3086C6.21009 12.2456 6.05446 12.2132 5.89714 12.2132C5.73982 12.2132 5.58419 12.2456 5.44 12.3086C4.97272 12.4855 4.47678 12.5746 3.97714 12.5714C3.15365 12.6515 2.33182 12.4036 1.68994 11.8815C1.04807 11.3595 0.637953 10.6054 0.548569 9.78286V6.85714" stroke="#0D121C" stroke-linecap="round" stroke-linejoin="round"/>
<path d="M4.57143 6.85715C4.88702 6.85715 5.14286 6.60131 5.14286 6.28572C5.14286 5.97013 4.88702 5.71429 4.57143 5.71429C4.25584 5.71429 4 5.97013 4 6.28572C4 6.60131 4.25584 6.85715 4.57143 6.85715Z" stroke="#0D121C" stroke-linecap="round" stroke-linejoin="round"/>
</svg>
