<svg width="16" height="16" viewBox="0 0 16 16" fill="none" xmlns="http://www.w3.org/2000/svg">
<path d="M11.4286 0.571426H4.57143C3.94025 0.571426 3.42857 1.0831 3.42857 1.71428V9.71428C3.42857 10.3455 3.94025 10.8571 4.57143 10.8571H11.4286C12.0598 10.8571 12.5714 10.3455 12.5714 9.71428V1.71428C12.5714 1.0831 12.0598 0.571426 11.4286 0.571426Z" stroke="#0D121C" stroke-linecap="round" stroke-linejoin="round"/>
<path d="M6.28572 3.42857V7.42857M9.71429 3.42857V7.42857M9.71429 10.8571V13.7143C9.71429 14.1689 9.53368 14.605 9.21219 14.9265C8.8907 15.248 8.45466 15.4286 8.00001 15.4286C7.54535 15.4286 7.10931 15.248 6.78782 14.9265C6.46633 14.605 6.28572 14.1689 6.28572 13.7143V10.8571" stroke="#0D121C" stroke-linecap="round" stroke-linejoin="round"/>
</svg>
