<svg width="16" height="16" viewBox="0 0 16 16" fill="none" xmlns="http://www.w3.org/2000/svg">
<path d="M2.85714 6.21714V5.14286C2.85714 4.53665 3.09796 3.95527 3.52661 3.52662C3.95526 3.09796 4.53664 2.85715 5.14285 2.85715H12.0571C12.3274 2.84447 12.592 2.93765 12.7947 3.11689C12.9975 3.29613 13.1223 3.54733 13.1429 3.81714V8.18286C13.1223 8.45267 12.9975 8.70387 12.7947 8.88311C12.592 9.06236 12.3274 9.15553 12.0571 9.14286H10.0571" stroke="#0D121C" stroke-linecap="round" stroke-linejoin="round"/>
<path d="M15.4286 10.56V13.8514C15.4286 14.2697 15.2624 14.6709 14.9666 14.9666C14.6709 15.2624 14.2697 15.4286 13.8514 15.4286H7.76C7.41679 15.4294 7.08269 15.3183 6.80837 15.112C6.53405 14.9058 6.3345 14.6156 6.24 14.2857C6.14771 13.9567 5.95031 13.6669 5.67793 13.4606C5.40555 13.2542 5.07314 13.1426 4.73143 13.1429H4.09143C3.15786 13.1429 2.26254 12.772 1.60241 12.1119C0.942283 11.4517 0.571426 10.5564 0.571426 9.62285V5.21143" stroke="#0D121C" stroke-linecap="round" stroke-linejoin="round"/>
<path d="M13.1429 0.571426C13.7491 0.571426 14.3304 0.812242 14.7591 1.2409C15.1878 1.66955 15.4286 2.25093 15.4286 2.85714V10.56C15.4286 10.9783 15.2624 11.3794 14.9666 11.6752C14.6709 11.971 14.2697 12.1371 13.8514 12.1371H9.14285C8.79965 12.138 8.46554 12.0268 8.19123 11.8206C7.91691 11.6143 7.71736 11.3242 7.62285 10.9943C7.53057 10.6653 7.33317 10.3755 7.06079 10.1691C6.78841 9.96277 6.456 9.8512 6.11428 9.85143H5.21143C3.98082 9.85143 2.80062 9.36257 1.93045 8.4924C1.06028 7.62223 0.571426 6.44203 0.571426 5.21143C0.571426 3.98082 1.06028 2.80062 1.93045 1.93045C2.80062 1.06028 3.98082 0.571426 5.21143 0.571426H13.1429Z" stroke="#0D121C" stroke-linecap="round" stroke-linejoin="round"/>
<path d="M6.09143 6.44571C6.40702 6.44571 6.66285 6.18988 6.66285 5.87429C6.66285 5.55869 6.40702 5.30286 6.09143 5.30286C5.77583 5.30286 5.52 5.55869 5.52 5.87429C5.52 6.18988 5.77583 6.44571 6.09143 6.44571Z" stroke="#0D121C" stroke-linecap="round" stroke-linejoin="round"/>
</svg>
