<svg width="16" height="16" viewBox="0 0 16 16" fill="none" xmlns="http://www.w3.org/2000/svg">
<path d="M9.14286 6.85714C8.1478 6.85786 7.16707 7.09438 6.28107 7.54731C5.39508 8.00024 4.62902 8.65669 4.04571 9.46285L1.71429 8L0.571428 9.14285L2.85714 13.1429V14.2857C2.85714 14.5888 2.97755 14.8795 3.19188 15.0938C3.4062 15.3082 3.69689 15.4286 4 15.4286H14.2857C14.5888 15.4286 14.8795 15.3082 15.0938 15.0938C15.3082 14.8795 15.4286 14.5888 15.4286 14.2857V13.1429C15.4286 11.4758 14.7663 9.87698 13.5875 8.69818C12.4087 7.51938 10.8099 6.85714 9.14286 6.85714ZM9.14286 6.85714V5.14285" stroke="#0D121C" stroke-linecap="round" stroke-linejoin="round"/>
<path d="M4.57143 8.83428V5.14286C4.57143 3.93044 5.05306 2.76768 5.91037 1.91037C6.76768 1.05306 7.93044 0.571426 9.14286 0.571426C10.3553 0.571426 11.518 1.05306 12.3753 1.91037C13.2327 2.76768 13.7143 3.93044 13.7143 5.14286V8.83428" stroke="#0D121C" stroke-linecap="round" stroke-linejoin="round"/>
</svg>
