<svg width="16" height="16" viewBox="0 0 16 16" fill="none" xmlns="http://www.w3.org/2000/svg">
<path d="M11.1429 0.571426L9.14286 6.85714L15.4286 4.85714C15.4286 3.7205 14.977 2.63041 14.1733 1.82668C13.3696 1.02296 12.2795 0.571426 11.1429 0.571426Z" stroke="#0D121C" stroke-linecap="round" stroke-linejoin="round"/>
<path d="M8.57143 0.594284L8 0.571426C6.53077 0.571426 5.09453 1.0071 3.87291 1.82337C2.65129 2.63963 1.69915 3.79981 1.1369 5.15721C0.574645 6.5146 0.427535 8.00824 0.714168 9.44924C1.0008 10.8902 1.7083 12.2139 2.74721 13.2528C3.78611 14.2917 5.10976 14.9992 6.55076 15.2858C7.99176 15.5725 9.4854 15.4254 10.8428 14.8631C12.2002 14.3009 13.3604 13.3487 14.1766 12.1271C14.9929 10.9055 15.4286 9.46923 15.4286 8V7.42857" stroke="#0D121C" stroke-linecap="round" stroke-linejoin="round"/>
<path d="M6.28572 11.4286C6.60131 11.4286 6.85714 11.1727 6.85714 10.8571C6.85714 10.5415 6.60131 10.2857 6.28572 10.2857C5.97012 10.2857 5.71429 10.5415 5.71429 10.8571C5.71429 11.1727 5.97012 11.4286 6.28572 11.4286Z" stroke="#0D121C" stroke-linecap="round" stroke-linejoin="round"/>
<path d="M4.57143 6.28571C4.88702 6.28571 5.14286 6.02987 5.14286 5.71428C5.14286 5.39869 4.88702 5.14285 4.57143 5.14285C4.25584 5.14285 4 5.39869 4 5.71428C4 6.02987 4.25584 6.28571 4.57143 6.28571Z" stroke="#0D121C" stroke-linecap="round" stroke-linejoin="round"/>
<path d="M12 9.71428C12.3156 9.71428 12.5714 9.45845 12.5714 9.14285C12.5714 8.82726 12.3156 8.57143 12 8.57143C11.6844 8.57143 11.4286 8.82726 11.4286 9.14285C11.4286 9.45845 11.6844 9.71428 12 9.71428Z" stroke="#0D121C" stroke-linecap="round" stroke-linejoin="round"/>
</svg>
