<svg width="16" height="16" viewBox="0 0 16 16" fill="none" xmlns="http://www.w3.org/2000/svg">
<path d="M14.8571 2.85715H1.14285C0.827264 2.85715 0.571426 3.11298 0.571426 3.42858V12.5714C0.571426 12.887 0.827264 13.1429 1.14285 13.1429H14.8571C15.1727 13.1429 15.4286 12.887 15.4286 12.5714V3.42858C15.4286 3.11298 15.1727 2.85715 14.8571 2.85715Z" stroke="#0D121C" stroke-linecap="round" stroke-linejoin="round"/>
<path d="M9.71428 5.14287H3.42857C3.11298 5.14287 2.85714 5.39871 2.85714 5.7143V10.2857C2.85714 10.6013 3.11298 10.8572 3.42857 10.8572H9.71428C10.0299 10.8572 10.2857 10.6013 10.2857 10.2857V5.7143C10.2857 5.39871 10.0299 5.14287 9.71428 5.14287Z" stroke="#0D121C" stroke-linecap="round" stroke-linejoin="round"/>
<path d="M12.5714 5.71429H13.1429M12.5714 7.42858H13.1429" stroke="#0D121C" stroke-linecap="round" stroke-linejoin="round"/>
</svg>
