<svg width="16" height="16" viewBox="0 0 16 16" fill="none" xmlns="http://www.w3.org/2000/svg">
<path d="M3.84 15.4286C5.48108 15.4286 6.81143 14.0982 6.81143 12.4572C6.81143 10.8161 5.48108 9.48573 3.84 9.48573C2.19893 9.48573 0.868576 10.8161 0.868576 12.4572C0.868576 14.0982 2.19893 15.4286 3.84 15.4286Z" stroke="#0D121C" stroke-linecap="round" stroke-linejoin="round"/>
<path d="M12.16 14.24C13.8011 14.24 15.1314 12.9097 15.1314 11.2686C15.1314 9.6275 13.8011 8.29715 12.16 8.29715C10.5189 8.29715 9.18857 9.6275 9.18857 11.2686C9.18857 12.9097 10.5189 14.24 12.16 14.24Z" stroke="#0D121C" stroke-linecap="round" stroke-linejoin="round"/>
<path d="M10.7543 8.65144C8.44572 6.57354 7.0461 3.67169 6.85715 0.571442C4.98264 3.17127 3.94601 6.28116 3.88573 9.48573M3.84001 0.571442H9.78287" stroke="#0D121C" stroke-linecap="round" stroke-linejoin="round"/>
</svg>
