<svg width="16" height="16" viewBox="0 0 16 16" fill="none" xmlns="http://www.w3.org/2000/svg">
<path d="M0.57143 0.571426V3.14285C0.57143 3.90062 0.87245 4.62734 1.40827 5.16316C1.94409 5.69898 2.67081 6 3.42857 6C4.18633 6 4.91306 5.69898 5.44888 5.16316C5.9847 4.62734 6.28572 3.90062 6.28572 3.14285V0.571426M3.42857 0.571426V15.4286M15.4286 15.4286C13.4584 15.4286 11.5689 14.6459 10.1758 13.2528C8.78265 11.8597 8 9.97018 8 8C8 6.02982 8.78265 4.14033 10.1758 2.7472C11.5689 1.35408 13.4584 0.571426 15.4286 0.571426" stroke="#0D121C" stroke-linecap="round" stroke-linejoin="round"/>
<path d="M15.4286 12C14.3677 12 13.3503 11.5786 12.6001 10.8284C11.85 10.0783 11.4286 9.06087 11.4286 8C11.4286 6.93913 11.85 5.92172 12.6001 5.17157C13.3503 4.42143 14.3677 4 15.4286 4" stroke="#0D121C" stroke-linecap="round" stroke-linejoin="round"/>
</svg>
