<svg width="16" height="16" viewBox="0 0 16 16" fill="none" xmlns="http://www.w3.org/2000/svg">
<path d="M13.1429 6.85714L12.1257 14.4229C12.092 14.7016 11.9569 14.9582 11.7461 15.1437C11.5353 15.3292 11.2636 15.4306 10.9829 15.4286H5.00572C4.72494 15.4306 4.45325 15.3292 4.24246 15.1437C4.03167 14.9582 3.89655 14.7016 3.86286 14.4229L2.85715 6.85714M13.1429 6.85714H2.85715M13.1429 6.85714L12.2629 4.20571C12.1833 3.96916 12.0286 3.76514 11.8222 3.62482C11.6158 3.48449 11.3692 3.41556 11.12 3.42857H4.82286C4.58327 3.42795 4.34954 3.50265 4.15471 3.64211C3.95989 3.78156 3.81382 3.97872 3.73715 4.20571L2.85715 6.85714" stroke="#0D121C" stroke-linecap="round" stroke-linejoin="round"/>
<path d="M9.71429 3.42857V1.71428C9.71429 1.41118 9.59388 1.12049 9.37956 0.906162C9.16523 0.691834 8.87454 0.571426 8.57144 0.571426H7.42858C7.12547 0.571426 6.83478 0.691834 6.62046 0.906162C6.40613 1.12049 6.28572 1.41118 6.28572 1.71428V3.42857" stroke="#0D121C" stroke-linecap="round" stroke-linejoin="round"/>
</svg>
