<svg width="16" height="16" viewBox="0 0 16 16" fill="none" xmlns="http://www.w3.org/2000/svg">
<path d="M12 10.2857V5.14285C12 4.9913 11.9398 4.84596 11.8326 4.73879C11.7255 4.63163 11.5801 4.57143 11.4286 4.57143H2.28572C2.13416 4.57143 1.98882 4.63163 1.88165 4.73879C1.77449 4.84596 1.71429 4.9913 1.71429 5.14285V10.2857C1.71429 10.8919 1.9551 11.4733 2.38376 11.902C2.81241 12.3306 3.39379 12.5714 4 12.5714H9.71429C10.3205 12.5714 10.9019 12.3306 11.3305 11.902C11.7592 11.4733 12 10.8919 12 10.2857ZM12 10.2857H13.1429C13.7491 10.2857 14.3304 10.0449 14.7591 9.61624C15.1878 9.18759 15.4286 8.60621 15.4286 8C15.4286 7.39379 15.1878 6.81241 14.7591 6.38375C14.3304 5.9551 13.7491 5.71428 13.1429 5.71428H12M0.57143 15.4286H15.4286M3.42857 0.571426V1.71428M9.14286 0.571426V1.71428M6.28572 0.571426V1.71428" stroke="#0D121C" stroke-linecap="round" stroke-linejoin="round"/>
</svg>
