<svg width="16" height="16" viewBox="0 0 16 16" fill="none" xmlns="http://www.w3.org/2000/svg">
<path d="M14.2857 6.28574H1.71429C1.0831 6.28574 0.57143 6.79741 0.57143 7.42859V14.2857C0.57143 14.9169 1.0831 15.4286 1.71429 15.4286H14.2857C14.9169 15.4286 15.4286 14.9169 15.4286 14.2857V7.42859C15.4286 6.79741 14.9169 6.28574 14.2857 6.28574Z" stroke="#0D121C" stroke-linecap="round" stroke-linejoin="round"/>
<path d="M3.42857 4.00001V1.71429M8 4.00001V1.71429M12.5714 4.00001V1.71429M15.4286 11.4286H14.8571C14.2509 11.4286 13.6696 11.1878 13.2409 10.7591C12.8122 10.3305 12.5714 9.74908 12.5714 9.14287C12.5714 9.74908 12.3306 10.3305 11.902 10.7591C11.4733 11.1878 10.8919 11.4286 10.2857 11.4286C9.67951 11.4286 9.09813 11.1878 8.66947 10.7591C8.24082 10.3305 8 9.74908 8 9.14287C8 9.74908 7.75919 10.3305 7.33053 10.7591C6.90188 11.1878 6.3205 11.4286 5.71429 11.4286C5.10808 11.4286 4.5267 11.1878 4.09804 10.7591C3.66939 10.3305 3.42857 9.74908 3.42857 9.14287C3.42857 9.74908 3.18776 10.3305 2.7591 10.7591C2.33045 11.1878 1.74907 11.4286 1.14286 11.4286H0.57143" stroke="#0D121C" stroke-linecap="round" stroke-linejoin="round"/>
</svg>
