<svg width="16" height="16" viewBox="0 0 16 16" fill="none" xmlns="http://www.w3.org/2000/svg">
<path d="M8.00001 8.00001L1.54286 1.54286C1.46435 1.46318 1.41151 1.3618 1.39114 1.25181C1.37077 1.14181 1.38381 1.02824 1.42858 0.925721C1.46876 0.81952 1.54091 0.728406 1.63508 0.664949C1.72924 0.601491 1.84077 0.568818 1.95429 0.571435H14.0457C14.1592 0.568818 14.2708 0.601491 14.3649 0.664949C14.4591 0.728406 14.5313 0.81952 14.5714 0.925721C14.6162 1.02824 14.6292 1.14181 14.6089 1.25181C14.5885 1.3618 14.5357 1.46318 14.4571 1.54286L8.00001 8.00001ZM8.00001 8.00001V15.4286M4.57143 15.4286H11.4286" stroke="#0D121C" stroke-linecap="round" stroke-linejoin="round"/>
</svg>
