<svg width="16" height="16" viewBox="0 0 16 16" fill="none" xmlns="http://www.w3.org/2000/svg">
<g clip-path="url(#clip0_601_52359)">
<path fill-rule="evenodd" clip-rule="evenodd" d="M6.992 0.0320059C4.31163 0.384422 2.03281 2.00007 0.831102 4.40001C0.424926 5.21119 0.180702 6.00858 0.0445897 6.96801C0.0110057 7.20477 0.0082537 7.28049 0.0081417 7.97601C0.0079817 8.78345 0.0118377 8.83885 0.105294 9.37601C0.287662 10.4242 0.691294 11.4448 1.28552 12.36C2.4816 14.2023 4.41313 15.4824 6.584 15.8715C8.68165 16.2475 10.8662 15.7658 12.5954 14.5458C12.6904 14.4788 12.8131 14.3931 12.868 14.3554C12.923 14.3176 12.9968 14.2595 13.032 14.2262C13.0672 14.1929 13.1212 14.1455 13.152 14.1209C13.3143 13.9912 13.6864 13.6357 13.8725 13.4326C15.0398 12.1588 15.7427 10.6455 15.9521 8.9554C15.9696 8.81373 15.9847 8.66143 15.9856 8.61692C15.9869 8.54965 15.9896 8.54274 16.0013 8.576C16.0095 8.59956 16.0128 8.27066 16.0092 7.776C16.0033 6.96236 16.002 6.93314 15.9686 6.84447C15.9249 6.72881 15.8207 6.6197 15.6995 6.5629L15.608 6.52001H12.24H8.872L8.78048 6.5629C8.66061 6.61909 8.55491 6.729 8.51297 6.84108C8.48054 6.92773 8.48 6.9538 8.48 8.40801C8.48 9.85572 8.48069 9.88863 8.51252 9.97377C8.556 10.0899 8.65241 10.196 8.76457 10.2511L8.856 10.296L10.0283 10.304L11.2007 10.312L11.0931 10.448C10.4054 11.3177 9.3468 11.8695 8.24132 11.9343C6.21947 12.0528 4.44889 10.643 4.11168 8.64607C4.02045 8.10593 4.0528 7.49021 4.20077 6.95034C4.57224 5.59493 5.66102 4.52613 7.02065 4.1822C7.3927 4.08809 7.59853 4.063 8 4.06281C8.64086 4.0625 9.17211 4.18487 9.736 4.46269C10.1381 4.66081 10.4072 4.85234 10.777 5.2037C11.0026 5.41799 11.0611 5.44831 11.248 5.44745C11.3462 5.447 11.3829 5.43913 11.4499 5.40423C11.5417 5.35645 13.7886 3.30303 13.8923 3.17213C14.011 3.02241 14.0314 2.81348 13.9443 2.6397C13.8753 2.50191 13.3707 2.01356 12.968 1.69482C11.9561 0.893878 10.7322 0.338262 9.464 0.104214C8.94705 0.00880586 8.81724 -0.000154137 7.97939 0.00181386C7.33998 0.00330186 7.17104 0.00846986 6.992 0.0320059ZM7.528 0.985606C6.97896 1.03983 6.69952 1.08415 6.32603 1.17621C5.274 1.43557 4.31822 1.92122 3.48 2.62233C3.28403 2.78625 2.89073 3.17319 2.72208 3.36801C2.53985 3.57849 2.4 3.75458 2.4 3.77353C2.4 3.78591 3.93169 5.02242 3.99459 5.06081C4.00597 5.06775 4.03697 5.03954 4.07456 4.98807C4.18451 4.83748 4.45491 4.5389 4.61315 4.39338C5.46035 3.61423 6.46257 3.16793 7.584 3.07042C7.87905 3.04476 8.44174 3.06045 8.712 3.10188C9.60347 3.23849 10.4127 3.59058 11.0867 4.13509C11.1696 4.20205 11.2422 4.25487 11.248 4.25242C11.2677 4.24423 12.768 2.85769 12.7669 2.84879C12.7662 2.84396 12.7068 2.78831 12.6349 2.72513C11.5491 1.77196 10.2619 1.20039 8.784 1.01525C8.59419 0.991478 7.68572 0.970038 7.528 0.985606ZM1.70758 4.89201C1.34118 5.64802 1.11291 6.43954 1.02117 7.27201C0.988254 7.57057 0.993198 8.47546 1.02933 8.76801C1.13707 9.64039 1.38835 10.4614 1.77859 11.216C1.84912 11.3524 1.91529 11.4728 1.92561 11.4836C1.95337 11.5126 3.50592 10.1182 3.49734 10.072C3.49408 10.0544 3.46286 9.97161 3.42797 9.88801C3.02304 8.91807 2.94533 7.81226 3.20861 6.76663C3.2604 6.56093 3.33011 6.34985 3.41862 6.13073C3.45889 6.03103 3.48558 5.94381 3.47792 5.93693C3.40254 5.86919 1.85307 4.64001 1.84305 4.64001C1.83571 4.64001 1.77475 4.7534 1.70758 4.89201ZM0.0072937 7.984C0.0072937 8.34041 0.0094057 8.48621 0.0119817 8.30801C0.0145577 8.12981 0.0145577 7.83821 0.0119817 7.66001C0.0094057 7.48181 0.0072937 7.6276 0.0072937 7.984ZM9.488 8.40765V9.2953L10.836 9.29965L12.184 9.30401L12.272 9.34575C12.4313 9.42135 12.5259 9.543 12.5572 9.71252C12.578 9.82484 12.5606 9.91697 12.4874 10.0835C12.289 10.5347 11.9312 11.0525 11.5334 11.464L11.345 11.659L11.8269 12.2015C12.0919 12.4999 12.3974 12.843 12.5057 12.964L12.7027 13.1841L12.8561 13.0374C13.1988 12.7098 13.5528 12.2841 13.8317 11.864C14.0472 11.5394 14.1357 11.3838 14.3124 11.0188C14.6439 10.3341 14.837 9.6876 14.9534 8.872C14.9737 8.72968 14.9826 8.52991 14.9879 8.10001L14.995 7.52001H12.2415H9.488V8.40765ZM3.272 11.6582C2.8584 12.0321 2.5223 12.3462 2.52512 12.3563C2.55105 12.4494 3.26736 13.1755 3.58091 13.4265C4.6572 14.2882 5.85408 14.787 7.248 14.955C7.53995 14.9902 8.36974 14.9948 8.672 14.9629C9.60451 14.8646 10.4697 14.6034 11.28 14.1755C11.4965 14.0612 11.8807 13.8327 11.8948 13.8099C11.9007 13.8005 10.9297 12.6951 10.5898 12.3242L10.5277 12.2564L10.3657 12.3461C9.65499 12.7395 8.84301 12.9439 7.992 12.9435C6.84893 12.943 5.76662 12.5586 4.87717 11.8373C4.6532 11.6557 4.33553 11.339 4.16957 11.132C4.10078 11.0462 4.03989 10.9765 4.03425 10.9772C4.02861 10.9779 3.6856 11.2843 3.272 11.6582Z" fill="#0D121C"/>
</g>
<defs>
<clipPath id="clip0_601_52359">
<rect width="16" height="16" fill="white"/>
</clipPath>
</defs>
</svg>
