<svg width="16" height="16" viewBox="0 0 16 16" fill="none" xmlns="http://www.w3.org/2000/svg">
<path d="M15.5 8.5V4H11" stroke="#0D121C" stroke-linecap="round" stroke-linejoin="round"/>
<path d="M15.5 4L10.2073 9.29267C10.1145 9.38559 10.0042 9.45931 9.88283 9.5096C9.76146 9.5599 9.63138 9.58579 9.5 9.58579C9.36862 9.58579 9.23854 9.5599 9.11717 9.5096C8.9958 9.45931 8.88553 9.38559 8.79267 9.29267L6.70733 7.20733C6.61447 7.11441 6.5042 7.04069 6.38283 6.9904C6.26146 6.9401 6.13138 6.91421 6 6.91421C5.86862 6.91421 5.73854 6.9401 5.61717 6.9904C5.4958 7.04069 5.38553 7.11441 5.29267 7.20733L0.5 12" stroke="#0D121C" stroke-linecap="round" stroke-linejoin="round"/>
</svg>
