<svg width="16" height="16" viewBox="0 0 16 16" fill="none" xmlns="http://www.w3.org/2000/svg">
<path d="M15.5 7.5V12H11" stroke="#0D121C" stroke-linecap="round" stroke-linejoin="round"/>
<path d="M15.5 12L10.2073 6.70733C10.1145 6.61441 10.0042 6.54069 9.88283 6.4904C9.76146 6.4401 9.63138 6.41421 9.5 6.41421C9.36862 6.41421 9.23854 6.4401 9.11717 6.4904C8.9958 6.54069 8.88553 6.61441 8.79267 6.70733L6.70733 8.79267C6.61447 8.88559 6.5042 8.95931 6.38283 9.0096C6.26146 9.0599 6.13138 9.08579 6 9.08579C5.86862 9.08579 5.73854 9.0599 5.61717 9.0096C5.4958 8.95931 5.38553 8.88559 5.29267 8.79267L0.5 4" stroke="#0D121C" stroke-linecap="round" stroke-linejoin="round"/>
</svg>
