<svg width="16" height="16" viewBox="0 0 16 16" fill="none" xmlns="http://www.w3.org/2000/svg">
<path d="M4 15.4286C4 15.4286 11.4286 7.30286 11.4286 4C11.4551 3.54281 11.3847 3.08517 11.2218 2.65715C11.0589 2.22914 10.8072 1.84044 10.4834 1.51661C10.1596 1.19278 9.77087 0.941145 9.34285 0.778243C8.91484 0.615341 8.4572 0.54486 8 0.571432C7.54281 0.54486 7.08516 0.615341 6.65715 0.778243C6.22913 0.941145 5.84044 1.19278 5.51661 1.51661C5.19278 1.84044 4.94114 2.22914 4.77824 2.65715C4.61534 3.08517 4.54486 3.54281 4.57143 4C4.57143 7.30286 12 15.4286 12 15.4286" stroke="#0D121C" stroke-linecap="round" stroke-linejoin="round"/>
</svg>
