<svg width="16" height="16" viewBox="0 0 16 16" fill="none" xmlns="http://www.w3.org/2000/svg">
<path d="M8 3.42857L2.76572 8.56C2.5532 8.77228 2.38461 9.02437 2.26958 9.30185C2.15455 9.57933 2.09535 9.87676 2.09535 10.1771C2.09535 10.4775 2.15455 10.775 2.26958 11.0524C2.38461 11.3299 2.5532 11.582 2.76572 11.7943L4.20572 13.2343C4.418 13.4468 4.67008 13.6154 4.94757 13.7304C5.22505 13.8454 5.52248 13.9047 5.82286 13.9047C6.12324 13.9047 6.42067 13.8454 6.69815 13.7304C6.97563 13.6154 7.22772 13.4468 7.44 13.2343L12.5714 8M12 0.571426L15.4286 4M10.2857 5.71428L13.7143 2.28571M3.48572 12.5143L0.57143 15.4286M6.28572 1.71428L14.2857 9.71428" stroke="#0D121C" stroke-linecap="round" stroke-linejoin="round"/>
</svg>
