<svg width="16" height="16" viewBox="0 0 16 16" fill="none" xmlns="http://www.w3.org/2000/svg">
<path d="M8 3.58857V5.30286M9.72571 8.17143C10.2647 7.77938 10.7011 7.2629 10.9976 6.66595C11.294 6.069 11.4419 5.40925 11.4286 4.74286C11.4982 3.75798 11.1777 2.78521 10.5362 2.03466C9.89469 1.28411 8.98372 0.816001 8 0.73143C7.01726 0.813157 6.10631 1.27884 5.46454 2.02757C4.82278 2.7763 4.50189 3.74775 4.57143 4.73143C4.55809 5.39782 4.70596 6.05757 5.00244 6.65452C5.29893 7.25147 5.73526 7.76795 6.27429 8.16L2.60571 12.3657C2.51931 12.4702 2.47204 12.6016 2.47204 12.7371C2.47204 12.8727 2.51931 13.0041 2.60571 13.1086L4.17143 15.0514C4.22168 15.1192 4.28719 15.1741 4.36264 15.2119C4.43809 15.2496 4.52136 15.269 4.60571 15.2686C4.68951 15.2694 4.77253 15.2526 4.84935 15.2191C4.92617 15.1856 4.99503 15.1363 5.05143 15.0743C6.16135 13.819 7.1487 12.4604 8 11.0171C8.85854 12.4614 9.85357 13.82 10.9714 15.0743C11.0278 15.1363 11.0967 15.1856 11.1735 15.2191C11.2503 15.2526 11.3334 15.2694 11.4171 15.2686C11.5015 15.269 11.5848 15.2496 11.6602 15.2119C11.7357 15.1741 11.8012 15.1192 11.8514 15.0514L13.4171 13.1086C13.5027 13.0059 13.5495 12.8765 13.5495 12.7429C13.5495 12.6092 13.5027 12.4798 13.4171 12.3771L9.72571 8.17143Z" stroke="#0D121C" stroke-linecap="round" stroke-linejoin="round"/>
</svg>
