<svg width="16" height="16" viewBox="0 0 16 16" fill="none" xmlns="http://www.w3.org/2000/svg">
<g clip-path="url(#clip0_1_3150)">
<path d="M2.5 9.29333V14.7933H6.5V10.7933C6.5 10.5281 6.60536 10.2738 6.79289 10.0862C6.98043 9.89869 7.23478 9.79333 7.5 9.79333H8.5C8.76522 9.79333 9.01957 9.89869 9.20711 10.0862C9.39464 10.2738 9.5 10.5281 9.5 10.7933V14.7933H13.5V9.29333" stroke="#0D121C" stroke-linecap="round" stroke-linejoin="round"/>
<path d="M0.5 8.29333L7.29333 1.5C7.38573 1.40647 7.49576 1.33222 7.61707 1.28154C7.73837 1.23085 7.86853 1.20476 8 1.20476C8.13147 1.20476 8.26163 1.23085 8.38293 1.28154C8.50424 1.33222 8.61428 1.40647 8.70667 1.5L15.5 8.29333" stroke="#0D121C" stroke-linecap="round" stroke-linejoin="round"/>
<path d="M11 3.79333V1.84666H13.5V6.29333" stroke="#0D121C" stroke-linecap="round" stroke-linejoin="round"/>
</g>
<defs>
<clipPath id="clip0_1_3150">
<rect width="16" height="16" fill="white"/>
</clipPath>
</defs>
</svg>
