<svg width="16" height="16" viewBox="0 0 16 16" fill="none" xmlns="http://www.w3.org/2000/svg">
<path d="M15.4286 5.71429C15.4286 5.41119 15.3082 5.1205 15.0938 4.90617C14.8795 4.69184 14.5888 4.57144 14.2857 4.57144H12L10.2857 2.28572H5.71429L4 4.57144H1.71429C1.41118 4.57144 1.12049 4.69184 0.906164 4.90617C0.691836 5.1205 0.571429 5.41119 0.571429 5.71429V12.5714C0.571429 12.8745 0.691836 13.1652 0.906164 13.3796C1.12049 13.5939 1.41118 13.7143 1.71429 13.7143H14.2857C14.5888 13.7143 14.8795 13.5939 15.0938 13.3796C15.3082 13.1652 15.4286 12.8745 15.4286 12.5714V5.71429Z" stroke="#0D121C" stroke-linecap="round" stroke-linejoin="round"/>
<path d="M8 11.1429C9.42016 11.1429 10.5714 9.99159 10.5714 8.57143C10.5714 7.15127 9.42016 6 8 6C6.57984 6 5.42857 7.15127 5.42857 8.57143C5.42857 9.99159 6.57984 11.1429 8 11.1429Z" stroke="#0D121C" stroke-linecap="round" stroke-linejoin="round"/>
</svg>
