<svg width="16" height="16" viewBox="0 0 16 16" fill="none" xmlns="http://www.w3.org/2000/svg">
<path d="M15.4286 4C15.4286 3.69689 15.3082 3.4062 15.0938 3.19188C14.8795 2.97755 14.5888 2.85714 14.2857 2.85714H12L10.2857 0.571426H5.71428L4 2.85714H1.71428C1.41118 2.85714 1.12049 2.97755 0.906161 3.19188C0.691834 3.4062 0.571426 3.69689 0.571426 4V9.71428C0.571426 10.0174 0.691834 10.3081 0.906161 10.5224C1.12049 10.7367 1.41118 10.8571 1.71428 10.8571H5.14285L8 15.4286L10.8571 10.8571H14.2857C14.5888 10.8571 14.8795 10.7367 15.0938 10.5224C15.3082 10.3081 15.4286 10.0174 15.4286 9.71428V4Z" stroke="#0D121C" stroke-linecap="round" stroke-linejoin="round"/>
<path d="M8 8.57143C9.26237 8.57143 10.2857 7.54808 10.2857 6.28571C10.2857 5.02335 9.26237 4 8 4C6.73764 4 5.71429 5.02335 5.71429 6.28571C5.71429 7.54808 6.73764 8.57143 8 8.57143Z" stroke="#0D121C" stroke-linecap="round" stroke-linejoin="round"/>
</svg>
