<svg width="16" height="16" viewBox="0 0 16 16" fill="none" xmlns="http://www.w3.org/2000/svg">
<path d="M8 9.71428V15.4286M8 9.71428L2.85715 15.4286M8 9.71428L13.1429 15.4286" stroke="#0D121C" stroke-linecap="round" stroke-linejoin="round"/>
<path d="M13.1429 0.571426H2.85714C2.22596 0.571426 1.71429 1.0831 1.71429 1.71428V8.57143C1.71429 9.20261 2.22596 9.71428 2.85714 9.71428H13.1429C13.774 9.71428 14.2857 9.20261 14.2857 8.57143V1.71428C14.2857 1.0831 13.774 0.571426 13.1429 0.571426Z" stroke="#0D121C" stroke-linecap="round" stroke-linejoin="round"/>
<path d="M8 6.85715C8.94677 6.85715 9.71428 6.08963 9.71428 5.14286C9.71428 4.19609 8.94677 3.42857 8 3.42857C7.05323 3.42857 6.28571 4.19609 6.28571 5.14286C6.28571 6.08963 7.05323 6.85715 8 6.85715Z" stroke="#0D121C" stroke-linecap="round" stroke-linejoin="round"/>
</svg>
