<svg width="16" height="16" viewBox="0 0 16 16" fill="none" xmlns="http://www.w3.org/2000/svg">
<path d="M14.64 12.8C14.7232 12.8422 14.8153 12.8641 14.9086 12.8641C15.0019 12.8641 15.0939 12.8422 15.1771 12.8C15.2546 12.7488 15.3181 12.6792 15.362 12.5975C15.4059 12.5157 15.4288 12.4242 15.4286 12.3314V3.72571C15.4288 3.63289 15.4059 3.54147 15.362 3.45967C15.3181 3.37788 15.2546 3.30828 15.1771 3.25714C15.0985 3.20586 15.0088 3.17394 14.9154 3.16401C14.8221 3.15408 14.7277 3.16641 14.64 3.19999C12.5431 4.10441 10.2836 4.57092 8 4.57092C5.7164 4.57092 3.45687 4.10441 1.36 3.19999C1.27232 3.16641 1.17793 3.15408 1.08456 3.16401C0.991194 3.17394 0.901509 3.20586 0.822856 3.25714C0.745396 3.30828 0.681865 3.37788 0.637977 3.45967C0.594088 3.54147 0.57122 3.63289 0.571428 3.72571V12.2743C0.57122 12.3671 0.594088 12.4585 0.637977 12.5403C0.681865 12.6221 0.745396 12.6917 0.822856 12.7429C0.906102 12.785 0.998109 12.807 1.09143 12.807C1.18475 12.807 1.27675 12.785 1.36 12.7429C3.46076 11.8475 5.7223 11.3907 8.0059 11.4005C10.2895 11.4103 12.547 11.8866 14.64 12.8Z" stroke="#0D121C" stroke-linecap="round" stroke-linejoin="round"/>
</svg>
