<svg width="16" height="16" viewBox="0 0 16 16" fill="none" xmlns="http://www.w3.org/2000/svg">
<path d="M4.85714 0.571426L2.28571 6.64C2.25015 6.72657 2.23639 6.82055 2.24565 6.91368C2.25491 7.00681 2.2869 7.09625 2.33882 7.17412C2.39073 7.25199 2.46098 7.31592 2.54339 7.36029C2.62579 7.40466 2.71784 7.4281 2.81143 7.42857H6L3.71428 15.4286L13.5314 6.12571C13.613 6.04713 13.6693 5.9461 13.6934 5.83543C13.7174 5.72476 13.708 5.60945 13.6663 5.50414C13.6247 5.39882 13.5527 5.30826 13.4595 5.24393C13.3663 5.17961 13.2561 5.14443 13.1429 5.14285H8.85714L11.1429 0.571426H4.85714Z" stroke="#0D121C" stroke-linecap="round" stroke-linejoin="round"/>
</svg>
