<svg width="16" height="16" viewBox="0 0 16 16" fill="none" xmlns="http://www.w3.org/2000/svg">
<path d="M1.71429 15.4286L14.2857 15.4286C14.9169 15.4286 15.4286 14.9169 15.4286 14.2857L15.4286 1.71428C15.4286 1.0831 14.9169 0.571424 14.2857 0.571424L1.71429 0.571424C1.0831 0.571424 0.57143 1.0831 0.57143 1.71428L0.57143 14.2857C0.57143 14.9169 1.0831 15.4286 1.71429 15.4286Z" stroke="#0D121C" stroke-linecap="round" stroke-linejoin="round"/>
<path d="M8 10.8571C8.90931 10.8571 9.78138 10.4959 10.4244 9.85293C11.0673 9.20995 11.4286 8.33788 11.4286 7.42856V4.92571C11.4288 4.8286 11.4042 4.73304 11.3572 4.64805C11.3102 4.56307 11.2424 4.49146 11.16 4.43999C11.0776 4.38852 10.9835 4.35889 10.8866 4.35389C10.7896 4.34889 10.6929 4.36869 10.6057 4.41142L8 5.71428L5.39429 4.41142C5.30708 4.36869 5.21042 4.34889 5.11344 4.35389C5.01646 4.35889 4.92235 4.38852 4.84 4.43999C4.75765 4.49146 4.68977 4.56307 4.64278 4.64805C4.59579 4.73304 4.57123 4.8286 4.57143 4.92571V7.42856C4.57143 8.33788 4.93265 9.20995 5.57563 9.85293C6.21862 10.4959 7.09069 10.8571 8 10.8571ZM8 10.8571V15.4286M8 15.4286L10.8571 12.5714M8 15.4286L5.14286 12.5714" stroke="#0D121C" stroke-linecap="round" stroke-linejoin="round"/>
</svg>
