<svg width="16" height="16" viewBox="0 0 16 16" fill="none" xmlns="http://www.w3.org/2000/svg">
<path d="M1.72571 15.4286L14.2971 15.4286C14.9283 15.4286 15.44 14.9169 15.44 14.2857L15.44 1.71428C15.44 1.0831 14.9283 0.571424 14.2971 0.571424L1.72571 0.571424C1.09453 0.571424 0.582853 1.0831 0.582853 1.71428L0.582853 14.2857C0.582853 14.9169 1.09453 15.4286 1.72571 15.4286Z" stroke="#0D121C" stroke-linecap="round" stroke-linejoin="round"/>
<path d="M10.5714 7.42857C11.676 7.42857 12.5714 6.53314 12.5714 5.42857C12.5714 4.324 11.676 3.42857 10.5714 3.42857C9.46686 3.42857 8.57143 4.324 8.57143 5.42857C8.57143 6.53314 9.46686 7.42857 10.5714 7.42857Z" stroke="#0D121C" stroke-linecap="round" stroke-linejoin="round"/>
<path d="M10.7429 15.4286C10.3749 13.4686 9.32245 11.7031 7.77341 10.4471C6.22436 9.1911 4.27945 8.52634 2.28571 8.57143C1.71048 8.56989 1.13643 8.62347 0.571426 8.73143" stroke="#0D121C" stroke-linecap="round" stroke-linejoin="round"/>
<path d="M15.4286 11.3257C14.5081 11.0149 13.543 10.8566 12.5714 10.8571C11.3416 10.8545 10.1243 11.1034 8.99429 11.5886" stroke="#0D121C" stroke-linecap="round" stroke-linejoin="round"/>
</svg>
