<svg width="16" height="16" viewBox="0 0 16 16" fill="none" xmlns="http://www.w3.org/2000/svg">
<path d="M4.57143 14.2857L14.2857 14.2857C14.9169 14.2857 15.4286 13.774 15.4286 13.1428L15.4286 5.71428C15.4286 5.08309 14.9169 4.57142 14.2857 4.57142L4.57143 4.57142C3.94025 4.57142 3.42857 5.08309 3.42857 5.71428L3.42857 13.1428C3.42857 13.774 3.94025 14.2857 4.57143 14.2857Z" stroke="#0D121C" stroke-linecap="round" stroke-linejoin="round"/>
<path d="M0.57143 11.4286V2.85714C0.57143 2.55403 0.691838 2.26334 0.906165 2.04901C1.12049 1.83469 1.41118 1.71428 1.71429 1.71428H12M4.11429 14.1943L8.60572 9.45142C8.71195 9.33469 8.8412 9.24122 8.98534 9.17691C9.12948 9.1126 9.28538 9.07885 9.44321 9.07777C9.60105 9.0767 9.75739 9.10833 9.90239 9.17067C10.0474 9.23301 10.1779 9.32471 10.2857 9.43999L14.8 14.1714" stroke="#0D121C" stroke-linecap="round" stroke-linejoin="round"/>
</svg>
