<svg width="16" height="16" viewBox="0 0 16 16" fill="none" xmlns="http://www.w3.org/2000/svg">
<path d="M1.71428 15.4286L14.2857 15.4286C14.9169 15.4286 15.4286 14.9169 15.4286 14.2857L15.4286 1.71428C15.4286 1.0831 14.9169 0.571424 14.2857 0.571424L1.71428 0.571424C1.0831 0.571424 0.571424 1.0831 0.571424 1.71428L0.571424 14.2857C0.571424 14.9169 1.0831 15.4286 1.71428 15.4286Z" stroke="#0D121C" stroke-linecap="round" stroke-linejoin="round"/>
<path d="M0.571426 12.5714H15.4286M4.38857 12.5714L10.3429 6.99428C10.4455 6.90876 10.5749 6.86192 10.7086 6.86192C10.8422 6.86192 10.9716 6.90876 11.0743 6.99428L15.4286 10.1143" stroke="#0D121C" stroke-linecap="round" stroke-linejoin="round"/>
<path d="M5.14285 6.85715C6.08963 6.85715 6.85714 6.08963 6.85714 5.14286C6.85714 4.19609 6.08963 3.42857 5.14285 3.42857C4.19608 3.42857 3.42857 4.19609 3.42857 5.14286C3.42857 6.08963 4.19608 6.85715 5.14285 6.85715Z" stroke="#0D121C" stroke-linecap="round" stroke-linejoin="round"/>
</svg>
