<svg width="16" height="16" viewBox="0 0 16 16" fill="none" xmlns="http://www.w3.org/2000/svg">
<path d="M5.71428 0.571426H1.14286C0.827264 0.571426 0.571426 0.827264 0.571426 1.14286V5.71428C0.571426 6.02988 0.827264 6.28571 1.14286 6.28571H5.71428C6.02988 6.28571 6.28571 6.02988 6.28571 5.71428V1.14286C6.28571 0.827264 6.02988 0.571426 5.71428 0.571426Z" stroke="#0D121C" stroke-linecap="round" stroke-linejoin="round"/>
<path d="M14.8571 0.571426H10.2857C9.97012 0.571426 9.71429 0.827264 9.71429 1.14286V5.71428C9.71429 6.02988 9.97012 6.28571 10.2857 6.28571H14.8571C15.1727 6.28571 15.4286 6.02988 15.4286 5.71428V1.14286C15.4286 0.827264 15.1727 0.571426 14.8571 0.571426Z" stroke="#0D121C" stroke-linecap="round" stroke-linejoin="round"/>
<path d="M5.71428 9.71429H1.14286C0.827264 9.71429 0.571426 9.97012 0.571426 10.2857V14.8571C0.571426 15.1727 0.827264 15.4286 1.14286 15.4286H5.71428C6.02988 15.4286 6.28571 15.1727 6.28571 14.8571V10.2857C6.28571 9.97012 6.02988 9.71429 5.71428 9.71429Z" stroke="#0D121C" stroke-linecap="round" stroke-linejoin="round"/>
<path d="M14.8571 9.71429H10.2857C9.97012 9.71429 9.71429 9.97012 9.71429 10.2857V14.8571C9.71429 15.1727 9.97012 15.4286 10.2857 15.4286H14.8571C15.1727 15.4286 15.4286 15.1727 15.4286 14.8571V10.2857C15.4286 9.97012 15.1727 9.71429 14.8571 9.71429Z" stroke="#0D121C" stroke-linecap="round" stroke-linejoin="round"/>
</svg>
