<svg width="16" height="16" viewBox="0 0 16 16" fill="none" xmlns="http://www.w3.org/2000/svg">
<path d="M12.8 1.36C12.8422 1.27676 12.8641 1.18475 12.8641 1.09143C12.8641 0.998114 12.8422 0.906107 12.8 0.822862C12.7439 0.736741 12.6651 0.667727 12.5724 0.623378C12.4797 0.57903 12.3765 0.561058 12.2743 0.571433H3.72571C3.63289 0.571225 3.54147 0.594094 3.45967 0.637982C3.37788 0.68187 3.30828 0.745402 3.25714 0.822862C3.20586 0.901515 3.17394 0.991199 3.16401 1.08457C3.15408 1.17793 3.16641 1.27232 3.19999 1.36C4.10441 3.45688 4.57092 5.7164 4.57092 8C4.57092 10.2836 4.10441 12.5431 3.19999 14.64C3.16641 14.7277 3.15408 14.8221 3.16401 14.9154C3.17394 15.0088 3.20586 15.0985 3.25714 15.1771C3.30828 15.2546 3.37788 15.3181 3.45967 15.362C3.54147 15.4059 3.63289 15.4288 3.72571 15.4286H12.2743C12.3671 15.4288 12.4585 15.4059 12.5403 15.362C12.6221 15.3181 12.6917 15.2546 12.7429 15.1771C12.785 15.0939 12.807 15.0019 12.807 14.9086C12.807 14.8153 12.785 14.7233 12.7429 14.64C11.8475 12.5392 11.3907 10.2777 11.4005 7.99411C11.4103 5.7105 11.8866 3.45298 12.8 1.36Z" stroke="#0D121C" stroke-linecap="round" stroke-linejoin="round"/>
</svg>
