<svg width="16" height="16" viewBox="0 0 16 16" fill="none" xmlns="http://www.w3.org/2000/svg">
<path d="M6 0.571426H1.14286C0.827267 0.571426 0.57143 0.827264 0.57143 1.14285V6C0.57143 6.31559 0.827267 6.57143 1.14286 6.57143H6C6.31559 6.57143 6.57143 6.31559 6.57143 6V1.14285C6.57143 0.827264 6.31559 0.571426 6 0.571426Z" stroke="#0D121C" stroke-linecap="round" stroke-linejoin="round"/>
<path d="M14.8571 0.571426H10C9.68441 0.571426 9.42857 0.827264 9.42857 1.14285V6C9.42857 6.31559 9.68441 6.57143 10 6.57143H14.8571C15.1727 6.57143 15.4286 6.31559 15.4286 6V1.14285C15.4286 0.827264 15.1727 0.571426 14.8571 0.571426Z" stroke="#0D121C" stroke-linecap="round" stroke-linejoin="round"/>
<path d="M6 9.42857H1.14286C0.827267 9.42857 0.57143 9.6844 0.57143 9.99999V14.8571C0.57143 15.1727 0.827267 15.4286 1.14286 15.4286H6C6.31559 15.4286 6.57143 15.1727 6.57143 14.8571V9.99999C6.57143 9.6844 6.31559 9.42857 6 9.42857Z" stroke="#0D121C" stroke-linecap="round" stroke-linejoin="round"/>
<path d="M14.8571 9.42857H10C9.68441 9.42857 9.42857 9.6844 9.42857 9.99999V14.8571C9.42857 15.1727 9.68441 15.4286 10 15.4286H14.8571C15.1727 15.4286 15.4286 15.1727 15.4286 14.8571V9.99999C15.4286 9.6844 15.1727 9.42857 14.8571 9.42857Z" stroke="#0D121C" stroke-linecap="round" stroke-linejoin="round"/>
<path d="M0.57143 4H6.57143M9.42857 4H15.4286M9.42857 12.8571H15.4286M0.57143 12.8571H6.57143" stroke="#0D121C" stroke-linecap="round" stroke-linejoin="round"/>
</svg>
