<svg width="16" height="16" viewBox="0 0 16 16" fill="none" xmlns="http://www.w3.org/2000/svg">
<path d="M1.71429 10.8571L9.71429 10.8571C10.3455 10.8571 10.8571 10.3455 10.8571 9.71428L10.8571 1.71428C10.8571 1.0831 10.3455 0.571426 9.71429 0.571426L1.71429 0.571426C1.0831 0.571426 0.57143 1.0831 0.57143 1.71428L0.57143 9.71428C0.57143 10.3455 1.0831 10.8571 1.71429 10.8571Z" stroke="#0D121C" stroke-linecap="round" stroke-linejoin="round"/>
<path d="M13.7143 5.37143L14.6057 5.65714C14.7495 5.70369 14.8827 5.7783 14.9975 5.87666C15.1123 5.97502 15.2064 6.09518 15.2744 6.23017C15.3425 6.36516 15.383 6.51231 15.3938 6.66309C15.4046 6.81387 15.3853 6.96528 15.3371 7.10857L12.8457 14.64C12.7516 14.9278 12.547 15.1665 12.277 15.3037C12.0071 15.4408 11.6937 15.4652 11.4057 15.3714L6.35429 13.7143M0.571428 8H10.8571" stroke="#0D121C" stroke-linecap="round" stroke-linejoin="round"/>
</svg>
