<svg width="16" height="16" viewBox="0 0 16 16" fill="none" xmlns="http://www.w3.org/2000/svg">
<path d="M14.2857 4.28572H1.71429C1.0831 4.28572 0.57143 4.7974 0.57143 5.42858V13.4286C0.57143 14.0598 1.0831 14.5714 1.71429 14.5714H14.2857C14.9169 14.5714 15.4286 14.0598 15.4286 13.4286V5.42858C15.4286 4.7974 14.9169 4.28572 14.2857 4.28572Z" stroke="#0D121C" stroke-linecap="round" stroke-linejoin="round"/>
<path d="M8 11.7143C9.26237 11.7143 10.2857 10.6909 10.2857 9.42857C10.2857 8.1662 9.26237 7.14285 8 7.14285C6.73764 7.14285 5.71429 8.1662 5.71429 9.42857C5.71429 10.6909 6.73764 11.7143 8 11.7143Z" stroke="#0D121C" stroke-linecap="round" stroke-linejoin="round"/>
<path d="M10.8571 4.28572V2.57143C10.8571 2.26833 10.7367 1.97764 10.5224 1.76331C10.3081 1.54898 10.0174 1.42857 9.71429 1.42857H6.28572C5.98261 1.42857 5.69192 1.54898 5.4776 1.76331C5.26327 1.97764 5.14286 2.26833 5.14286 2.57143V4.28572" stroke="#0D121C" stroke-linecap="round" stroke-linejoin="round"/>
</svg>
