<svg width="16" height="16" viewBox="0 0 16 16" fill="none" xmlns="http://www.w3.org/2000/svg">
<g clip-path="url(#clip0_1_3191)">
<path d="M6 5.99999C6.00007 5.63334 6.10093 5.27376 6.29155 4.96056C6.48217 4.64736 6.75522 4.39259 7.08085 4.22409C7.40649 4.05559 7.77218 3.97984 8.13795 4.00513C8.50373 4.03042 8.85551 4.15577 9.15486 4.36748C9.4542 4.5792 9.68959 4.86912 9.8353 5.20558C9.981 5.54203 10.0314 5.91206 9.98102 6.27523C9.93063 6.6384 9.78138 6.98073 9.54958 7.26481C9.31778 7.54888 9.01235 7.76377 8.66667 7.88599C8.47161 7.95495 8.30275 8.08271 8.18335 8.25166C8.06395 8.42061 7.99989 8.62243 8 8.82932V9.49999" stroke="#0D121C" stroke-linecap="round" stroke-linejoin="round"/>
<path d="M8 12C7.9337 12 7.87011 11.9737 7.82322 11.9268C7.77634 11.8799 7.75 11.8163 7.75 11.75C7.75 11.6837 7.77634 11.6201 7.82322 11.5732C7.87011 11.5263 7.9337 11.5 8 11.5" stroke="#0D121C"/>
<path d="M8 12C8.0663 12 8.12989 11.9737 8.17678 11.9268C8.22366 11.8799 8.25 11.8163 8.25 11.75C8.25 11.6837 8.22366 11.6201 8.17678 11.5732C8.12989 11.5263 8.0663 11.5 8 11.5" stroke="#0D121C"/>
<path d="M8 15.5C12.142 15.5 15.5 12.142 15.5 8C15.5 3.858 12.142 0.5 8 0.5C3.858 0.5 0.5 3.858 0.5 8C0.5 12.142 3.858 15.5 8 15.5Z" stroke="#0D121C" stroke-miterlimit="10"/>
</g>
<defs>
<clipPath id="clip0_1_3191">
<rect width="16" height="16" fill="white"/>
</clipPath>
</defs>
</svg>
