<svg width="16" height="16" viewBox="0 0 16 16" fill="none" xmlns="http://www.w3.org/2000/svg">
<path d="M9.71429 7.42857H10.8571V12.5714M9.71429 12.5714H12" stroke="#0D121C" stroke-linecap="round" stroke-linejoin="round"/>
<path d="M1.71429 2.85714C1.41118 2.85714 1.12049 2.97755 0.906165 3.19188C0.691838 3.4062 0.57143 3.69689 0.57143 4V14.2857C0.57143 14.5888 0.691838 14.8795 0.906165 15.0938C1.12049 15.3082 1.41118 15.4286 1.71429 15.4286H14.2857C14.5888 15.4286 14.8795 15.3082 15.0938 15.0938C15.3082 14.8795 15.4286 14.5888 15.4286 14.2857V4C15.4286 3.69689 15.3082 3.4062 15.0938 3.19188C14.8795 2.97755 14.5888 2.85714 14.2857 2.85714H12M4 0.571426V5.14285M12 0.571426V5.14285M4 2.85714H9.71429" stroke="#0D121C" stroke-linecap="round" stroke-linejoin="round"/>
<path d="M4 7.42857H6.85714L5.14286 9.71429C5.14286 9.71429 6.85714 9.71429 6.85714 10.8571C6.88939 11.0898 6.86728 11.3268 6.79253 11.5495C6.71778 11.7722 6.59244 11.9745 6.42634 12.1406C6.26024 12.3067 6.0579 12.4321 5.83521 12.5068C5.61252 12.5816 5.37553 12.6037 5.14286 12.5714H4" stroke="#0D121C" stroke-linecap="round" stroke-linejoin="round"/>
</svg>
