<svg width="16" height="16" viewBox="0 0 16 16" fill="none" xmlns="http://www.w3.org/2000/svg">
<path d="M15.4286 15.4286H0.571426" stroke="#0D121C" stroke-linecap="round" stroke-linejoin="round"/>
<path d="M9.71429 6.28571V11.4286C9.71429 12.0598 10.226 12.5714 10.8571 12.5714H13.1429C13.774 12.5714 14.2857 12.0598 14.2857 11.4286V6.28571C14.2857 5.65453 13.774 5.14286 13.1429 5.14286H10.8571C10.226 5.14286 9.71429 5.65453 9.71429 6.28571Z" stroke="#0D121C" stroke-linecap="round" stroke-linejoin="round"/>
<path d="M1.71429 1.71428L1.71429 11.4286C1.71429 12.0598 2.22596 12.5714 2.85714 12.5714H5.14286C5.77404 12.5714 6.28572 12.0598 6.28572 11.4286L6.28572 1.71428C6.28572 1.0831 5.77404 0.571425 5.14286 0.571425H2.85714C2.22596 0.571425 1.71429 1.0831 1.71429 1.71428Z" stroke="#0D121C" stroke-linecap="round" stroke-linejoin="round"/>
</svg>
