<svg width="16" height="16" viewBox="0 0 16 16" fill="none" xmlns="http://www.w3.org/2000/svg">
<path d="M12.5714 10.2857L14.8571 9.71428L15.4286 12" stroke="#0D121C" stroke-linecap="round" stroke-linejoin="round"/>
<path d="M14.8571 9.71429C14.3712 11.1661 13.4549 12.4357 12.2301 13.3544C11.0052 14.273 9.52986 14.7971 8 14.8571C6.59213 14.8574 5.21831 14.4243 4.06513 13.6167C2.91195 12.809 2.03531 11.666 1.55429 10.3429M3.42857 5.71429L1.14286 6.28571L0.57143 4" stroke="#0D121C" stroke-linecap="round" stroke-linejoin="round"/>
<path d="M1.14286 6.28571C1.65436 4.84974 2.57746 3.59623 3.79694 2.68162C5.01641 1.76702 6.47826 1.23183 8 1.14285C9.41473 1.14683 10.7936 1.58829 11.9476 2.40671C13.1016 3.22513 13.9741 4.38045 14.4457 5.71428M8 4V8.57142" stroke="#0D121C" stroke-linecap="round" stroke-linejoin="round"/>
<path d="M8 12C8.31559 12 8.57143 11.7442 8.57143 11.4286C8.57143 11.113 8.31559 10.8571 8 10.8571C7.68441 10.8571 7.42857 11.113 7.42857 11.4286C7.42857 11.7442 7.68441 12 8 12Z" stroke="#0D121C" stroke-linecap="round" stroke-linejoin="round"/>
</svg>
