<svg width="16" height="16" viewBox="0 0 16 16" fill="none" xmlns="http://www.w3.org/2000/svg">
<path d="M2.57143 5.82857L7.70285 0.697141C7.74126 0.657039 7.78739 0.625126 7.83845 0.603324C7.88952 0.581522 7.94447 0.570282 8 0.570282C8.05552 0.570282 8.11048 0.581522 8.16154 0.603324C8.21261 0.625126 8.25874 0.657039 8.29714 0.697141L13.4286 5.82857M2.57143 10.1714L7.70285 15.3029C7.74126 15.343 7.78739 15.3749 7.83845 15.3967C7.88952 15.4185 7.94447 15.4297 8 15.4297C8.05552 15.4297 8.11048 15.4185 8.16154 15.3967C8.21261 15.3749 8.25874 15.343 8.29714 15.3029L13.4286 10.1714" stroke="#0D121C" stroke-linecap="round" stroke-linejoin="round"/>
</svg>
