<svg width="16" height="16" viewBox="0 0 16 16" fill="none" xmlns="http://www.w3.org/2000/svg">
<path d="M14.2857 1.71429H7.42857C6.79739 1.71429 6.28571 2.22596 6.28571 2.85714V7.42857C6.28571 8.05976 6.79739 8.57143 7.42857 8.57143H14.2857C14.9169 8.57143 15.4286 8.05976 15.4286 7.42857V2.85714C15.4286 2.22596 14.9169 1.71429 14.2857 1.71429Z" stroke="#0D121C" stroke-linecap="round" stroke-linejoin="round"/>
<path d="M12.5714 11.4286H4.57142C4.26832 11.4286 3.97763 11.3082 3.7633 11.0938C3.54897 10.8795 3.42857 10.5888 3.42857 10.2857V4.57143" stroke="#0D121C" stroke-linecap="round" stroke-linejoin="round"/>
<path d="M10.2857 14.2857H1.71428C1.41118 14.2857 1.12049 14.1653 0.906162 13.951C0.691834 13.7367 0.571426 13.446 0.571426 13.1429V6.85715" stroke="#0D121C" stroke-linecap="round" stroke-linejoin="round"/>
</svg>
