<svg width="16" height="16" viewBox="0 0 16 16" fill="none" xmlns="http://www.w3.org/2000/svg">
<path d="M0.571426 0.571426V15.4286" stroke="#0D121C" stroke-linecap="round" stroke-linejoin="round"/>
<path d="M9.71429 1.71429H4.57143C3.94025 1.71429 3.42857 2.22596 3.42857 2.85714V5.14286C3.42857 5.77404 3.94025 6.28572 4.57143 6.28572H9.71429C10.3455 6.28572 10.8571 5.77404 10.8571 5.14286V2.85714C10.8571 2.22596 10.3455 1.71429 9.71429 1.71429Z" stroke="#0D121C" stroke-linecap="round" stroke-linejoin="round"/>
<path d="M14.2857 9.71428H4.57143C3.94025 9.71428 3.42857 10.226 3.42857 10.8571V13.1429C3.42857 13.774 3.94025 14.2857 4.57143 14.2857H14.2857C14.9169 14.2857 15.4286 13.774 15.4286 13.1429V10.8571C15.4286 10.226 14.9169 9.71428 14.2857 9.71428Z" stroke="#0D121C" stroke-linecap="round" stroke-linejoin="round"/>
</svg>
