<svg width="16" height="16" viewBox="0 0 16 16" fill="none" xmlns="http://www.w3.org/2000/svg">
<path d="M15.4286 0.571426H0.571428" stroke="#0D121C" stroke-linecap="round" stroke-linejoin="round"/>
<path d="M14.2857 9.71428V4.57142C14.2857 3.94024 13.774 3.42857 13.1429 3.42857H10.8571C10.226 3.42857 9.71429 3.94024 9.71429 4.57142V9.71428C9.71429 10.3455 10.226 10.8571 10.8571 10.8571H13.1429C13.774 10.8571 14.2857 10.3455 14.2857 9.71428Z" stroke="#0D121C" stroke-linecap="round" stroke-linejoin="round"/>
<path d="M6.28572 14.2857L6.28572 4.57142C6.28572 3.94024 5.77404 3.42857 5.14286 3.42857H2.85714C2.22596 3.42857 1.71429 3.94024 1.71429 4.57142L1.71429 14.2857C1.71429 14.9169 2.22596 15.4286 2.85714 15.4286H5.14286C5.77404 15.4286 6.28572 14.9169 6.28572 14.2857Z" stroke="#0D121C" stroke-linecap="round" stroke-linejoin="round"/>
</svg>
