<svg width="16" height="16" viewBox="0 0 16 16" fill="none" xmlns="http://www.w3.org/2000/svg">
<path d="M15.4286 0.571426V15.4286" stroke="#0D121C" stroke-linecap="round" stroke-linejoin="round"/>
<path d="M6.28571 6.28571L11.4286 6.28571C12.0598 6.28571 12.5714 5.77404 12.5714 5.14286V2.85714C12.5714 2.22596 12.0598 1.71428 11.4286 1.71428L6.28571 1.71428C5.65453 1.71428 5.14286 2.22596 5.14286 2.85714V5.14286C5.14286 5.77404 5.65453 6.28571 6.28571 6.28571Z" stroke="#0D121C" stroke-linecap="round" stroke-linejoin="round"/>
<path d="M1.71428 14.2857L11.4286 14.2857C12.0598 14.2857 12.5714 13.774 12.5714 13.1429V10.8571C12.5714 10.226 12.0598 9.71428 11.4286 9.71428H1.71428C1.0831 9.71428 0.571425 10.226 0.571425 10.8571V13.1429C0.571425 13.774 1.0831 14.2857 1.71428 14.2857Z" stroke="#0D121C" stroke-linecap="round" stroke-linejoin="round"/>
</svg>
