<svg width="16" height="16" viewBox="0 0 16 16" fill="none" xmlns="http://www.w3.org/2000/svg">
<path d="M8 4V7.42857" stroke="#0D121C" stroke-linecap="round" stroke-linejoin="round"/>
<path d="M7.99999 11.4286C8.31559 11.4286 8.57142 11.1727 8.57142 10.8571C8.57142 10.5416 8.31559 10.2857 7.99999 10.2857C7.6844 10.2857 7.42857 10.5416 7.42857 10.8571C7.42857 11.1727 7.6844 11.4286 7.99999 11.4286Z" stroke="#0D121C" stroke-linecap="round" stroke-linejoin="round"/>
<path d="M7.13531 0.928933L0.92893 7.13531C0.451375 7.61286 0.451375 8.38714 0.92893 8.86469L7.13531 15.0711C7.61286 15.5486 8.38713 15.5486 8.86469 15.0711L15.0711 8.86469C15.5486 8.38714 15.5486 7.61286 15.0711 7.13531L8.86469 0.928933C8.38713 0.451377 7.61286 0.451378 7.13531 0.928933Z" stroke="#0D121C" stroke-linecap="round" stroke-linejoin="round"/>
</svg>
