<svg width="16" height="16" viewBox="0 0 16 16" fill="none" xmlns="http://www.w3.org/2000/svg">
<path d="M1.71429 6.33142H14.2857V14.3314C14.2857 14.6345 14.1653 14.9252 13.951 15.1395C13.7367 15.3539 13.446 15.4743 13.1429 15.4743H2.85714C2.55404 15.4743 2.26335 15.3539 2.04902 15.1395C1.83469 14.9252 1.71429 14.6345 1.71429 14.3314V6.33142Z" stroke="#0D121C" stroke-linecap="round" stroke-linejoin="round"/>
<path d="M15.4286 5.18857V2.90285C15.4286 2.27167 14.9169 1.75999 14.2857 1.75999L1.71428 1.75999C1.0831 1.75999 0.571424 2.27167 0.571424 2.90285V5.18857C0.571424 5.81975 1.0831 6.33142 1.71428 6.33142L14.2857 6.33142C14.9169 6.33142 15.4286 5.81975 15.4286 5.18857Z" stroke="#0D121C" stroke-linecap="round" stroke-linejoin="round"/>
<path d="M6.28571 9.76001H9.71428" stroke="#0D121C" stroke-linecap="round" stroke-linejoin="round"/>
</svg>
