<svg width="16" height="16" viewBox="0 0 16 16" fill="none" xmlns="http://www.w3.org/2000/svg">
<path d="M5.14286 12L14.2857 12C14.9169 12 15.4286 11.4883 15.4286 10.8571L15.4286 1.71428C15.4286 1.0831 14.9169 0.571426 14.2857 0.571426L5.14286 0.571426C4.51167 0.571426 4 1.0831 4 1.71428L4 10.8571C4 11.4883 4.51167 12 5.14286 12Z" stroke="#0D121C" stroke-linecap="round" stroke-linejoin="round"/>
<path d="M12 15.4286H1.71429C1.41118 15.4286 1.12049 15.3082 0.906165 15.0938C0.691838 14.8795 0.57143 14.5888 0.57143 14.2857V4M8.57143 4H12M12 4V7.42857M12 4L7.42857 8.57143" stroke="#0D121C" stroke-linecap="round" stroke-linejoin="round"/>
</svg>
