<svg width="16" height="16" viewBox="0 0 16 16" fill="none" xmlns="http://www.w3.org/2000/svg">
<path d="M8 12.56C10.2091 12.56 12 10.7691 12 8.56001C12 6.35087 10.2091 4.56001 8 4.56001C5.79086 4.56001 4 6.35087 4 8.56001C4 10.7691 5.79086 12.56 8 12.56Z" stroke="#0D121C" stroke-linecap="round" stroke-linejoin="round"/>
<path d="M10.6857 1.49715C11.2156 2.0281 11.5762 2.70419 11.7219 3.43999C11.8677 4.1758 11.7921 4.93831 11.5047 5.63117C11.2173 6.32403 10.731 6.91616 10.1072 7.33273C9.48338 7.74931 8.75011 7.97165 8 7.97165C7.24989 7.97165 6.51661 7.74931 5.89282 7.33273C5.26902 6.91616 4.78269 6.32403 4.49528 5.63117C4.20787 4.93831 4.13228 4.1758 4.27805 3.43999C4.42383 2.70419 4.78442 2.0281 5.31429 1.49715" stroke="#0D121C" stroke-linecap="round" stroke-linejoin="round"/>
<path d="M0.571429 9.71429C0.766251 8.9899 1.17142 8.33952 1.73573 7.84532C2.30005 7.35111 2.99819 7.03527 3.74195 6.93769C4.4857 6.84011 5.24169 6.96518 5.91439 7.29709C6.58709 7.62901 7.14631 8.15287 7.52139 8.80248C7.89648 9.4521 8.07059 10.1983 8.02174 10.9469C7.97289 11.6954 7.70325 12.4126 7.24691 13.008C6.79057 13.6033 6.168 14.0501 5.45787 14.2917C4.74773 14.5334 3.9819 14.5591 3.25714 14.3657" stroke="#0D121C" stroke-linecap="round" stroke-linejoin="round"/>
<path d="M12.7429 14.3657C12.0181 14.5591 11.2523 14.5334 10.5421 14.2917C9.832 14.0501 9.20943 13.6033 8.75309 13.008C8.29675 12.4126 8.02711 11.6954 7.97826 10.9469C7.92941 10.1983 8.10352 9.4521 8.47861 8.80248C8.85369 8.15287 9.41291 7.62901 10.0856 7.29709C10.7583 6.96518 11.5143 6.84011 12.2581 6.93769C13.0018 7.03527 13.6999 7.35111 14.2643 7.84532C14.8286 8.33952 15.2337 8.9899 15.4286 9.71429" stroke="#0D121C" stroke-linecap="round" stroke-linejoin="round"/>
</svg>
