<svg width="16" height="16" viewBox="0 0 16 16" fill="none" xmlns="http://www.w3.org/2000/svg">
<path d="M6.85714 15.1429H9.14285M0.571426 6.42285C0.572042 5.33502 0.831466 4.26294 1.32827 3.29517C1.82507 2.3274 2.54499 1.49171 3.42857 0.85714M15.4286 6.42285C15.428 5.33502 15.1685 4.26294 14.6717 3.29517C14.1749 2.3274 13.455 1.49171 12.5714 0.85714M12.5714 6.57142C12.5714 5.35901 12.0898 4.19625 11.2325 3.33894C10.3752 2.48163 9.21242 2 8 2C6.78758 2 5.62482 2.48163 4.76751 3.33894C3.9102 4.19625 3.42857 5.35901 3.42857 6.57142V10.5714C3.42857 11.0261 3.24796 11.4621 2.92647 11.7836C2.60498 12.1051 2.16894 12.2857 1.71428 12.2857H14.2857C13.8311 12.2857 13.395 12.1051 13.0735 11.7836C12.752 11.4621 12.5714 11.0261 12.5714 10.5714V6.57142Z" stroke="#0D121C" stroke-linecap="round" stroke-linejoin="round"/>
</svg>
