<svg width="16" height="16" viewBox="0 0 16 16" fill="none" xmlns="http://www.w3.org/2000/svg">
<path d="M11.5771 3.97714L8.29714 0.697141C8.25874 0.657039 8.21261 0.625126 8.16154 0.603324C8.11048 0.581522 8.05553 0.570282 8 0.570282C7.94447 0.570282 7.88952 0.581522 7.83845 0.603324C7.78739 0.625126 7.74126 0.657039 7.70286 0.697141L4.42286 3.97714M11.5771 12.0229L8.29714 15.3029C8.25874 15.343 8.21261 15.3749 8.16154 15.3967C8.11048 15.4185 8.05553 15.4297 8 15.4297C7.94447 15.4297 7.88952 15.4185 7.83845 15.3967C7.78739 15.3749 7.74126 15.343 7.70286 15.3029L4.42286 12.0229" stroke="#0D121C" stroke-linecap="round" stroke-linejoin="round"/>
<path d="M8 9.42857C8.78898 9.42857 9.42857 8.78898 9.42857 8C9.42857 7.21102 8.78898 6.57143 8 6.57143C7.21102 6.57143 6.57143 7.21102 6.57143 8C6.57143 8.78898 7.21102 9.42857 8 9.42857Z" stroke="#0D121C" stroke-linecap="round" stroke-linejoin="round"/>
</svg>
