<svg width="16" height="16" viewBox="0 0 16 16" fill="none" xmlns="http://www.w3.org/2000/svg">
<path d="M12.5714 10.2857L14.8571 9.71428L15.4286 12" stroke="#0D121C" stroke-linecap="round" stroke-linejoin="round"/>
<path d="M14.8571 9.71429C14.3495 11.1527 13.4275 12.4087 12.2072 13.3239C10.9869 14.2391 9.52301 14.7726 8 14.8571C6.59213 14.8574 5.2183 14.4243 4.06512 13.6167C2.91194 12.809 2.03531 11.666 1.55428 10.3429M3.42857 5.71429L1.14285 6.28571L0.571426 4" stroke="#0D121C" stroke-linecap="round" stroke-linejoin="round"/>
<path d="M1.14285 6.28571C2.10285 3.65714 5.05142 1.14285 8 1.14285C9.41472 1.14683 10.7936 1.58829 11.9476 2.40671C13.1015 3.22513 13.9741 4.38045 14.4457 5.71428" stroke="#0D121C" stroke-linecap="round" stroke-linejoin="round"/>
</svg>
