<svg width="16" height="16" viewBox="0 0 16 16" fill="none" xmlns="http://www.w3.org/2000/svg">
<path d="M15.4286 12V5.14286C15.4286 4.51167 14.9169 4 14.2857 4H12C11.3688 4 10.8571 4.51167 10.8571 5.14286V12C10.8571 12.6312 11.3688 13.1429 12 13.1429H14.2857C14.9169 13.1429 15.4286 12.6312 15.4286 12Z" stroke="#0D121C" stroke-linecap="round" stroke-linejoin="round"/>
<path d="M5.14286 13.1429L5.14286 2.85714C5.14286 2.22596 4.63119 1.71429 4 1.71429L1.71429 1.71429C1.08311 1.71429 0.571432 2.22596 0.571432 2.85714L0.571432 13.1429C0.571432 13.774 1.08311 14.2857 1.71429 14.2857H4C4.63119 14.2857 5.14286 13.774 5.14286 13.1429Z" stroke="#0D121C" stroke-linecap="round" stroke-linejoin="round"/>
<path d="M10.8571 8H5.14286" stroke="#0D121C" stroke-linecap="round" stroke-linejoin="round"/>
</svg>
