<svg width="16" height="16" viewBox="0 0 16 16" fill="none" xmlns="http://www.w3.org/2000/svg">
<path d="M12.5714 0.571428L15.4286 3.42857H1.71428C1.41118 3.42857 1.12049 3.54898 0.906161 3.76331C0.691834 3.97763 0.571426 4.26832 0.571426 4.57143V6.85714C0.571426 7.16025 0.691834 7.45094 0.906161 7.66526C1.12049 7.87959 1.41118 8 1.71428 8H14.2857C14.5888 8 14.8795 8.12041 15.0938 8.33473C15.3082 8.54906 15.4286 8.83975 15.4286 9.14286V11.4286C15.4286 11.7317 15.3082 12.0224 15.0938 12.2367C14.8795 12.451 14.5888 12.5714 14.2857 12.5714H0.571426L3.42857 15.4286" stroke="#0D121C" stroke-linecap="round" stroke-linejoin="round"/>
</svg>
