<svg width="16" height="16" viewBox="0 0 16 16" fill="none" xmlns="http://www.w3.org/2000/svg">
<path d="M3.97714 4.42286L0.697141 7.70286C0.657039 7.74126 0.625126 7.78739 0.603324 7.83845C0.581522 7.88952 0.570282 7.94447 0.570282 8C0.570282 8.05552 0.581522 8.11048 0.603324 8.16154C0.625126 8.21261 0.657039 8.25874 0.697141 8.29714L3.97714 11.5771M12.0229 4.42286L15.3029 7.70286C15.343 7.74126 15.3749 7.78739 15.3967 7.83845C15.4185 7.88952 15.4297 7.94447 15.4297 8C15.4297 8.05552 15.4185 8.11048 15.3967 8.16154C15.3749 8.21261 15.343 8.25874 15.3029 8.29714L12.0229 11.5771" stroke="#0D121C" stroke-linecap="round" stroke-linejoin="round"/>
<path d="M8 9.42857C8.78898 9.42857 9.42857 8.78898 9.42857 8C9.42857 7.21102 8.78898 6.57143 8 6.57143C7.21102 6.57143 6.57143 7.21102 6.57143 8C6.57143 8.78898 7.21102 9.42857 8 9.42857Z" stroke="#0D121C" stroke-linecap="round" stroke-linejoin="round"/>
</svg>
