<svg width="16" height="16" viewBox="0 0 16 16" fill="none" xmlns="http://www.w3.org/2000/svg">
<path d="M1.71428 2.85714C1.41118 2.85714 1.12049 2.97755 0.906161 3.19188C0.691834 3.4062 0.571426 3.69689 0.571426 4V14.2857C0.571426 14.5888 0.691834 14.8795 0.906161 15.0938C1.12049 15.3082 1.41118 15.4286 1.71428 15.4286H14.2857C14.5888 15.4286 14.8795 15.3082 15.0938 15.0938C15.3082 14.8795 15.4286 14.5888 15.4286 14.2857V4C15.4286 3.69689 15.3082 3.4062 15.0938 3.19188C14.8795 2.97755 14.5888 2.85714 14.2857 2.85714H12M4 0.571426V5.14285M12 0.571426V5.14285M4 2.85714H9.71428" stroke="#0D121C" stroke-linecap="round" stroke-linejoin="round"/>
<path d="M8 13.1428C9.89355 13.1428 11.4286 11.6078 11.4286 9.71428C11.4286 7.82073 9.89355 6.28571 8 6.28571C6.10645 6.28571 4.57143 7.82073 4.57143 9.71428C4.57143 11.6078 6.10645 13.1428 8 13.1428Z" stroke="#0D121C" stroke-linecap="round" stroke-linejoin="round"/>
<path d="M5.57714 12.1371L10.4229 7.29143" stroke="#0D121C" stroke-linecap="round" stroke-linejoin="round"/>
</svg>
