<svg width="16" height="16" viewBox="0 0 16 16" fill="none" xmlns="http://www.w3.org/2000/svg">
<path d="M3.97714 4.42285L0.697143 7.70285C0.657041 7.74126 0.625128 7.78739 0.603326 7.83845C0.581523 7.88952 0.570284 7.94447 0.570284 8C0.570284 8.05552 0.581523 8.11048 0.603326 8.16154C0.625128 8.21261 0.657041 8.25874 0.697143 8.29714L3.97714 11.5771M12.0229 4.42285L15.3029 7.70285C15.343 7.74126 15.3749 7.78739 15.3967 7.83845C15.4185 7.88952 15.4297 7.94447 15.4297 8C15.4297 8.05552 15.4185 8.11048 15.3967 8.16154C15.3749 8.21261 15.343 8.25874 15.3029 8.29714L12.0229 11.5771M8 15.4286V0.571426" stroke="#0D121C" stroke-linecap="round" stroke-linejoin="round"/>
</svg>
