<svg width="16" height="16" viewBox="0 0 16 16" fill="none" xmlns="http://www.w3.org/2000/svg">
<path d="M15.4286 8.4L8.45714 11.6114C8.30825 11.6793 8.14651 11.7145 7.98285 11.7145C7.8192 11.7145 7.65746 11.6793 7.50857 11.6114L0.571426 8.4M15.4286 12.1143L8.45714 15.3257C8.30825 15.3936 8.14651 15.4288 7.98285 15.4288C7.8192 15.4288 7.65746 15.3936 7.50857 15.3257L0.571426 12.1143M8.53714 7.88572C8.36763 7.95933 8.1848 7.99731 8 7.99731C7.8152 7.99731 7.63237 7.95933 7.46285 7.88572L0.948569 4.86858C0.842788 4.81522 0.753892 4.73355 0.691783 4.63266C0.629673 4.53177 0.596787 4.41562 0.596787 4.29715C0.596787 4.17867 0.629673 4.06252 0.691783 3.96163C0.753892 3.86074 0.842788 3.77907 0.948569 3.72572L7.46285 0.685717C7.63237 0.61211 7.8152 0.574127 8 0.574127C8.1848 0.574127 8.36763 0.61211 8.53714 0.685717L15.0514 3.70286C15.1572 3.75621 15.2461 3.83788 15.3082 3.93877C15.3703 4.03966 15.4032 4.15581 15.4032 4.27429C15.4032 4.39276 15.3703 4.50891 15.3082 4.6098C15.2461 4.71069 15.1572 4.79236 15.0514 4.84572L8.53714 7.88572Z" stroke="#0D121C" stroke-linecap="round" stroke-linejoin="round"/>
</svg>
