<svg width="16" height="16" viewBox="0 0 16 16" fill="none" xmlns="http://www.w3.org/2000/svg">
<path d="M3.42857 0.571428L0.571426 3.42857H14.2857C14.5888 3.42857 14.8795 3.54898 15.0938 3.76331C15.3082 3.97763 15.4286 4.26832 15.4286 4.57143V6.85714C15.4286 7.16025 15.3082 7.45094 15.0938 7.66526C14.8795 7.87959 14.5888 8 14.2857 8H1.71428C1.41118 8 1.12049 8.12041 0.906161 8.33473C0.691834 8.54906 0.571426 8.83975 0.571426 9.14286V11.4286C0.571426 11.7317 0.691834 12.0224 0.906161 12.2367C1.12049 12.451 1.41118 12.5714 1.71428 12.5714H15.4286L12.5714 15.4286" stroke="#0D121C" stroke-linecap="round" stroke-linejoin="round"/>
</svg>
