<svg width="16" height="16" viewBox="0 0 16 16" fill="none" xmlns="http://www.w3.org/2000/svg">
<path d="M15.4286 7.42857C15.4286 7.12546 15.3082 6.83477 15.0938 6.62045C14.8795 6.40612 14.5888 6.28571 14.2857 6.28571H9.71428V1.71428C9.71428 1.41118 9.59387 1.12049 9.37955 0.906161C9.16522 0.691834 8.87453 0.571426 8.57143 0.571426H7.42857C7.12546 0.571426 6.83477 0.691834 6.62045 0.906161C6.40612 1.12049 6.28571 1.41118 6.28571 1.71428V6.28571H1.71428C1.41118 6.28571 1.12049 6.40612 0.906161 6.62045C0.691834 6.83477 0.571426 7.12546 0.571426 7.42857V8.57143C0.571426 8.87453 0.691834 9.16522 0.906161 9.37955C1.12049 9.59387 1.41118 9.71428 1.71428 9.71428H6.28571V14.2857C6.28571 14.5888 6.40612 14.8795 6.62045 15.0938C6.83477 15.3082 7.12546 15.4286 7.42857 15.4286H8.57143C8.87453 15.4286 9.16522 15.3082 9.37955 15.0938C9.59387 14.8795 9.71428 14.5888 9.71428 14.2857V9.71428H14.2857C14.5888 9.71428 14.8795 9.59387 15.0938 9.37955C15.3082 9.16522 15.4286 8.87453 15.4286 8.57143V7.42857Z" stroke="#0D121C" stroke-linecap="round" stroke-linejoin="round"/>
</svg>
