<svg width="16" height="16" viewBox="0 0 16 16" fill="none" xmlns="http://www.w3.org/2000/svg">
<path d="M8 5.71429V9.14286" stroke="#0D121C" stroke-linecap="round" stroke-linejoin="round"/>
<path d="M8 13.1429C8.31559 13.1429 8.57143 12.887 8.57143 12.5714C8.57143 12.2558 8.31559 12 8 12C7.68441 12 7.42857 12.2558 7.42857 12.5714C7.42857 12.887 7.68441 13.1429 8 13.1429Z" stroke="#0D121C" stroke-linecap="round" stroke-linejoin="round"/>
<path d="M9.01715 1.2C8.92124 1.0128 8.77553 0.855694 8.59607 0.745991C8.4166 0.636287 8.21034 0.578239 8 0.578239C7.78966 0.578239 7.58341 0.636287 7.40394 0.745991C7.22448 0.855694 7.07877 1.0128 6.98286 1.2L0.697146 13.7714C0.609478 13.9454 0.567738 14.1389 0.575892 14.3336C0.584045 14.5282 0.641821 14.7175 0.743732 14.8836C0.845644 15.0496 0.988307 15.1868 1.15817 15.2822C1.32804 15.3776 1.51947 15.428 1.71429 15.4286H14.2857C14.4805 15.428 14.672 15.3776 14.8418 15.2822C15.0117 15.1868 15.1544 15.0496 15.2563 14.8836C15.3582 14.7175 15.416 14.5282 15.4241 14.3336C15.4323 14.1389 15.3905 13.9454 15.3029 13.7714L9.01715 1.2Z" stroke="#0D121C" stroke-linecap="round" stroke-linejoin="round"/>
</svg>
