<svg width="16" height="16" viewBox="0 0 16 16" fill="none" xmlns="http://www.w3.org/2000/svg">
<path d="M10.8571 0.571426H5.14286C4.51167 0.571426 4 1.0831 4 1.71428V4C4 4.63118 4.51167 5.14286 5.14286 5.14286H10.8571C11.4883 5.14286 12 4.63118 12 4V1.71428C12 1.0831 11.4883 0.571426 10.8571 0.571426Z" stroke="#0D121C" stroke-linecap="round" stroke-linejoin="round"/>
<path d="M13.1428 10.8571H2.85714C2.22595 10.8571 1.71428 11.3688 1.71428 12V14.2857C1.71428 14.9169 2.22595 15.4286 2.85714 15.4286H13.1428C13.774 15.4286 14.2857 14.9169 14.2857 14.2857V12C14.2857 11.3688 13.774 10.8571 13.1428 10.8571Z" stroke="#0D121C" stroke-linecap="round" stroke-linejoin="round"/>
<path d="M8 5.14285V10.8571" stroke="#0D121C" stroke-linecap="round" stroke-linejoin="round"/>
</svg>
