<svg width="16" height="16" viewBox="0 0 16 16" fill="none" xmlns="http://www.w3.org/2000/svg">
<path d="M1.71429 2.85714C1.41118 2.85714 1.12049 2.97755 0.906165 3.19188C0.691838 3.4062 0.57143 3.69689 0.57143 4V14.2857C0.57143 14.5888 0.691838 14.8795 0.906165 15.0938C1.12049 15.3082 1.41118 15.4286 1.71429 15.4286H14.2857C14.5888 15.4286 14.8795 15.3082 15.0938 15.0938C15.3082 14.8795 15.4286 14.5888 15.4286 14.2857V4C15.4286 3.69689 15.3082 3.4062 15.0938 3.19188C14.8795 2.97755 14.5888 2.85714 14.2857 2.85714H12M4 0.571426V5.14285M12 0.571426V5.14285M4 2.85714H9.71429" stroke="#0D121C" stroke-linecap="round" stroke-linejoin="round"/>
<path d="M5.71429 10.2857L8 12.5714M8 12.5714L10.2857 10.2857M8 12.5714V6.85715" stroke="#0D121C" stroke-linecap="round" stroke-linejoin="round"/>
</svg>
