<svg width="16" height="16" viewBox="0 0 16 16" fill="none" xmlns="http://www.w3.org/2000/svg">
<path d="M1.71428 2.85714C1.41118 2.85714 1.12049 2.97755 0.906161 3.19188C0.691834 3.4062 0.571426 3.69689 0.571426 4V14.2857C0.571426 14.5888 0.691834 14.8795 0.906161 15.0938C1.12049 15.3082 1.41118 15.4286 1.71428 15.4286H14.2857C14.5888 15.4286 14.8795 15.3082 15.0938 15.0938C15.3082 14.8795 15.4286 14.5888 15.4286 14.2857V4C15.4286 3.69689 15.3082 3.4062 15.0938 3.19188C14.8795 2.97755 14.5888 2.85714 14.2857 2.85714H12M4 0.571426V5.14285M12 0.571426V5.14285M4 2.85714H9.71428" stroke="#0D121C" stroke-linecap="round" stroke-linejoin="round"/>
<path d="M7.37142 6.13715C7.42062 6.01043 7.50697 5.90155 7.61914 5.82477C7.73131 5.74799 7.86407 5.70691 8 5.70691C8.13593 5.70691 8.26868 5.74799 8.38085 5.82477C8.49302 5.90155 8.57937 6.01043 8.62857 6.13715L9.36 8H11.3143C11.4421 8.00976 11.5646 8.05512 11.6679 8.13096C11.7712 8.2068 11.8512 8.31007 11.8988 8.42906C11.9464 8.54806 11.9597 8.678 11.9372 8.80417C11.9147 8.93034 11.8572 9.04767 11.7714 9.14286L10.0457 10.6971L10.7771 12.16C10.8433 12.2884 10.8658 12.435 10.841 12.5773C10.8163 12.7197 10.7457 12.85 10.64 12.9486C10.535 13.0484 10.4016 13.113 10.2582 13.1335C10.1149 13.1539 9.96869 13.1293 9.84 13.0629L8 12.0571L6.16 13.0629C6.0313 13.1293 5.88511 13.1539 5.74175 13.1335C5.59838 13.113 5.46495 13.0484 5.36 12.9486C5.25431 12.85 5.18372 12.7197 5.15897 12.5773C5.13421 12.435 5.15664 12.2884 5.22285 12.16L5.95428 10.6971L4.22857 9.14286C4.14276 9.04767 4.08534 8.93034 4.06283 8.80417C4.04032 8.678 4.05362 8.54806 4.10121 8.42906C4.14881 8.31007 4.2288 8.2068 4.33211 8.13096C4.43543 8.05512 4.55792 8.00976 4.68571 8H6.64L7.37142 6.13715Z" stroke="#0D121C" stroke-linecap="round" stroke-linejoin="round"/>
</svg>
