<svg width="16" height="16" viewBox="0 0 16 16" fill="none" xmlns="http://www.w3.org/2000/svg">
<path d="M6.85714 5.52L4.28572 1.07429C3.15719 1.7245 2.21977 2.66042 1.56776 3.78791C0.91574 4.9154 0.57211 6.1947 0.57143 7.49714H5.71429C5.7147 7.09631 5.82051 6.70264 6.0211 6.35562C6.22169 6.00859 6.51002 5.72042 6.85714 5.52ZM10.2857 7.49714H15.4286C15.4279 6.1947 15.0843 4.9154 14.4322 3.78791C13.7802 2.66042 12.8428 1.7245 11.7143 1.07429L9.14286 5.52C9.48999 5.72042 9.77831 6.00859 9.9789 6.35562C10.1795 6.70264 10.2853 7.09631 10.2857 7.49714ZM8 9.78286C7.5996 9.78562 7.20549 9.68316 6.85714 9.48572L4.28572 13.9314C5.41538 14.5823 6.69625 14.9249 8 14.9249C9.30376 14.9249 10.5846 14.5823 11.7143 13.9314L9.14286 9.48572C8.79451 9.68316 8.4004 9.78562 8 9.78286Z" stroke="#0D121C" stroke-linecap="round" stroke-linejoin="round"/>
</svg>
