<svg width="16" height="16" viewBox="0 0 16 16" fill="none" xmlns="http://www.w3.org/2000/svg">
<path d="M7.99999 9.71429C8.94677 9.71429 9.71428 8.94677 9.71428 8C9.71428 7.05323 8.94677 6.28572 7.99999 6.28572C7.05322 6.28572 6.28571 7.05323 6.28571 8C6.28571 8.94677 7.05322 9.71429 7.99999 9.71429Z" stroke="#0D121C" stroke-linecap="round" stroke-linejoin="round"/>
<path d="M10.2857 0.571428H14.8571C15.0087 0.571428 15.154 0.631632 15.2612 0.738796C15.3684 0.845959 15.4286 0.991305 15.4286 1.14286V5.71429M5.71428 15.4286H1.14285C0.991303 15.4286 0.845958 15.3684 0.738794 15.2612C0.63163 15.154 0.571426 15.0087 0.571426 14.8571V10.2857" stroke="#0D121C" stroke-linecap="round" stroke-linejoin="round"/>
</svg>
