<svg width="16" height="16" viewBox="0 0 16 16" fill="none" xmlns="http://www.w3.org/2000/svg">
<path d="M1.71429 2.85714C1.41118 2.85714 1.12049 2.97755 0.906164 3.19188C0.691836 3.4062 0.571429 3.69689 0.571429 4V14.2857C0.571429 14.5888 0.691836 14.8795 0.906164 15.0938C1.12049 15.3082 1.41118 15.4286 1.71429 15.4286H14.2857C14.5888 15.4286 14.8795 15.3082 15.0938 15.0938C15.3082 14.8795 15.4286 14.5888 15.4286 14.2857V4C15.4286 3.69689 15.3082 3.4062 15.0938 3.19188C14.8795 2.97755 14.5888 2.85714 14.2857 2.85714H12M4 0.571426V5.14285M12 0.571426V5.14285M4 2.85714H9.71429M10.0229 11.1657L5.97714 7.12M10.0229 7.12L5.97714 11.1657" stroke="#0D121C" stroke-linecap="round" stroke-linejoin="round"/>
</svg>
