<svg width="16" height="16" viewBox="0 0 16 16" fill="none" xmlns="http://www.w3.org/2000/svg">
<path d="M15.1771 10.7314L10.7314 15.1771C10.5707 15.3377 10.3529 15.4278 10.1257 15.4278C9.89857 15.4278 9.68072 15.3377 9.52 15.1771L0.697147 6.35429C0.652814 6.31191 0.618518 6.26015 0.596767 6.20281C0.575015 6.14546 0.566359 6.08398 0.571433 6.02286L1.24572 1.64572C1.25122 1.54142 1.29513 1.44284 1.36898 1.36898C1.44284 1.29513 1.54142 1.25122 1.64572 1.24572L6.02286 0.571433C6.08398 0.566359 6.14546 0.575015 6.20281 0.596767C6.26015 0.618518 6.31191 0.652814 6.35429 0.697147L15.1771 9.52C15.3377 9.68072 15.4278 9.89857 15.4278 10.1257C15.4278 10.3529 15.3377 10.5707 15.1771 10.7314Z" stroke="#0D121C" stroke-linecap="round" stroke-linejoin="round"/>
<path d="M4.69715 5.26857C5.01274 5.26857 5.26857 5.01274 5.26857 4.69715C5.26857 4.38155 5.01274 4.12572 4.69715 4.12572C4.38155 4.12572 4.12572 4.38155 4.12572 4.69715C4.12572 5.01274 4.38155 5.26857 4.69715 5.26857Z" stroke="#0D121C" stroke-linecap="round" stroke-linejoin="round"/>
</svg>
