<svg width="16" height="16" viewBox="0 0 16 16" fill="none" xmlns="http://www.w3.org/2000/svg">
<path d="M10.1943 1.42857C10.8083 1.88912 11.2619 2.53119 11.4908 3.26385C11.7197 3.9965 11.7122 4.7826 11.4695 5.51078C11.2267 6.23896 10.7611 6.87231 10.1384 7.32112C9.51568 7.76992 8.76757 8.01143 8 8.01143C7.23243 8.01143 6.48432 7.76992 5.86163 7.32112C5.23895 6.87231 4.77326 6.23896 4.53053 5.51078C4.2878 4.7826 4.28034 3.9965 4.50921 3.26385C4.73807 2.53119 5.19166 1.88912 5.80571 1.42857" stroke="#0D121C" stroke-linecap="round" stroke-linejoin="round"/>
<path d="M0.571428 10.48C0.662012 9.7175 0.990302 9.00286 1.50976 8.43737C2.02922 7.87189 2.7135 7.48425 3.46559 7.32941C4.21768 7.17458 4.99942 7.2604 5.70001 7.5747C6.4006 7.88901 6.98448 8.41586 7.36889 9.08058C7.7533 9.74529 7.91874 10.5141 7.84175 11.2781C7.76475 12.0421 7.44924 12.7625 6.93993 13.3371C6.43063 13.9118 5.75336 14.3115 5.00415 14.4798C4.25494 14.648 3.47179 14.5761 2.76571 14.2743" stroke="#0D121C" stroke-linecap="round" stroke-linejoin="round"/>
<path d="M13.2343 14.2743C12.5304 14.5732 11.7503 14.6432 11.0045 14.4743C10.2586 14.3055 9.58471 13.9064 9.07815 13.3335C8.57159 12.7606 8.25801 12.0429 8.18178 11.282C8.10555 10.5211 8.27053 9.75545 8.65337 9.09345C9.03621 8.43145 9.61754 7.90659 10.3151 7.59316C11.0126 7.27972 11.7911 7.19357 12.5403 7.3469C13.2895 7.50022 13.9715 7.88526 14.4898 8.44753C15.0082 9.0098 15.3366 9.72082 15.4286 10.48" stroke="#0D121C" stroke-linecap="round" stroke-linejoin="round"/>
</svg>
