<svg width="16" height="16" viewBox="0 0 16 16" fill="none" xmlns="http://www.w3.org/2000/svg">
<path d="M5.71429 11.92C5.23599 12.3299 4.62979 12.5602 4 12.5714C3.53875 12.6157 3.07343 12.5574 2.63736 12.4007C2.20128 12.2441 1.80524 11.9929 1.47759 11.6653C1.14995 11.3376 0.898801 10.9416 0.742143 10.5055C0.585484 10.0694 0.527188 9.6041 0.571429 9.14286C0.527188 8.68161 0.585484 8.21629 0.742143 7.78022C0.898801 7.34414 1.14995 6.9481 1.47759 6.62045C1.80524 6.29281 2.20128 6.04166 2.63736 5.885C3.07343 5.72834 3.53875 5.67005 4 5.71429C7.14286 5.71429 8.85714 12.5714 12 12.5714C12.4612 12.6157 12.9266 12.5574 13.3626 12.4007C13.7987 12.2441 14.1948 11.9929 14.5224 11.6653C14.8501 11.3376 15.1012 10.9416 15.2579 10.5055C15.4145 10.0694 15.4728 9.6041 15.4286 9.14286C15.4728 8.68161 15.4145 8.21629 15.2579 7.78022C15.1012 7.34414 14.8501 6.9481 14.5224 6.62045C14.1948 6.29281 13.7987 6.04166 13.3626 5.885C12.9266 5.72834 12.4612 5.67005 12 5.71429H9.71429L12 3.42857" stroke="#0D121C" stroke-linecap="round" stroke-linejoin="round"/>
</svg>
