<svg width="16" height="16" viewBox="0 0 16 16" fill="none" xmlns="http://www.w3.org/2000/svg">
<path d="M11.7143 0.571426C11.5957 0.57212 11.4798 0.606983 11.3804 0.671843C11.2811 0.736703 11.2026 0.828811 11.1543 0.937141L9.33714 4.77714C9.29643 4.87173 9.23183 4.95412 9.14969 5.01623C9.06755 5.07833 8.97067 5.11803 8.86857 5.13143L4.82285 5.71428C4.69991 5.73406 4.58502 5.78808 4.49135 5.87013C4.39768 5.95219 4.32902 6.05898 4.29324 6.17826C4.25745 6.29753 4.25599 6.42448 4.28902 6.54455C4.32206 6.66461 4.38824 6.77295 4.48 6.85714L7.40571 9.86286C7.47898 9.93701 7.53372 10.0274 7.56549 10.1267C7.59726 10.226 7.60517 10.3314 7.58857 10.4343L6.85714 14.6629C6.83635 14.7795 6.84835 14.8996 6.8918 15.0098C6.93525 15.1201 7.00843 15.2161 7.10321 15.2871C7.19799 15.3582 7.31065 15.4016 7.42862 15.4125C7.5466 15.4233 7.66527 15.4012 7.77143 15.3486L11.4286 13.36C11.5201 13.3108 11.6218 13.2834 11.7257 13.28L11.7143 0.571426Z" stroke="#0D121C" stroke-linecap="round" stroke-linejoin="round"/>
</svg>
