<svg width="16" height="16" viewBox="0 0 16 16" fill="none" xmlns="http://www.w3.org/2000/svg">
<path d="M1.71428 2.85714C1.41118 2.85714 1.12049 2.97755 0.906161 3.19188C0.691834 3.4062 0.571426 3.69689 0.571426 4V14.2857C0.571426 14.5888 0.691834 14.8795 0.906161 15.0938C1.12049 15.3082 1.41118 15.4286 1.71428 15.4286H14.2857C14.5888 15.4286 14.8795 15.3082 15.0938 15.0938C15.3082 14.8795 15.4286 14.5888 15.4286 14.2857V4C15.4286 3.69689 15.3082 3.4062 15.0938 3.19188C14.8795 2.97755 14.5888 2.85714 14.2857 2.85714H12M4 0.571426V5.14285M12 0.571426V5.14285M4 2.85714H9.71428" stroke="#0D121C" stroke-linecap="round" stroke-linejoin="round"/>
<path d="M4 9.14286C4.31559 9.14286 4.57143 8.88702 4.57143 8.57143C4.57143 8.25584 4.31559 8 4 8C3.68441 8 3.42857 8.25584 3.42857 8.57143C3.42857 8.88702 3.68441 9.14286 4 9.14286Z" stroke="#0D121C" stroke-linecap="round" stroke-linejoin="round"/>
<path d="M8 9.14286C8.31559 9.14286 8.57143 8.88702 8.57143 8.57143C8.57143 8.25584 8.31559 8 8 8C7.68441 8 7.42857 8.25584 7.42857 8.57143C7.42857 8.88702 7.68441 9.14286 8 9.14286Z" stroke="#0D121C" stroke-linecap="round" stroke-linejoin="round"/>
<path d="M12 9.14286C12.3156 9.14286 12.5714 8.88702 12.5714 8.57143C12.5714 8.25584 12.3156 8 12 8C11.6844 8 11.4286 8.25584 11.4286 8.57143C11.4286 8.88702 11.6844 9.14286 12 9.14286Z" stroke="#0D121C" stroke-linecap="round" stroke-linejoin="round"/>
<path d="M4 12.5714C4.31559 12.5714 4.57143 12.3156 4.57143 12C4.57143 11.6844 4.31559 11.4286 4 11.4286C3.68441 11.4286 3.42857 11.6844 3.42857 12C3.42857 12.3156 3.68441 12.5714 4 12.5714Z" stroke="#0D121C" stroke-linecap="round" stroke-linejoin="round"/>
</svg>
