<svg width="16" height="16" viewBox="0 0 16 16" fill="none" xmlns="http://www.w3.org/2000/svg">
<g clip-path="url(#clip0_1_3230)">
<path d="M4.5 11.4993L11.5 4.49933" stroke="#0D121C" stroke-linecap="round" stroke-linejoin="round"/>
<path d="M5.15667 8.014C4.73734 7.98984 4.31764 8.05456 3.92506 8.20391C3.53249 8.35327 3.1759 8.58389 2.87867 8.88067L1.37867 10.3807C0.816057 10.9433 0.499985 11.7063 0.499985 12.502C0.499985 12.896 0.577583 13.2861 0.728348 13.6501C0.879113 14.014 1.10009 14.3448 1.37867 14.6233C1.65725 14.9019 1.98797 15.1229 2.35195 15.2737C2.71592 15.4244 3.10604 15.502 3.5 15.502C4.29566 15.502 5.05872 15.1859 5.62134 14.6233L7.12134 13.1233C7.41811 12.8261 7.64874 12.4695 7.79809 12.0769C7.94745 11.6844 8.01216 11.2647 7.988 10.8453" stroke="#0D121C" stroke-linecap="round" stroke-linejoin="round"/>
<path d="M10.8433 7.98399C11.2627 8.00811 11.6824 7.94337 12.0749 7.79402C12.4675 7.64466 12.8241 7.41407 13.1213 7.11732L14.6213 5.61732C15.184 5.05471 15.5 4.29164 15.5 3.49599C15.5 2.70034 15.184 1.93727 14.6213 1.37466C14.0587 0.812044 13.2957 0.495972 12.5 0.495972C11.7044 0.495972 10.9413 0.812044 10.3787 1.37466L8.87867 2.87466C8.5826 3.17225 8.35266 3.52898 8.2039 3.92152C8.05513 4.31406 7.99087 4.73358 8.01534 5.15266" stroke="#0D121C" stroke-linecap="round" stroke-linejoin="round"/>
</g>
<defs>
<clipPath id="clip0_1_3230">
<rect width="16" height="16" fill="white"/>
</clipPath>
</defs>
</svg>
