<svg width="16" height="16" viewBox="0 0 16 16" fill="none" xmlns="http://www.w3.org/2000/svg">
<path d="M6.72133 6.33334C6.4424 6.0196 6.10032 5.76833 5.71752 5.59599C5.33471 5.42366 4.91981 5.33416 4.5 5.33334H3.5C2.70435 5.33334 1.94129 5.64941 1.37868 6.21202C0.81607 6.77463 0.5 7.53769 0.5 8.33334C0.5 9.12899 0.81607 9.89205 1.37868 10.4547C1.94129 11.0173 2.70435 11.3333 3.5 11.3333H4.5C4.91978 11.3324 5.33463 11.2428 5.71741 11.0705C6.1002 10.8981 6.44229 10.647 6.72133 10.3333" stroke="#0D121C" stroke-linecap="round" stroke-linejoin="round"/>
<path d="M9.27867 6.33334C9.55758 6.01956 9.89965 5.76827 10.2825 5.59594C10.6653 5.4236 11.0802 5.33412 11.5 5.33334H12.5C13.2957 5.33334 14.0587 5.64941 14.6213 6.21202C15.1839 6.77463 15.5 7.53769 15.5 8.33334C15.5 9.12899 15.1839 9.89205 14.6213 10.4547C14.0587 11.0173 13.2957 11.3333 12.5 11.3333H11.5C11.0802 11.3324 10.6653 11.2429 10.2825 11.0706C9.89975 10.8982 9.55766 10.647 9.27867 10.3333" stroke="#0D121C" stroke-linecap="round" stroke-linejoin="round"/>
<path d="M4.5 8.33267H11.5" stroke="#0D121C" stroke-linecap="round" stroke-linejoin="round"/>
</svg>
