<svg width="16" height="16" viewBox="0 0 16 16" fill="none" xmlns="http://www.w3.org/2000/svg">
<g clip-path="url(#clip0_1_3166)">
<path d="M5.5 2H15.5" stroke="#0D121C" stroke-linecap="round" stroke-linejoin="round"/>
<path d="M5.5 8H15.5" stroke="#0D121C" stroke-linecap="round" stroke-linejoin="round"/>
<path d="M5.5 14H15.5" stroke="#0D121C" stroke-linecap="round" stroke-linejoin="round"/>
<path d="M0.533333 12.24C0.581836 12.0599 0.679759 11.8969 0.816034 11.7695C0.952309 11.6421 1.1215 11.5554 1.30449 11.5191C1.48748 11.4828 1.67697 11.4984 1.85154 11.5642C2.0261 11.63 2.17879 11.7433 2.29234 11.8913C2.4059 12.0393 2.47578 12.2161 2.49411 12.4018C2.51243 12.5874 2.47846 12.7745 2.39603 12.9419C2.3136 13.1092 2.18601 13.2502 2.02767 13.3488C1.86932 13.4474 1.68655 13.4998 1.5 13.5C1.68618 13.5005 1.86851 13.553 2.02646 13.6516C2.18442 13.7501 2.31172 13.8908 2.39405 14.0578C2.47637 14.2248 2.51044 14.4115 2.49243 14.5968C2.47441 14.7821 2.40502 14.9587 2.29207 15.1067C2.17912 15.2547 2.0271 15.3682 1.85312 15.4345C1.67914 15.5008 1.49011 15.5172 1.30731 15.4818C1.12452 15.4465 0.95522 15.3608 0.818478 15.2345C0.681736 15.1081 0.582981 14.9461 0.533333 14.7667" stroke="#0D121C" stroke-linecap="round" stroke-linejoin="round"/>
<path d="M0.5 7.5C0.5 7.23478 0.605357 6.98043 0.792893 6.79289C0.98043 6.60536 1.23478 6.5 1.5 6.5C1.76522 6.5 2.01957 6.60536 2.20711 6.79289C2.39464 6.98043 2.5 7.23478 2.5 7.5C2.49922 7.82458 2.38881 8.13938 2.18667 8.39333L0.5 9.5H2.5" stroke="#0D121C" stroke-linecap="round" stroke-linejoin="round"/>
<path d="M0.5 0.5H1C1.13207 0.501727 1.25825 0.554959 1.35164 0.648356C1.44504 0.741752 1.49827 0.867929 1.5 1V4.5" stroke="#0D121C" stroke-linecap="round" stroke-linejoin="round"/>
<path d="M0.5 4.5H2.5" stroke="#0D121C" stroke-linecap="round" stroke-linejoin="round"/>
</g>
<defs>
<clipPath id="clip0_1_3166">
<rect width="16" height="16" fill="white"/>
</clipPath>
</defs>
</svg>
