<svg width="16" height="16" viewBox="0 0 16 16" fill="none" xmlns="http://www.w3.org/2000/svg">
<g clip-path="url(#clip0_1_3129)">
<path d="M0.5 2C0.5 2.19698 0.538799 2.39204 0.614181 2.57403C0.689563 2.75601 0.800052 2.92137 0.93934 3.06066C1.07863 3.19995 1.24399 3.31044 1.42597 3.38582C1.60796 3.4612 1.80302 3.5 2 3.5C2.19698 3.5 2.39204 3.4612 2.57403 3.38582C2.75601 3.31044 2.92137 3.19995 3.06066 3.06066C3.19995 2.92137 3.31044 2.75601 3.38582 2.57403C3.4612 2.39204 3.5 2.19698 3.5 2C3.5 1.80302 3.4612 1.60796 3.38582 1.42597C3.31044 1.24399 3.19995 1.07863 3.06066 0.93934C2.92137 0.800052 2.75601 0.689563 2.57403 0.614181C2.39204 0.538799 2.19698 0.5 2 0.5C1.80302 0.5 1.60796 0.538799 1.42597 0.614181C1.24399 0.689563 1.07863 0.800052 0.93934 0.93934C0.800052 1.07863 0.689563 1.24399 0.614181 1.42597C0.538799 1.60796 0.5 1.80302 0.5 2Z" stroke="#0D121C" stroke-linecap="round" stroke-linejoin="round"/>
<path d="M0.5 8C0.5 8.19698 0.538799 8.39204 0.614181 8.57403C0.689563 8.75601 0.800052 8.92137 0.93934 9.06066C1.07863 9.19995 1.24399 9.31044 1.42597 9.38582C1.60796 9.4612 1.80302 9.5 2 9.5C2.19698 9.5 2.39204 9.4612 2.57403 9.38582C2.75601 9.31044 2.92137 9.19995 3.06066 9.06066C3.19995 8.92137 3.31044 8.75601 3.38582 8.57403C3.4612 8.39204 3.5 8.19698 3.5 8C3.5 7.80302 3.4612 7.60796 3.38582 7.42597C3.31044 7.24399 3.19995 7.07863 3.06066 6.93934C2.92137 6.80005 2.75601 6.68956 2.57403 6.61418C2.39204 6.5388 2.19698 6.5 2 6.5C1.80302 6.5 1.60796 6.5388 1.42597 6.61418C1.24399 6.68956 1.07863 6.80005 0.93934 6.93934C0.800052 7.07863 0.689563 7.24399 0.614181 7.42597C0.538799 7.60796 0.5 7.80302 0.5 8Z" stroke="#0D121C" stroke-linecap="round" stroke-linejoin="round"/>
<path d="M0.5 14C0.5 14.197 0.538799 14.392 0.614181 14.574C0.689563 14.756 0.800052 14.9214 0.93934 15.0607C1.07863 15.1999 1.24399 15.3104 1.42597 15.3858C1.60796 15.4612 1.80302 15.5 2 15.5C2.19698 15.5 2.39204 15.4612 2.57403 15.3858C2.75601 15.3104 2.92137 15.1999 3.06066 15.0607C3.19995 14.9214 3.31044 14.756 3.38582 14.574C3.4612 14.392 3.5 14.197 3.5 14C3.5 13.803 3.4612 13.608 3.38582 13.426C3.31044 13.244 3.19995 13.0786 3.06066 12.9393C2.92137 12.8001 2.75601 12.6896 2.57403 12.6142C2.39204 12.5388 2.19698 12.5 2 12.5C1.80302 12.5 1.60796 12.5388 1.42597 12.6142C1.24399 12.6896 1.07863 12.8001 0.93934 12.9393C0.800052 13.0786 0.689563 13.244 0.614181 13.426C0.538799 13.608 0.5 13.803 0.5 14Z" stroke="#0D121C" stroke-linecap="round" stroke-linejoin="round"/>
<path d="M5.5 2H15.5" stroke="#0D121C" stroke-linecap="round" stroke-linejoin="round"/>
<path d="M5.5 8H15.5" stroke="#0D121C" stroke-linecap="round" stroke-linejoin="round"/>
<path d="M5.5 14H15.5" stroke="#0D121C" stroke-linecap="round" stroke-linejoin="round"/>
</g>
<defs>
<clipPath id="clip0_1_3129">
<rect width="16" height="16" fill="white"/>
</clipPath>
</defs>
</svg>
