<svg width="16" height="16" viewBox="0 0 16 16" fill="none" xmlns="http://www.w3.org/2000/svg">
<path d="M2.5 10C2.5 11.4587 3.07946 12.8576 4.11091 13.8891C5.14236 14.9205 6.54131 15.5 8 15.5C9.45869 15.5 10.8576 14.9205 11.8891 13.8891C12.9205 12.8576 13.5 11.4587 13.5 10C13.5 8.54131 12.9205 7.14236 11.8891 6.11091C10.8576 5.07946 9.45869 4.5 8 4.5C6.54131 4.5 5.14236 5.07946 4.11091 6.11091C3.07946 7.14236 2.5 8.54131 2.5 10Z" stroke="#0D121C" stroke-linecap="round" stroke-linejoin="round"/>
<path d="M4.5 5.75667V4C4.5 3.07174 4.86875 2.1815 5.52513 1.52513C6.1815 0.868749 7.07174 0.5 8 0.5C8.92826 0.5 9.8185 0.868749 10.4749 1.52513C11.1313 2.1815 11.5 3.07174 11.5 4V5.75667" stroke="#0D121C" stroke-linecap="round" stroke-linejoin="round"/>
<path d="M8 9V11" stroke="#0D121C" stroke-linecap="round"/>
</svg>
