<svg width="16" height="16" viewBox="0 0 16 16" fill="none" xmlns="http://www.w3.org/2000/svg">
<path d="M3.5 6.5H12.5C12.5 6.5 13.5 6.5 13.5 7.5V14.5C13.5 14.5 13.5 15.5 12.5 15.5H3.5C3.5 15.5 2.5 15.5 2.5 14.5V7.5C2.5 7.5 2.5 6.5 3.5 6.5Z" stroke="#0D121C" stroke-linecap="round" stroke-linejoin="round"/>
<path d="M4.5 6.5V4C4.5 3.07174 4.86875 2.1815 5.52513 1.52513C6.1815 0.868749 7.07174 0.5 8 0.5C8.92826 0.5 9.8185 0.868749 10.4749 1.52513C11.1313 2.1815 11.5 3.07174 11.5 4V6.5" stroke="#0D121C" stroke-linecap="round" stroke-linejoin="round"/>
<path d="M8 10V12" stroke="#0D121C" stroke-linecap="round" stroke-linejoin="round"/>
</svg>
