<svg width="16" height="16" viewBox="0 0 16 16" fill="none" xmlns="http://www.w3.org/2000/svg">
<g clip-path="url(#clip0_1_3186)">
<path d="M13.5 12.5V13.5C13.5 13.7652 13.3946 14.0196 13.2071 14.2071C13.0196 14.3946 12.7652 14.5 12.5 14.5H9.5" stroke="#0D121C" stroke-linecap="round" stroke-linejoin="round"/>
<path d="M9.5 2.5H12.5C12.7652 2.5 13.0196 2.60536 13.2071 2.79289C13.3946 2.98043 13.5 3.23478 13.5 3.5V4.5" stroke="#0D121C" stroke-linecap="round" stroke-linejoin="round"/>
<path d="M6.92667 15.4933L0.926665 14.6667C0.807135 14.6489 0.698063 14.5885 0.619626 14.4966C0.541189 14.4047 0.498693 14.2875 0.499999 14.1667V2.47999C0.501915 2.36738 0.541798 2.25871 0.613187 2.17159C0.684576 2.08447 0.783289 2.02401 0.893332 1.99999L6.89333 0.519995C6.96618 0.504087 7.04166 0.504674 7.11426 0.521713C7.18685 0.538751 7.25471 0.57181 7.31287 0.618468C7.37103 0.665126 7.41803 0.724202 7.4504 0.79137C7.48278 0.858538 7.49973 0.932097 7.5 1.00666V15.0067C7.49998 15.0782 7.4844 15.1489 7.45434 15.2138C7.42428 15.2787 7.38046 15.3363 7.32592 15.3826C7.27138 15.4289 7.20742 15.4628 7.13848 15.4819C7.06953 15.501 6.99726 15.5049 6.92667 15.4933Z" stroke="#0D121C" stroke-linecap="round" stroke-linejoin="round"/>
<path d="M13.5 6.5L15.5 8.5H10" stroke="#0D121C" stroke-linecap="round" stroke-linejoin="round"/>
<path d="M13.5 10.5L15.5 8.5" stroke="#0D121C" stroke-linecap="round" stroke-linejoin="round"/>
<path d="M4.91666 8.22934C4.85036 8.22934 4.78677 8.203 4.73989 8.15612C4.693 8.10923 4.66666 8.04564 4.66666 7.97934C4.66666 7.91304 4.693 7.84945 4.73989 7.80256C4.78677 7.75568 4.85036 7.72934 4.91666 7.72934" stroke="#0D121C"/>
<path d="M4.91666 8.22934C4.98297 8.22934 5.04656 8.203 5.09344 8.15612C5.14032 8.10923 5.16666 8.04564 5.16666 7.97934C5.16666 7.91304 5.14032 7.84945 5.09344 7.80256C5.04656 7.75568 4.98297 7.72934 4.91666 7.72934" stroke="#0D121C"/>
</g>
<defs>
<clipPath id="clip0_1_3186">
<rect width="16" height="16" fill="white"/>
</clipPath>
</defs>
</svg>
