<svg width="16" height="16" viewBox="0 0 16 16" fill="none" xmlns="http://www.w3.org/2000/svg">
<path d="M0.5 8.01532C0.5 8.47945 0.684374 8.92457 1.01256 9.25276C1.34075 9.58095 1.78587 9.76532 2.25 9.76532C2.71413 9.76532 3.15925 9.58095 3.48744 9.25276C3.81563 8.92457 4 8.47945 4 8.01532C4 7.55119 3.81563 7.10607 3.48744 6.77788C3.15925 6.44969 2.71413 6.26532 2.25 6.26532C1.78587 6.26532 1.34075 6.44969 1.01256 6.77788C0.684374 7.10607 0.5 7.55119 0.5 8.01532Z" stroke="#0D121C" stroke-linecap="round" stroke-linejoin="round"/>
<path d="M12 8.01532C12 8.24513 12.0453 8.4727 12.1332 8.68502C12.2212 8.89734 12.3501 9.09025 12.5126 9.25276C12.6751 9.41526 12.868 9.54416 13.0803 9.63211C13.2926 9.72006 13.5202 9.76532 13.75 9.76532C13.9798 9.76532 14.2074 9.72006 14.4197 9.63211C14.632 9.54416 14.8249 9.41526 14.9874 9.25276C15.1499 9.09025 15.2788 8.89734 15.3668 8.68502C15.4547 8.4727 15.5 8.24513 15.5 8.01532C15.5 7.78551 15.4547 7.55794 15.3668 7.34562C15.2788 7.1333 15.1499 6.94039 14.9874 6.77788C14.8249 6.61538 14.632 6.48648 14.4197 6.39853C14.2074 6.31059 13.9798 6.26532 13.75 6.26532C13.5202 6.26532 13.2926 6.31059 13.0803 6.39853C12.868 6.48648 12.6751 6.61538 12.5126 6.77788C12.3501 6.94039 12.2212 7.1333 12.1332 7.34562C12.0453 7.55794 12 7.78551 12 8.01532Z" stroke="#0D121C" stroke-linecap="round" stroke-linejoin="round"/>
<path d="M6.25 8.01532C6.25 8.47945 6.43437 8.92457 6.76256 9.25276C7.09075 9.58095 7.53587 9.76532 8 9.76532C8.46413 9.76532 8.90925 9.58095 9.23744 9.25276C9.56563 8.92457 9.75 8.47945 9.75 8.01532C9.75 7.55119 9.56563 7.10607 9.23744 6.77788C8.90925 6.44969 8.46413 6.26532 8 6.26532C7.53587 6.26532 7.09075 6.44969 6.76256 6.77788C6.43437 7.10607 6.25 7.55119 6.25 8.01532Z" stroke="#0D121C" stroke-linecap="round" stroke-linejoin="round"/>
</svg>
