<svg width="16" height="16" viewBox="0 0 16 16" fill="none" xmlns="http://www.w3.org/2000/svg">
<g clip-path="url(#clip0_1_3215)">
<path d="M6 8.5H1.5C1.23478 8.5 0.98043 8.39464 0.792893 8.20711C0.605357 8.01957 0.5 7.76522 0.5 7.5V1.5C0.5 1.23478 0.605357 0.98043 0.792893 0.792893C0.98043 0.605357 1.23478 0.5 1.5 0.5H13.5C13.7652 0.5 14.0196 0.605357 14.2071 0.792893C14.3946 0.98043 14.5 1.23478 14.5 1.5V5.5" stroke="#0D121C" stroke-linecap="round" stroke-linejoin="round"/>
<path d="M11.5 15.5C12.5609 15.5 13.5783 15.0786 14.3284 14.3284C15.0786 13.5783 15.5 12.5609 15.5 11.5C15.5 10.4391 15.0786 9.42172 14.3284 8.67157C13.5783 7.92143 12.5609 7.5 11.5 7.5C10.4391 7.5 9.42172 7.92143 8.67157 8.67157C7.92143 9.42172 7.5 10.4391 7.5 11.5C7.5 12.5609 7.92143 13.5783 8.67157 14.3284C9.42172 15.0786 10.4391 15.5 11.5 15.5Z" stroke="#0D121C" stroke-linecap="round" stroke-linejoin="round"/>
<path d="M13 9.99933L10 12.9993" stroke="#0D121C" stroke-linecap="round" stroke-linejoin="round"/>
<path d="M10 9.99933L13 12.9993" stroke="#0D121C" stroke-linecap="round" stroke-linejoin="round"/>
<path d="M7.5 4.75C7.4337 4.75 7.37011 4.72366 7.32322 4.67678C7.27634 4.62989 7.25 4.5663 7.25 4.5C7.25 4.4337 7.27634 4.37011 7.32322 4.32322C7.37011 4.27634 7.4337 4.25 7.5 4.25" stroke="#0D121C"/>
<path d="M7.5 4.75C7.5663 4.75 7.62989 4.72366 7.67678 4.67678C7.72366 4.62989 7.75 4.5663 7.75 4.5C7.75 4.4337 7.72366 4.37011 7.67678 4.32322C7.62989 4.27634 7.5663 4.25 7.5 4.25" stroke="#0D121C"/>
<path d="M11.5 4.75C11.4337 4.75 11.3701 4.72366 11.3232 4.67678C11.2763 4.62989 11.25 4.5663 11.25 4.5C11.25 4.4337 11.2763 4.37011 11.3232 4.32322C11.3701 4.27634 11.4337 4.25 11.5 4.25" stroke="#0D121C"/>
<path d="M11.5 4.75C11.5663 4.75 11.6299 4.72366 11.6768 4.67678C11.7237 4.62989 11.75 4.5663 11.75 4.5C11.75 4.4337 11.7237 4.37011 11.6768 4.32322C11.6299 4.27634 11.5663 4.25 11.5 4.25" stroke="#0D121C"/>
<path d="M3.5 4.75C3.4337 4.75 3.37011 4.72366 3.32322 4.67678C3.27634 4.62989 3.25 4.5663 3.25 4.5C3.25 4.4337 3.27634 4.37011 3.32322 4.32322C3.37011 4.27634 3.4337 4.25 3.5 4.25" stroke="#0D121C"/>
<path d="M3.5 4.75C3.5663 4.75 3.62989 4.72366 3.67678 4.67678C3.72366 4.62989 3.75 4.5663 3.75 4.5C3.75 4.4337 3.72366 4.37011 3.67678 4.32322C3.62989 4.27634 3.5663 4.25 3.5 4.25" stroke="#0D121C"/>
</g>
<defs>
<clipPath id="clip0_1_3215">
<rect width="16" height="16" fill="white"/>
</clipPath>
</defs>
</svg>
