<svg width="16" height="16" viewBox="0 0 16 16" fill="none" xmlns="http://www.w3.org/2000/svg">
<g clip-path="url(#clip0_1_3227)">
<path d="M7.32 13.5C7.32 14.0304 7.53071 14.5391 7.90579 14.9142C8.28086 15.2893 8.78957 15.5 9.32 15.5C9.85043 15.5 10.3591 15.2893 10.7342 14.9142C11.1093 14.5391 11.32 14.0304 11.32 13.5C11.32 12.9696 11.1093 12.4609 10.7342 12.0858C10.3591 11.7107 9.85043 11.5 9.32 11.5C8.78957 11.5 8.28086 11.7107 7.90579 12.0858C7.53071 12.4609 7.32 12.9696 7.32 13.5Z" stroke="#0D121C" stroke-linecap="round" stroke-linejoin="round"/>
<path d="M10.74 12.0867L14.2733 8.54666L15.5 9.77333" stroke="#0D121C" stroke-linecap="round" stroke-linejoin="round"/>
<path d="M12.86 9.96667L13.8333 10.94" stroke="#0D121C" stroke-linecap="round" stroke-linejoin="round"/>
<path d="M15.5 6.16667V1.5C15.5 1.23478 15.3946 0.98043 15.2071 0.792893C15.0196 0.605357 14.7652 0.5 14.5 0.5H1.5C1.23478 0.5 0.98043 0.605357 0.792893 0.792893C0.605357 0.98043 0.5 1.23478 0.5 1.5V12.5C0.5 12.7652 0.605357 13.0196 0.792893 13.2071C0.98043 13.3946 1.23478 13.5 1.5 13.5H4.66667" stroke="#0D121C" stroke-linecap="round" stroke-linejoin="round"/>
<path d="M0.5 3.5H15.5" stroke="#0D121C" stroke-linecap="round" stroke-linejoin="round"/>
</g>
<defs>
<clipPath id="clip0_1_3227">
<rect width="16" height="16" fill="white"/>
</clipPath>
</defs>
</svg>
