<svg width="16" height="16" viewBox="0 0 16 16" fill="none" xmlns="http://www.w3.org/2000/svg">
<g clip-path="url(#clip0_1_3235)">
<path d="M6 8.5H1.5C1.23478 8.5 0.98043 8.39464 0.792893 8.20711C0.605357 8.01957 0.5 7.76522 0.5 7.5V1.5C0.5 1.23478 0.605357 0.98043 0.792893 0.792893C0.98043 0.605357 1.23478 0.5 1.5 0.5H13.5C13.7652 0.5 14.0196 0.605357 14.2071 0.792893C14.3946 0.98043 14.5 1.23478 14.5 1.5V5.5" stroke="#0D121C" stroke-linecap="round" stroke-linejoin="round"/>
<path d="M15.5 11.5C15.5 12.2911 15.2654 13.0645 14.8259 13.7223C14.3864 14.3801 13.7616 14.8928 13.0307 15.1955C12.2998 15.4983 11.4956 15.5775 10.7196 15.4231C9.94372 15.2688 9.23098 14.8878 8.67157 14.3284C8.11216 13.769 7.7312 13.0563 7.57686 12.2804C7.42252 11.5044 7.50173 10.7002 7.80448 9.96927C8.10723 9.23836 8.61992 8.61365 9.27772 8.17412C9.93552 7.7346 10.7089 7.5 11.5 7.5" stroke="#0D121C" stroke-linecap="round" stroke-linejoin="round"/>
<path d="M15.5 8.49933L11.8533 12.146C11.7596 12.2396 11.6325 12.2922 11.5 12.2922C11.3675 12.2922 11.2404 12.2396 11.1467 12.146L10 11" stroke="#0D121C" stroke-linecap="round" stroke-linejoin="round"/>
<path d="M7.5 4.75C7.4337 4.75 7.37011 4.72366 7.32322 4.67678C7.27634 4.62989 7.25 4.5663 7.25 4.5C7.25 4.4337 7.27634 4.37011 7.32322 4.32322C7.37011 4.27634 7.4337 4.25 7.5 4.25" stroke="#0D121C"/>
<path d="M7.5 4.75C7.5663 4.75 7.62989 4.72366 7.67678 4.67678C7.72366 4.62989 7.75 4.5663 7.75 4.5C7.75 4.4337 7.72366 4.37011 7.67678 4.32322C7.62989 4.27634 7.5663 4.25 7.5 4.25" stroke="#0D121C"/>
<path d="M11.5 4.75C11.4337 4.75 11.3701 4.72366 11.3232 4.67678C11.2763 4.62989 11.25 4.5663 11.25 4.5C11.25 4.4337 11.2763 4.37011 11.3232 4.32322C11.3701 4.27634 11.4337 4.25 11.5 4.25" stroke="#0D121C"/>
<path d="M11.5 4.75C11.5663 4.75 11.6299 4.72366 11.6768 4.67678C11.7237 4.62989 11.75 4.5663 11.75 4.5C11.75 4.4337 11.7237 4.37011 11.6768 4.32322C11.6299 4.27634 11.5663 4.25 11.5 4.25" stroke="#0D121C"/>
<path d="M3.5 4.75C3.4337 4.75 3.37011 4.72366 3.32322 4.67678C3.27634 4.62989 3.25 4.5663 3.25 4.5C3.25 4.4337 3.27634 4.37011 3.32322 4.32322C3.37011 4.27634 3.4337 4.25 3.5 4.25" stroke="#0D121C"/>
<path d="M3.5 4.75C3.5663 4.75 3.62989 4.72366 3.67678 4.67678C3.72366 4.62989 3.75 4.5663 3.75 4.5C3.75 4.4337 3.72366 4.37011 3.67678 4.32322C3.62989 4.27634 3.5663 4.25 3.5 4.25" stroke="#0D121C"/>
</g>
<defs>
<clipPath id="clip0_1_3235">
<rect width="16" height="16" fill="white"/>
</clipPath>
</defs>
</svg>
