<svg width="16" height="16" viewBox="0 0 16 16" fill="none" xmlns="http://www.w3.org/2000/svg">
<g clip-path="url(#clip0_1_3190)">
<path d="M3.29934 5.85534C3.16744 5.93273 3.05505 6.03933 2.97081 6.16696C2.88657 6.29458 2.83272 6.43983 2.8134 6.59153C2.79408 6.74323 2.80982 6.89733 2.85939 7.042C2.90896 7.18667 2.99105 7.31803 3.09934 7.42601L8.57467 12.9013C8.68264 13.0096 8.81401 13.0917 8.95868 13.1413C9.10334 13.1909 9.25745 13.2066 9.40915 13.1873C9.56085 13.168 9.70609 13.1141 9.83372 13.0299C9.96135 12.9456 10.068 12.8332 10.1453 12.7013C10.7939 11.5856 10.9873 10.2627 10.6853 9.00801L15.038 6.23801C15.1644 6.15765 15.271 6.04993 15.3502 5.92283C15.4294 5.79572 15.479 5.65245 15.4953 5.50361C15.5117 5.35477 15.4945 5.20415 15.4448 5.06287C15.3952 4.92159 15.3145 4.79326 15.2087 4.68734L11.3133 0.792006C11.2075 0.686126 11.0792 0.605373 10.9379 0.555705C10.7967 0.506037 10.6461 0.488723 10.4972 0.50504C10.3484 0.521358 10.2051 0.57089 10.078 0.649981C9.95084 0.729072 9.84309 0.835704 9.76267 0.962006L6.99267 5.31534C5.73794 5.01338 4.4151 5.20679 3.29934 5.85534Z" stroke="#0D121C" stroke-linecap="round" stroke-linejoin="round"/>
<path d="M5.83533 10.164L0.5 15.4993" stroke="#0D121C" stroke-linecap="round" stroke-linejoin="round"/>
</g>
<defs>
<clipPath id="clip0_1_3190">
<rect width="16" height="16" fill="white"/>
</clipPath>
</defs>
</svg>
