<svg width="16" height="16" viewBox="0 0 16 16" fill="none" xmlns="http://www.w3.org/2000/svg">
<g clip-path="url(#clip0_1_3133)">
<path d="M7.5 4.49933C7.5 5.56019 7.92143 6.57761 8.67157 7.32776C9.42172 8.0779 10.4391 8.49933 11.5 8.49933C12.5609 8.49933 13.5783 8.0779 14.3284 7.32776C15.0786 6.57761 15.5 5.56019 15.5 4.49933C15.5 3.43846 15.0786 2.42105 14.3284 1.6709C13.5783 0.920756 12.5609 0.499329 11.5 0.499329C10.4391 0.499329 9.42172 0.920756 8.67157 1.6709C7.92143 2.42105 7.5 3.43846 7.5 4.49933Z" stroke="#0D121C" stroke-linecap="round" stroke-linejoin="round"/>
<path d="M9.5 5C9.49991 4.67163 9.56451 4.34647 9.69011 4.04308C9.81571 3.73969 9.99984 3.46401 10.232 3.2318C10.4642 2.99958 10.7398 2.81537 11.0431 2.68969C11.3465 2.56402 11.6716 2.49933 12 2.49933" stroke="#0D121C" stroke-linecap="round" stroke-linejoin="round"/>
<path d="M0.5 15.4993L8.672 7.32733" stroke="#0D121C" stroke-linecap="round" stroke-linejoin="round"/>
</g>
<defs>
<clipPath id="clip0_1_3133">
<rect width="16" height="16" fill="white"/>
</clipPath>
</defs>
</svg>
