<svg width="16" height="16" viewBox="0 0 16 16" fill="none" xmlns="http://www.w3.org/2000/svg">
<path d="M8 3.50065C5.31267 3.45532 2.53333 5.33332 0.786 7.25665C0.602589 7.46027 0.501091 7.72461 0.501091 7.99865C0.501091 8.2727 0.602589 8.53703 0.786 8.74065C2.49533 10.6233 5.26667 12.5447 8 12.4987C10.7333 12.5447 13.5053 10.6233 15.216 8.74065C15.3994 8.53703 15.5009 8.2727 15.5009 7.99865C15.5009 7.72461 15.3994 7.46027 15.216 7.25665C13.4667 5.33332 10.6873 3.45532 8 3.50065Z" stroke="#0D121C" stroke-linecap="round" stroke-linejoin="round"/>
<path d="M10.5 8C10.4999 8.49442 10.3531 8.9777 10.0783 9.38874C9.80357 9.79977 9.41307 10.1201 8.95625 10.3092C8.49942 10.4983 7.99677 10.5477 7.51187 10.4512C7.02696 10.3547 6.58156 10.1165 6.232 9.76686C5.88243 9.4172 5.6444 8.97174 5.54799 8.48681C5.45158 8.00188 5.50113 7.49924 5.69036 7.04247C5.8796 6.58569 6.20003 6.19528 6.61114 5.92061C7.02225 5.64593 7.50557 5.49933 8 5.49933C8.32839 5.49924 8.65357 5.56387 8.95697 5.68952C9.26036 5.81516 9.53603 5.99937 9.7682 6.2316C10.0004 6.46384 10.1845 6.73955 10.3101 7.04298C10.4356 7.34641 10.5002 7.67161 10.5 8Z" stroke="#0D121C" stroke-linecap="round" stroke-linejoin="round"/>
</svg>
