<svg width="16" height="16" viewBox="0 0 16 16" fill="none" xmlns="http://www.w3.org/2000/svg">
<path d="M1.85333 14L14.3533 2" stroke="#0D121C" stroke-linecap="round" stroke-linejoin="round"/>
<path d="M6 12.7C6.64732 12.9021 7.32189 13.0032 8 13C10.7333 13.0467 13.5067 11.1267 15.2133 9.24001C15.3974 9.03753 15.4995 8.77368 15.4995 8.50001C15.4995 8.22634 15.3974 7.9625 15.2133 7.76001C14.5962 7.07793 13.9104 6.46133 13.1667 5.92001" stroke="#0D121C" stroke-linecap="round" stroke-linejoin="round"/>
<path d="M11.3933 4.84666C10.3442 4.30239 9.18184 4.01236 8 4C5.33333 3.95333 2.53333 5.83333 0.786666 7.76C0.60256 7.96248 0.500546 8.22633 0.500546 8.5C0.500546 8.77367 0.60256 9.03751 0.786666 9.24C1.73325 10.2982 2.84278 11.1984 4.07333 11.9067" stroke="#0D121C" stroke-linecap="round" stroke-linejoin="round"/>
<path d="M6 10.0467C5.63835 9.54494 5.47003 8.92949 5.526 8.31355C5.58197 7.6976 5.85847 7.12258 6.30463 6.69426C6.7508 6.26595 7.33662 6.01314 7.95434 5.98234C8.57205 5.95155 9.18012 6.14484 9.66667 6.52666" stroke="#0D121C" stroke-linecap="round" stroke-linejoin="round"/>
<path d="M10.5 8.5C10.5 8.8283 10.4353 9.15339 10.3097 9.45671C10.1841 9.76002 9.99991 10.0356 9.76777 10.2678C9.53562 10.4999 9.26002 10.6841 8.95671 10.8097C8.65339 10.9353 8.3283 11 8 11" stroke="#0D121C" stroke-linecap="round" stroke-linejoin="round"/>
</svg>
