<svg width="16" height="16" viewBox="0 0 16 16" fill="none" xmlns="http://www.w3.org/2000/svg">
<g clip-path="url(#clip0_1_3229)">
<path d="M10.1213 5.87866L5.87867 10.1207" stroke="#0D121C" stroke-linecap="round" stroke-linejoin="round"/>
<path d="M5.87867 5.87866L10.1213 10.1207" stroke="#0D121C" stroke-linecap="round" stroke-linejoin="round"/>
<path d="M0.5 8C0.5 9.98912 1.29018 11.8968 2.6967 13.3033C4.10322 14.7098 6.01088 15.5 8 15.5C9.98912 15.5 11.8968 14.7098 13.3033 13.3033C14.7098 11.8968 15.5 9.98912 15.5 8C15.5 6.01088 14.7098 4.10322 13.3033 2.6967C11.8968 1.29018 9.98912 0.5 8 0.5C6.01088 0.5 4.10322 1.29018 2.6967 2.6967C1.29018 4.10322 0.5 6.01088 0.5 8Z" stroke="#0D121C" stroke-linecap="round" stroke-linejoin="round"/>
</g>
<defs>
<clipPath id="clip0_1_3229">
<rect width="16" height="16" fill="white"/>
</clipPath>
</defs>
</svg>
