<svg width="16" height="16" viewBox="0 0 16 16" fill="none" xmlns="http://www.w3.org/2000/svg">
<g clip-path="url(#clip0_1_3131)">
<path d="M0.5 7.99933C0.5 9.98845 1.29018 11.8961 2.6967 13.3026C4.10322 14.7092 6.01088 15.4993 8 15.4993C9.98912 15.4993 11.8968 14.7092 13.3033 13.3026C14.7098 11.8961 15.5 9.98845 15.5 7.99933C15.5 6.01021 14.7098 4.10255 13.3033 2.69603C11.8968 1.2895 9.98912 0.499329 8 0.499329C6.01088 0.499329 4.10322 1.2895 2.6967 2.69603C1.29018 4.10255 0.5 6.01021 0.5 7.99933Z" stroke="#0D121C" stroke-linecap="round" stroke-linejoin="round"/>
<path d="M5 10.9993L11 4.99933" stroke="#0D121C" stroke-linecap="round" stroke-linejoin="round"/>
<path d="M11 10.9993L5 4.99933" stroke="#0D121C" stroke-linecap="round" stroke-linejoin="round"/>
</g>
<defs>
<clipPath id="clip0_1_3131">
<rect width="16" height="16" fill="white"/>
</clipPath>
</defs>
</svg>
