<svg width="16" height="16" viewBox="0 0 16 16" fill="none" xmlns="http://www.w3.org/2000/svg">
<g clip-path="url(#clip0_1_3205)">
<path d="M2.95866 6.40135C2.95866 6.85344 3.04771 7.30111 3.22072 7.7188C3.39373 8.13648 3.64732 8.516 3.967 8.83568C4.28668 9.15536 4.6662 9.40894 5.08388 9.58196C5.50156 9.75497 5.94923 9.84401 6.40133 9.84401C6.85343 9.84401 7.3011 9.75497 7.71878 9.58196C8.13647 9.40894 8.51598 9.15536 8.83566 8.83568C9.15534 8.516 9.40893 8.13648 9.58194 7.7188C9.75495 7.30111 9.844 6.85344 9.844 6.40135C9.844 5.48829 9.48129 4.61264 8.83566 3.96701C8.19004 3.32139 7.31438 2.95868 6.40133 2.95868C5.48828 2.95868 4.61262 3.32139 3.967 3.96701C3.32137 4.61264 2.95866 5.48829 2.95866 6.40135Z" stroke="#0D121C" stroke-linecap="round" stroke-linejoin="round"/>
<path d="M11.3527 9.614L15.14 13.4C15.3706 13.6307 15.5002 13.9437 15.5001 14.2699C15.5001 14.5962 15.3704 14.909 15.1397 15.1397C14.9089 15.3703 14.596 15.4999 14.2698 15.4998C13.9435 15.4997 13.6306 15.3701 13.4 15.1393L9.61333 11.3527C8.3899 12.147 6.91571 12.4602 5.47501 12.2319C4.03432 12.0037 2.72914 11.2501 1.81113 10.1166C0.893124 8.98301 0.4273 7.54971 0.503476 6.09304C0.579652 4.63636 1.19243 3.25947 2.22367 2.22784C3.2549 1.19621 4.63156 0.5829 6.0882 0.506166C7.54485 0.429431 8.97833 0.894706 10.1122 1.81228C11.2462 2.72985 12.0002 4.03474 12.229 5.47535C12.4578 6.91596 12.1452 8.39026 11.3513 9.614H11.3527Z" stroke="#0D121C" stroke-linejoin="round"/>
</g>
<defs>
<clipPath id="clip0_1_3205">
<rect width="16" height="16" fill="white"/>
</clipPath>
</defs>
</svg>
