<svg width="16" height="16" viewBox="0 0 16 16" fill="none" xmlns="http://www.w3.org/2000/svg">
<g clip-path="url(#clip0_1_3233)">
<path d="M0.5 8C0.5 9.98912 1.29018 11.8968 2.6967 13.3033C4.10322 14.7098 6.01088 15.5 8 15.5C9.98912 15.5 11.8968 14.7098 13.3033 13.3033C14.7098 11.8968 15.5 9.98912 15.5 8C15.5 6.01088 14.7098 4.10322 13.3033 2.6967C11.8968 1.29018 9.98912 0.5 8 0.5C6.01088 0.5 4.10322 1.29018 2.6967 2.6967C1.29018 4.10322 0.5 6.01088 0.5 8Z" stroke="#0D121C" stroke-linecap="round" stroke-linejoin="round"/>
<path d="M4.5 7.41667C4.5 8.19021 4.80729 8.93208 5.35427 9.47906C5.90125 10.026 6.64312 10.3333 7.41667 10.3333C8.19021 10.3333 8.93208 10.026 9.47906 9.47906C10.026 8.93208 10.3333 8.19021 10.3333 7.41667C10.3333 6.64312 10.026 5.90125 9.47906 5.35427C8.93208 4.80729 8.19021 4.5 7.41667 4.5C6.64312 4.5 5.90125 4.80729 5.35427 5.35427C4.80729 5.90125 4.5 6.64312 4.5 7.41667Z" stroke="#0D121C" stroke-linecap="round" stroke-linejoin="round"/>
<path d="M9.47933 9.47867L11.5 11.5" stroke="#0D121C" stroke-linecap="round" stroke-linejoin="round"/>
</g>
<defs>
<clipPath id="clip0_1_3233">
<rect width="16" height="16" fill="white"/>
</clipPath>
</defs>
</svg>
