<svg width="16" height="16" viewBox="0 0 16 16" fill="none" xmlns="http://www.w3.org/2000/svg">
<g clip-path="url(#clip0_1_3181)">
<path d="M5.18 6.33668C5.0688 6.28738 4.96911 6.2154 4.88734 6.12534L4.46734 5.65868C4.34739 5.52331 4.18809 5.42886 4.01177 5.38857C3.83546 5.34827 3.65095 5.36415 3.48411 5.43397C3.31726 5.5038 3.17645 5.62407 3.08139 5.77794C2.98632 5.93181 2.94178 6.11156 2.954 6.29201V6.91201C2.96076 7.03372 2.94175 7.15549 2.89824 7.26936C2.85473 7.38323 2.78769 7.48664 2.70149 7.57283C2.6153 7.65903 2.51189 7.72607 2.39802 7.76958C2.28415 7.81309 2.16238 7.83209 2.04067 7.82534L1.414 7.79201C1.23428 7.78361 1.05634 7.83094 0.904527 7.9275C0.752714 8.02407 0.634431 8.16517 0.565852 8.33151C0.497272 8.49786 0.481743 8.68132 0.521388 8.85682C0.561032 9.03232 0.653915 9.1913 0.787337 9.31201L1.254 9.72534C1.3461 9.80996 1.41926 9.91311 1.46866 10.028C1.51807 10.1429 1.54261 10.267 1.54067 10.392C1.54347 10.5172 1.51932 10.6415 1.46986 10.7565C1.4204 10.8716 1.34678 10.9746 1.254 11.0587L0.787337 11.4787C0.65427 11.5995 0.561735 11.7585 0.522362 11.9339C0.482988 12.1093 0.498695 12.2925 0.567337 12.4587C0.636007 12.6242 0.754297 12.7644 0.905924 12.8599C1.05755 12.9554 1.23506 13.0016 1.414 12.992H2.04067C2.16236 12.9854 2.28408 13.0044 2.3979 13.048C2.51172 13.0915 2.61508 13.1586 2.70126 13.2448C2.78743 13.3309 2.85448 13.4343 2.89803 13.5481C2.94158 13.6619 2.96065 13.7837 2.954 13.9053V14.5253C2.94332 14.7052 2.98897 14.8839 3.0846 15.0367C3.18023 15.1894 3.32109 15.3085 3.48757 15.3774C3.65405 15.4464 3.83788 15.4617 4.01348 15.4213C4.18908 15.3809 4.34773 15.2868 4.46734 15.152L4.88734 14.692C4.9692 14.6018 5.06902 14.5298 5.18039 14.4804C5.29175 14.4311 5.41221 14.4056 5.534 14.4056C5.6558 14.4056 5.77625 14.4311 5.88762 14.4804C5.99899 14.5298 6.09881 14.6018 6.18067 14.692L6.60067 15.152C6.72028 15.2868 6.87892 15.3809 7.05453 15.4213C7.23013 15.4617 7.41396 15.4464 7.58044 15.3774C7.74692 15.3085 7.88778 15.1894 7.98341 15.0367C8.07904 14.8839 8.12469 14.7052 8.114 14.5253V13.9053C8.10725 13.7836 8.12625 13.6619 8.16977 13.548C8.21328 13.4341 8.28032 13.3307 8.36652 13.2445C8.45271 13.1583 8.55612 13.0913 8.66999 13.0478C8.78386 13.0043 8.90563 12.9853 9.02734 12.992H9.654C9.78808 12.9994 9.92205 12.9756 10.0453 12.9224C10.1686 12.8691 10.2778 12.788 10.3644 12.6853C10.451 12.5827 10.5125 12.4613 10.5441 12.3308C10.5758 12.2003 10.5766 12.0642 10.5467 11.9333C10.5072 11.7579 10.4146 11.5988 10.2813 11.478L9.81467 11.058C9.72193 10.9739 9.64833 10.8709 9.59888 10.7558C9.54942 10.6408 9.52525 10.5165 9.528 10.3913C9.52607 10.2663 9.5506 10.1422 9.60001 10.0273C9.64942 9.91244 9.72257 9.8093 9.81467 9.72468L10.2813 9.31134C10.4148 9.19063 10.5076 9.03166 10.5473 8.85616C10.5869 8.68065 10.5714 8.49719 10.5028 8.33085C10.4342 8.16451 10.316 8.02341 10.1641 7.92684C10.0123 7.83027 9.8344 7.78295 9.65467 7.79134L9.028 7.82468C8.90629 7.83143 8.78452 7.81243 8.67066 7.76892C8.55679 7.7254 8.45338 7.65836 8.36718 7.57217C8.28099 7.48597 8.21394 7.38256 8.17043 7.26869C8.12692 7.15482 8.10792 7.03305 8.11467 6.91134V6.29134C8.12689 6.11089 8.08235 5.93114 7.98729 5.77727C7.89223 5.6234 7.75141 5.50313 7.58457 5.43331C7.41772 5.36348 7.23322 5.34761 7.0569 5.3879C6.88058 5.4282 6.72129 5.52264 6.60134 5.65801L6.18134 6.12468C6.05798 6.26047 5.89498 6.35397 5.71548 6.39191C5.53598 6.42984 5.34909 6.41028 5.18134 6.33601L5.18 6.33668Z" stroke="#0D121C" stroke-linecap="round" stroke-linejoin="round"/>
<path d="M5.534 11.6253C5.86641 11.6253 6.1852 11.4933 6.42024 11.2582C6.65529 11.0232 6.78734 10.7044 6.78734 10.372C6.78734 10.0396 6.65529 9.72079 6.42024 9.48575C6.1852 9.2507 5.86641 9.11865 5.534 9.11865C5.2016 9.11865 4.88281 9.2507 4.64776 9.48575C4.41272 9.72079 4.28067 10.0396 4.28067 10.372C4.28067 10.7044 4.41272 11.0232 4.64776 11.2582C4.88281 11.4933 5.2016 11.6253 5.534 11.6253Z" stroke="#0D121C" stroke-linecap="round" stroke-linejoin="round"/>
<path d="M12.1047 4.15867C12.0163 4.15867 11.9315 4.12355 11.869 4.06104C11.8065 3.99853 11.7713 3.91374 11.7713 3.82534C11.7713 3.73693 11.8065 3.65215 11.869 3.58964C11.9315 3.52712 12.0163 3.492 12.1047 3.492" stroke="#0D121C"/>
<path d="M12.1047 4.15867C12.1931 4.15867 12.2779 4.12355 12.3404 4.06104C12.4029 3.99853 12.438 3.91374 12.438 3.82534C12.438 3.73693 12.4029 3.65215 12.3404 3.58964C12.2779 3.52712 12.1931 3.492 12.1047 3.492" stroke="#0D121C"/>
<path d="M10.7567 1.22332C10.7608 1.08225 10.8103 0.946269 10.8978 0.835568C10.9854 0.724866 11.1063 0.645346 11.2426 0.608815C11.3789 0.572283 11.5234 0.580688 11.6545 0.632782C11.7857 0.684875 11.8966 0.777879 11.9707 0.897985L12.3673 1.53399C12.4329 1.63962 12.5362 1.71641 12.6562 1.74883C12.7763 1.78126 12.9041 1.76689 13.014 1.70865L13.672 1.35799C13.797 1.29186 13.9398 1.26761 14.0796 1.2888C14.2194 1.30999 14.3487 1.37551 14.4484 1.4757C14.5482 1.57589 14.6131 1.70546 14.6337 1.84534C14.6542 1.98521 14.6293 2.12799 14.5627 2.25265L14.2113 2.91332C14.1529 3.0235 14.1383 3.15173 14.1706 3.27221C14.2029 3.39269 14.2796 3.49646 14.3853 3.56265L15.0187 3.96065C15.1387 4.03533 15.2316 4.14659 15.2837 4.27804C15.3358 4.40949 15.3442 4.55419 15.3079 4.69082C15.2715 4.82745 15.1922 4.94879 15.0817 5.03698C14.9712 5.12516 14.8353 5.17553 14.694 5.18065L13.9493 5.20599C13.8249 5.21032 13.7069 5.26176 13.619 5.34989C13.5311 5.43802 13.48 5.55626 13.476 5.68065L13.4527 6.42732C13.4483 6.56834 13.3986 6.7042 13.311 6.81478C13.2234 6.92536 13.1025 7.00478 12.9662 7.04128C12.8299 7.07778 12.6855 7.06942 12.5544 7.01744C12.4232 6.96545 12.3123 6.87261 12.238 6.75265L11.8413 6.11665C11.7758 6.0109 11.6726 5.934 11.5525 5.90157C11.4324 5.86913 11.3045 5.88358 11.1947 5.94199L10.5367 6.29265C10.4117 6.35878 10.2688 6.38303 10.129 6.36184C9.98925 6.34065 9.85997 6.27513 9.76023 6.17494C9.66048 6.07475 9.59555 5.94517 9.57498 5.8053C9.55442 5.66543 9.57931 5.52265 9.64599 5.39799L9.99533 4.73665C10.0538 4.62655 10.0685 4.49837 10.0363 4.3779C10.0042 4.25744 9.9276 4.15361 9.82199 4.08732L9.18866 3.69132C9.06864 3.61668 8.97575 3.50548 8.92366 3.37409C8.87158 3.2427 8.86305 3.09806 8.89932 2.96146C8.9356 2.82485 9.01477 2.7035 9.12519 2.61527C9.2356 2.52704 9.37142 2.47658 9.51266 2.47132L10.2587 2.44599C10.3829 2.44148 10.5007 2.38994 10.5883 2.30181C10.676 2.21368 10.7269 2.09555 10.7307 1.97132L10.7567 1.22332Z" stroke="#0D121C" stroke-linecap="round" stroke-linejoin="round"/>
</g>
<defs>
<clipPath id="clip0_1_3181">
<rect width="16" height="16" fill="white"/>
</clipPath>
</defs>
</svg>
