<svg width="16" height="16" viewBox="0 0 16 16" fill="none" xmlns="http://www.w3.org/2000/svg">
<g clip-path="url(#clip0_1_3192)">
<path d="M14.1427 8.404C14.831 7.716 15.2851 6.82871 15.4407 5.86802C15.5963 4.90734 15.4453 3.92207 15.0093 3.052L12.6427 5.416C12.4551 5.60347 12.2008 5.70879 11.9357 5.70879C11.6705 5.70879 11.4162 5.60347 11.2287 5.416L10.6953 4.88267C10.6024 4.7898 10.5287 4.67953 10.4784 4.55817C10.4281 4.4368 10.4022 4.30671 10.4022 4.17534C10.4022 4.04396 10.4281 3.91387 10.4784 3.7925C10.5287 3.67114 10.6024 3.56087 10.6953 3.468L13.0953 1.068C12.2362 0.598875 11.2504 0.414051 10.2797 0.540064C9.30889 0.666076 8.40302 1.09644 7.69209 1.76938C6.98116 2.44232 6.50175 3.32322 6.32266 4.28561C6.14358 5.248 6.27405 6.24238 6.69533 7.126L0.799996 13.0173C0.704409 13.1128 0.628579 13.2262 0.576842 13.351C0.525104 13.4758 0.498474 13.6096 0.498474 13.7447C0.498474 13.8798 0.525104 14.0135 0.576842 14.1383C0.628579 14.2631 0.704409 14.3765 0.799996 14.472L1.52733 15.2C1.62286 15.2956 1.7363 15.3715 1.86115 15.4232C1.98601 15.4749 2.11984 15.5016 2.255 15.5016C2.39015 15.5016 2.52398 15.4749 2.64884 15.4232C2.7737 15.3715 2.88713 15.2956 2.98266 15.2L8.87333 9.30934C9.73747 9.72172 10.7082 9.8561 11.6519 9.69397C12.5955 9.53184 13.4657 9.08117 14.1427 8.404Z" stroke="#0D121C" stroke-linecap="round" stroke-linejoin="round"/>
</g>
<defs>
<clipPath id="clip0_1_3192">
<rect width="16" height="16" fill="white"/>
</clipPath>
</defs>
</svg>
