<svg width="16" height="16" viewBox="0 0 16 16" fill="none" xmlns="http://www.w3.org/2000/svg">
<g clip-path="url(#clip0_1_3226)">
<path d="M6.26667 11.1613L11.1607 6.26666C11.7266 6.53675 12.3624 6.62478 12.9805 6.51864C13.5985 6.41249 14.1685 6.1174 14.612 5.67396C15.0554 5.23052 15.3505 4.66054 15.4566 4.04247C15.5628 3.42441 15.4748 2.78863 15.2047 2.22266L14.2547 3.17533C14.0651 3.36487 13.8081 3.47135 13.54 3.47135C13.2719 3.47135 13.0149 3.36487 12.8253 3.17533C12.6358 2.98578 12.5293 2.72871 12.5293 2.46066C12.5293 2.19261 12.6358 1.93553 12.8253 1.74599L13.7747 0.795992C13.2088 0.526824 12.5734 0.439516 11.9559 0.546068C11.3384 0.65262 10.7691 0.947802 10.3261 1.39104C9.88316 1.83429 9.58835 2.40384 9.48221 3.02142C9.37606 3.639 9.46379 4.27429 9.73333 4.83999L4.83933 9.73333C4.27336 9.46324 3.63758 9.37521 3.01952 9.48135C2.40145 9.58749 1.83147 9.88259 1.38803 10.326C0.944596 10.7695 0.649497 11.3394 0.543355 11.9575C0.437212 12.5756 0.525243 13.2114 0.795332 13.7773L1.74533 12.828C1.93487 12.6385 2.19195 12.532 2.46 12.532C2.72805 12.532 2.98512 12.6385 3.17467 12.828C3.36421 13.0175 3.47069 13.2746 3.47069 13.5427C3.47069 13.8107 3.36421 14.0678 3.17467 14.2573L2.22533 15.2053C2.79121 15.4745 3.42656 15.5618 4.04407 15.4553C4.66158 15.3487 5.23094 15.0535 5.67389 14.6103C6.11684 14.167 6.41164 13.5975 6.51779 12.9799C6.62393 12.3623 6.53621 11.727 6.26667 11.1613Z" stroke="#0D121C" stroke-linecap="round" stroke-linejoin="round"/>
</g>
<defs>
<clipPath id="clip0_1_3226">
<rect width="16" height="16" fill="white"/>
</clipPath>
</defs>
</svg>
