<svg width="16" height="16" viewBox="0 0 16 16" fill="none" xmlns="http://www.w3.org/2000/svg">
<path d="M14.5 3.5H9C8.46957 3.5 7.96086 3.71071 7.58579 4.08579C7.21071 4.46086 7 4.96957 7 5.5V8" stroke="#0D121C" stroke-linecap="round" stroke-linejoin="round"/>
<path d="M11.5 6.5L14.5 3.5L11.5 0.5" stroke="#0D121C" stroke-linecap="round" stroke-linejoin="round"/>
<path d="M12.5 9.5V14.5C12.5 14.7652 12.3946 15.0196 12.2071 15.2071C12.0196 15.3946 11.7652 15.5 11.5 15.5H2.5C2.23478 15.5 1.98043 15.3946 1.79289 15.2071C1.60536 15.0196 1.5 14.7652 1.5 14.5V6.5C1.5 6.23478 1.60536 5.98043 1.79289 5.79289C1.98043 5.60536 2.23478 5.5 2.5 5.5H4" stroke="#0D121C" stroke-linecap="round" stroke-linejoin="round"/>
</svg>
