<svg width="16" height="16" viewBox="0 0 16 16" fill="none" xmlns="http://www.w3.org/2000/svg">
<g clip-path="url(#clip0_1_3111)">
<path d="M0.756668 1.75598V5.92798C0.756781 6.45837 0.967569 6.967 1.34267 7.34198L9.096 15.0953C9.15998 15.1593 9.24014 15.2048 9.32793 15.2269C9.41572 15.2489 9.50786 15.2467 9.5945 15.2205C9.68114 15.1943 9.75904 15.145 9.81988 15.078C9.88073 15.011 9.92225 14.9287 9.94 14.84L10.7567 10.756L14.8407 9.93932C14.9294 9.92156 15.0117 9.88005 15.0787 9.8192C15.1457 9.75835 15.195 9.68045 15.2212 9.59381C15.2474 9.50717 15.2496 9.41504 15.2275 9.32725C15.2055 9.23945 15.16 9.15929 15.096 9.09531L7.34267 1.34198C6.96768 0.966883 6.45906 0.756095 5.92867 0.755981H1.75667C1.49145 0.755981 1.2371 0.861338 1.04956 1.04887C0.862025 1.23641 0.756668 1.49077 0.756668 1.75598Z" stroke="#0D121C" stroke-linecap="round" stroke-linejoin="round"/>
<path d="M3.25667 4.25598C3.25667 4.3873 3.28253 4.51734 3.33279 4.63866C3.38304 4.75999 3.4567 4.87023 3.54956 4.96309C3.64242 5.05595 3.75266 5.12961 3.87398 5.17986C3.99531 5.23012 4.12535 5.25598 4.25667 5.25598C4.38799 5.25598 4.51803 5.23012 4.63935 5.17986C4.76068 5.12961 4.87092 5.05595 4.96377 4.96309C5.05663 4.87023 5.13029 4.75999 5.18055 4.63866C5.2308 4.51734 5.25667 4.3873 5.25667 4.25598C5.25667 4.12466 5.2308 3.99462 5.18055 3.8733C5.13029 3.75197 5.05663 3.64173 4.96377 3.54887C4.87092 3.45602 4.76068 3.38236 4.63935 3.3321C4.51803 3.28185 4.38799 3.25598 4.25667 3.25598C4.12535 3.25598 3.99531 3.28185 3.87398 3.3321C3.75266 3.38236 3.64242 3.45602 3.54956 3.54887C3.4567 3.64173 3.38304 3.75197 3.33279 3.8733C3.28253 3.99462 3.25667 4.12466 3.25667 4.25598Z" stroke="#0D121C" stroke-linecap="round" stroke-linejoin="round"/>
</g>
<defs>
<clipPath id="clip0_1_3111">
<rect width="16" height="16" fill="white"/>
</clipPath>
</defs>
</svg>
