<svg width="16" height="16" viewBox="0 0 16 16" fill="none" xmlns="http://www.w3.org/2000/svg">
<g clip-path="url(#clip0_1_3122)">
<path d="M10.4 1.35465L14.6447 5.59999C14.8321 5.78752 14.9374 6.04182 14.9374 6.30699C14.9374 6.57215 14.8321 6.82646 14.6447 7.01399L6.86666 14.7893C6.79677 14.8594 6.70766 14.9071 6.61061 14.9265C6.51357 14.9459 6.41295 14.9361 6.32151 14.8982C6.23006 14.8604 6.1519 14.7963 6.09692 14.714C6.04194 14.6317 6.01262 14.535 6.01266 14.436L5.80599 10.1933L1.56333 9.98599C1.4645 9.9859 1.36792 9.95653 1.28577 9.90158C1.20363 9.84664 1.13961 9.76858 1.1018 9.67727C1.06399 9.58596 1.05409 9.4855 1.07335 9.38856C1.09261 9.29163 1.14016 9.20258 1.20999 9.13266L8.98799 1.35465C9.17544 1.16779 9.42932 1.06287 9.69399 1.06287C9.95867 1.06287 10.2125 1.16779 10.4 1.35465Z" stroke="#0D121C" stroke-linecap="round" stroke-linejoin="round"/>
</g>
<defs>
<clipPath id="clip0_1_3122">
<rect width="16" height="16" fill="white"/>
</clipPath>
</defs>
</svg>
