<svg width="16" height="16" viewBox="0 0 16 16" fill="none" xmlns="http://www.w3.org/2000/svg">
<g clip-path="url(#clip0_1_3182)">
<path d="M4.5 10C4.5 11.4587 5.07946 12.8576 6.11091 13.8891C7.14236 14.9205 8.54131 15.5 10 15.5C11.4587 15.5 12.8576 14.9205 13.8891 13.8891C14.9205 12.8576 15.5 11.4587 15.5 10C15.5 8.54131 14.9205 7.14236 13.8891 6.11091C12.8576 5.07946 11.4587 4.5 10 4.5C8.54131 4.5 7.14236 5.07946 6.11091 6.11091C5.07946 7.14236 4.5 8.54131 4.5 10Z" stroke="#0D121C" stroke-linecap="round" stroke-linejoin="round"/>
<path d="M0.5 6.5V3.5C0.5 2.70435 0.81607 1.94129 1.37868 1.37868C1.94129 0.816071 2.70435 0.5 3.5 0.5C4.29565 0.5 5.05871 0.816071 5.62132 1.37868C6.18393 1.94129 6.5 2.70435 6.5 3.5V5.75667" stroke="#0D121C" stroke-linecap="round" stroke-linejoin="round"/>
<path d="M10 9V11" stroke="#0D121C" stroke-linecap="round"/>
</g>
<defs>
<clipPath id="clip0_1_3182">
<rect width="16" height="16" fill="white"/>
</clipPath>
</defs>
</svg>
