<svg width="16" height="16" viewBox="0 0 16 16" fill="none" xmlns="http://www.w3.org/2000/svg">
<g clip-path="url(#clip0_1_3209)">
<path d="M0.5 6.5V4C0.5 3.07174 0.868749 2.1815 1.52513 1.52513C2.1815 0.868749 3.07174 0.5 4 0.5C4.92826 0.5 5.8185 0.868749 6.47487 1.52513C7.13125 2.1815 7.5 3.07174 7.5 4V6.5" stroke="#0D121C" stroke-linecap="round" stroke-linejoin="round"/>
<path d="M5.5 6.5H14.5C14.5 6.5 15.5 6.5 15.5 7.5V14.5C15.5 14.5 15.5 15.5 14.5 15.5H5.5C5.5 15.5 4.5 15.5 4.5 14.5V7.5C4.5 7.5 4.5 6.5 5.5 6.5Z" stroke="#0D121C" stroke-linecap="round" stroke-linejoin="round"/>
<path d="M10 10V12" stroke="#0D121C" stroke-linecap="round" stroke-linejoin="round"/>
</g>
<defs>
<clipPath id="clip0_1_3209">
<rect width="16" height="16" fill="white"/>
</clipPath>
</defs>
</svg>
